<?xml version="1.0" encoding="utf-8"?>
<!-- Generator: Adobe Illustrator 16.0.0, SVG Export Plug-In . SVG Version: 6.00 Build 0)  -->
<!DOCTYPE svg PUBLIC "-//W3C//DTD SVG 1.1//EN" "http://www.w3.org/Graphics/SVG/1.1/DTD/svg11.dtd">
<svg version="1.1" id="Layer_1" xmlns="http://www.w3.org/2000/svg" xmlns:xlink="http://www.w3.org/1999/xlink" x="0px" y="0px"
	 width="612px" height="792px" viewBox="0 0 612 792" enable-background="new 0 0 612 792" xml:space="preserve">
<g>
	<polyline fill="none" stroke="#000000" stroke-miterlimit="10" points="-523.5,958.5 854.5,958.5 854.5,1179.5 -523.5,1179.5 
		-523.5,958.5 	"/>
	<line fill="none" stroke="#000000" stroke-miterlimit="10" x1="-523.5" y1="958.5" x2="854.5" y2="1179.5"/>
	<line fill="none" stroke="#000000" stroke-miterlimit="10" x1="854.5" y1="958.5" x2="-523.5" y2="1179.5"/>
</g>
<g>
	<polyline fill="none" stroke="#000000" stroke-miterlimit="10" points="1706.5,962.5 1982.5,962.5 1982.5,1182.5 1706.5,1182.5 
		1706.5,962.5 	"/>
	<line fill="none" stroke="#000000" stroke-miterlimit="10" x1="1706.5" y1="962.5" x2="1982.5" y2="1182.5"/>
	<line fill="none" stroke="#000000" stroke-miterlimit="10" x1="1982.5" y1="962.5" x2="1706.5" y2="1182.5"/>
</g>
<g>
	<polyline fill="none" stroke="#000000" stroke-miterlimit="10" points="1425.5,962.5 1700.5,962.5 1700.5,1182.5 1425.5,1182.5 
		1425.5,962.5 	"/>
	<line fill="none" stroke="#000000" stroke-miterlimit="10" x1="1425.5" y1="962.5" x2="1700.5" y2="1182.5"/>
	<line fill="none" stroke="#000000" stroke-miterlimit="10" x1="1700.5" y1="962.5" x2="1425.5" y2="1182.5"/>
</g>
<g>
	<polyline fill="none" stroke="#000000" stroke-miterlimit="10" points="1143.5,962.5 1419.5,962.5 1419.5,1182.5 1143.5,1182.5 
		1143.5,962.5 	"/>
	<line fill="none" stroke="#000000" stroke-miterlimit="10" x1="1143.5" y1="962.5" x2="1419.5" y2="1182.5"/>
	<line fill="none" stroke="#000000" stroke-miterlimit="10" x1="1419.5" y1="962.5" x2="1143.5" y2="1182.5"/>
</g>
<g>
	<polyline fill="none" stroke="#000000" stroke-miterlimit="10" points="862.5,962.5 1137.5,962.5 1137.5,1182.5 862.5,1182.5 
		862.5,962.5 	"/>
	<line fill="none" stroke="#000000" stroke-miterlimit="10" x1="862.5" y1="962.5" x2="1137.5" y2="1182.5"/>
	<line fill="none" stroke="#000000" stroke-miterlimit="10" x1="1137.5" y1="962.5" x2="862.5" y2="1182.5"/>
</g>
<g>
	<polyline fill="none" stroke="#000000" stroke-miterlimit="10" points="1379.5,733.5 1984.5,733.5 1984.5,953.5 1379.5,953.5 
		1379.5,733.5 	"/>
	<line fill="none" stroke="#000000" stroke-miterlimit="10" x1="1379.5" y1="733.5" x2="1984.5" y2="953.5"/>
	<line fill="none" stroke="#000000" stroke-miterlimit="10" x1="1984.5" y1="733.5" x2="1379.5" y2="953.5"/>
</g>
<g>
	<polyline fill="none" stroke="#000000" stroke-miterlimit="10" points="1492.5,508.5 1984.5,508.5 1984.5,728.5 1492.5,728.5 
		1492.5,508.5 	"/>
	<line fill="none" stroke="#000000" stroke-miterlimit="10" x1="1492.5" y1="508.5" x2="1984.5" y2="728.5"/>
	<line fill="none" stroke="#000000" stroke-miterlimit="10" x1="1984.5" y1="508.5" x2="1492.5" y2="728.5"/>
</g>
<g>
	<polyline fill="none" stroke="#000000" stroke-miterlimit="10" points="-813.5,958.5 -538.5,958.5 -538.5,1178.5 -813.5,1178.5 
		-813.5,958.5 	"/>
	<line fill="none" stroke="#000000" stroke-miterlimit="10" x1="-813.5" y1="958.5" x2="-538.5" y2="1178.5"/>
	<line fill="none" stroke="#000000" stroke-miterlimit="10" x1="-538.5" y1="958.5" x2="-813.5" y2="1178.5"/>
</g>
<g>
	<polyline fill="none" stroke="#000000" stroke-miterlimit="10" points="-1095.5,958.5 -819.5,958.5 -819.5,1178.5 -1095.5,1178.5 
		-1095.5,958.5 	"/>
	<line fill="none" stroke="#000000" stroke-miterlimit="10" x1="-1095.5" y1="958.5" x2="-819.5" y2="1178.5"/>
	<line fill="none" stroke="#000000" stroke-miterlimit="10" x1="-819.5" y1="958.5" x2="-1095.5" y2="1178.5"/>
</g>
<g>
	<polyline fill="none" stroke="#000000" stroke-miterlimit="10" points="-1376.5,958.5 -1101.5,958.5 -1101.5,1178.5 
		-1376.5,1178.5 -1376.5,958.5 	"/>
	<line fill="none" stroke="#000000" stroke-miterlimit="10" x1="-1376.5" y1="958.5" x2="-1101.5" y2="1178.5"/>
	<line fill="none" stroke="#000000" stroke-miterlimit="10" x1="-1101.5" y1="958.5" x2="-1376.5" y2="1178.5"/>
</g>
<g>
	<polyline fill="none" stroke="#000000" stroke-miterlimit="10" points="-1376.5,733.5 -880.5,733.5 -880.5,953.5 -1376.5,953.5 
		-1376.5,733.5 	"/>
	<line fill="none" stroke="#000000" stroke-miterlimit="10" x1="-1376.5" y1="733.5" x2="-880.5" y2="953.5"/>
	<line fill="none" stroke="#000000" stroke-miterlimit="10" x1="-880.5" y1="733.5" x2="-1376.5" y2="953.5"/>
</g>
<g>
	<polyline fill="none" stroke="#000000" stroke-miterlimit="10" points="-1376.5,508.5 -992.5,508.5 -992.5,728.5 -1376.5,728.5 
		-1376.5,508.5 	"/>
	<line fill="none" stroke="#000000" stroke-miterlimit="10" x1="-1376.5" y1="508.5" x2="-992.5" y2="728.5"/>
	<line fill="none" stroke="#000000" stroke-miterlimit="10" x1="-992.5" y1="508.5" x2="-1376.5" y2="728.5"/>
</g>
<g>
	<polyline fill="none" stroke="#000000" stroke-miterlimit="10" points="-1376.5,283.5 -1048.5,283.5 -1048.5,503.5 -1376.5,503.5 
		-1376.5,283.5 	"/>
	<line fill="none" stroke="#000000" stroke-miterlimit="10" x1="-1376.5" y1="283.5" x2="-1048.5" y2="503.5"/>
	<line fill="none" stroke="#000000" stroke-miterlimit="10" x1="-1048.5" y1="283.5" x2="-1376.5" y2="503.5"/>
</g>
<g>
	<polyline fill="none" stroke="#000000" stroke-miterlimit="10" points="1548.5,58.5 1988.5,58.5 1988.5,278.5 1548.5,278.5 
		1548.5,58.5 	"/>
	<line fill="none" stroke="#000000" stroke-miterlimit="10" x1="1548.5" y1="58.5" x2="1988.5" y2="278.5"/>
	<line fill="none" stroke="#000000" stroke-miterlimit="10" x1="1988.5" y1="58.5" x2="1548.5" y2="278.5"/>
</g>
<g>
	<polyline fill="none" stroke="#000000" stroke-miterlimit="10" points="-523.5,731.5 854.5,731.5 854.5,952.5 -523.5,952.5 
		-523.5,731.5 	"/>
	<line fill="none" stroke="#000000" stroke-miterlimit="10" x1="-523.5" y1="731.5" x2="854.5" y2="952.5"/>
	<line fill="none" stroke="#000000" stroke-miterlimit="10" x1="854.5" y1="731.5" x2="-523.5" y2="952.5"/>
</g>
<g>
	<polyline fill="none" stroke="#000000" stroke-miterlimit="10" points="-1376.5,-390.5 -1161.5,-390.5 -1161.5,-170.5 
		-1376.5,-170.5 -1376.5,-390.5 	"/>
	<line fill="none" stroke="#000000" stroke-miterlimit="10" x1="-1376.5" y1="-390.5" x2="-1161.5" y2="-170.5"/>
	<line fill="none" stroke="#000000" stroke-miterlimit="10" x1="-1161.5" y1="-390.5" x2="-1376.5" y2="-170.5"/>
</g>
<g>
	<polyline fill="none" stroke="#000000" stroke-miterlimit="10" points="-1149.5,-389.5 -934.5,-389.5 -934.5,-169.5 
		-1149.5,-169.5 -1149.5,-389.5 	"/>
	<line fill="none" stroke="#000000" stroke-miterlimit="10" x1="-1149.5" y1="-389.5" x2="-934.5" y2="-169.5"/>
	<line fill="none" stroke="#000000" stroke-miterlimit="10" x1="-934.5" y1="-389.5" x2="-1149.5" y2="-169.5"/>
</g>
<g>
	<polyline fill="none" stroke="#000000" stroke-miterlimit="10" points="-924.5,-389.5 -708.5,-389.5 -708.5,-168.5 -924.5,-168.5 
		-924.5,-389.5 	"/>
	<line fill="none" stroke="#000000" stroke-miterlimit="10" x1="-924.5" y1="-389.5" x2="-708.5" y2="-168.5"/>
	<line fill="none" stroke="#000000" stroke-miterlimit="10" x1="-708.5" y1="-389.5" x2="-924.5" y2="-168.5"/>
</g>
<path fill-rule="evenodd" clip-rule="evenodd" d="M-1304.38-288.5c0,19.82,16.06,35.88,35.88,35.88s35.88-16.06,35.88-35.88
	c0-19.82-16.06-35.88-35.88-35.88S-1304.38-308.32-1304.38-288.5z M-1256.13-271.38l-12.37-12.38l-12.37,12.38l-4.25-4.25
	l12.37-12.37l-12.37-12.37l4.25-4.25l12.37,12.37l12.37-12.37l4.25,4.25l-12.38,12.37l12.38,12.37L-1256.13-271.38z"/>
<path fill-rule="evenodd" clip-rule="evenodd" d="M-1077.38-287.5c0,19.82,16.06,35.88,35.88,35.88s35.88-16.06,35.88-35.88
	c0-19.82-16.06-35.88-35.88-35.88S-1077.38-307.32-1077.38-287.5z M-1029.13-270.38l-12.37-12.38l-12.37,12.38l-4.25-4.25
	l12.38-12.37l-12.38-12.37l4.25-4.25l12.37,12.38l12.37-12.38l4.25,4.25l-12.38,12.37l12.38,12.37L-1029.13-270.38z"/>
<path fill-rule="evenodd" clip-rule="evenodd" d="M-852.38-287.5c0,19.82,16.06,35.88,35.88,35.88s35.88-16.06,35.88-35.88
	c0-19.82-16.06-35.88-35.88-35.88S-852.38-307.32-852.38-287.5z M-804.13-270.38l-12.37-12.38l-12.37,12.38l-4.25-4.25l12.38-12.37
	l-12.38-12.37l4.25-4.25l12.37,12.38l12.37-12.38l4.25,4.25L-812.26-287l12.38,12.37L-804.13-270.38z"/>
<g>
	<path fill-rule="evenodd" clip-rule="evenodd" d="M1806.04,619.21h-121.87v17.62L1664,616.67l20.17-20.17v17.63h121.87v-34.05h5.08
		v34.05C1811.12,616.93,1808.85,619.21,1806.04,619.21z"/>
</g>
<g>
	<polygon fill-rule="evenodd" clip-rule="evenodd" points="1839.17,171.25 1712.17,171.25 1712.17,188.83 1692,168.67 
		1712.17,148.5 1712.17,166.08 1834,166.08 1839.17,166.08 	"/>
</g>
<g>
	<polygon fill-rule="evenodd" clip-rule="evenodd" points="1681.54,855 1681.54,843 1664.67,843 1684.83,822.83 1705,843 
		1688.12,843 1688.12,848.42 1688.12,855 	"/>
</g>
<g>
	<polygon fill-rule="evenodd" clip-rule="evenodd" points="-1133.46,855 -1133.46,843 -1150.33,843 -1130.17,822.83 -1110,843 
		-1126.88,843 -1126.88,848.42 -1126.88,855 	"/>
</g>
<g>
	<polygon fill-rule="evenodd" clip-rule="evenodd" points="-1175,613 -1163,613 -1183.17,592.83 -1203.33,613 -1191.34,613 
		-1183.17,604.83 	"/>
	<g>
		<polygon fill-rule="evenodd" clip-rule="evenodd" points="-1186.46,644 -1186.46,632 -1203.33,632 -1183.17,611.83 -1163,632 
			-1179.88,632 -1179.88,637.42 -1179.88,644 		"/>
	</g>
</g>
<g>
	<polygon fill-rule="evenodd" clip-rule="evenodd" points="-682,1048.61 -682,1048 -682.35,1048 -682.4,1047.91 -682.55,1048 
		-703,1048 -703,1054 -685.82,1054 -670,1081.39 -670,1082 -669.65,1082 -669.6,1082.09 -669.45,1082 -651,1082 -651,1076 
		-666.18,1076 	"/>
	<rect x="-667" y="1048" fill-rule="evenodd" clip-rule="evenodd" width="16" height="6"/>
</g>
<g>
	<polygon fill-rule="evenodd" clip-rule="evenodd" points="994,1048.61 994,1048 993.65,1048 993.6,1047.91 993.45,1048 973,1048 
		973,1054 990.19,1054 1006,1081.39 1006,1082 1006.35,1082 1006.4,1082.09 1006.55,1082 1025,1082 1025,1076 1009.81,1076 	"/>
	<rect x="1009" y="1048" fill-rule="evenodd" clip-rule="evenodd" width="16" height="6"/>
</g>
<g>
	<g>
		<polygon fill-rule="evenodd" clip-rule="evenodd" points="-1272.56,386 -1176.5,386 -1176.5,368.5 -1156.33,388.67 
			-1176.5,408.83 -1176.5,391.33 -1267.23,391.33 -1272.56,391.33 		"/>
	</g>
	<rect x="-1156.5" y="368.5" fill-rule="evenodd" clip-rule="evenodd" width="6" height="41"/>
</g>
<polygon fill-rule="evenodd" clip-rule="evenodd" points="1868.87,1081.62 1873.12,1077.37 1844.13,1048.38 1844,1048.51 
	1843.87,1048.38 1814.88,1077.37 1819.13,1081.62 1844,1056.74 "/>
<polygon fill-rule="evenodd" clip-rule="evenodd" points="-1213.13,1081.62 -1208.88,1077.37 -1237.87,1048.38 -1238,1048.51 
	-1238.13,1048.38 -1267.12,1077.37 -1262.87,1081.62 -1238,1056.74 "/>
<g>
	<rect x="1547" y="1053" fill-rule="evenodd" clip-rule="evenodd" width="41" height="6"/>
	<rect x="1534.5" y="1050.5" fill-rule="evenodd" clip-rule="evenodd" width="6" height="41"/>
	<rect x="1547" y="1068" fill-rule="evenodd" clip-rule="evenodd" width="41" height="6"/>
	<rect x="1547" y="1083" fill-rule="evenodd" clip-rule="evenodd" width="41" height="6"/>
</g>
<path fill-rule="evenodd" clip-rule="evenodd" d="M1261.63,1065.63l15.9-22.72l15.91,22.72l-15.91,22.72L1261.63,1065.63z
	 M1277.29,1032.79l-22.84,32.63l-0.15,0.21l-0.05,0.07l0.2,0.14l22.84,32.63l0.01,0.67l0.23-0.33l0.24,0.33v-0.67l22.84-32.63
	l0.21-0.14l-0.06-0.07l-0.14-0.21l-22.85-32.63v-0.67l-0.24,0.33l-0.23-0.33L1277.29,1032.79z M1254.45,1065.42l-0.2,0.14l0.05,0.07
	L1254.45,1065.42z M1300.76,1065.63l0.06-0.07l-0.2-0.14L1300.76,1065.63z"/>
<path fill-rule="evenodd" clip-rule="evenodd" d="M-985.75,1065.7l0.2,0.14l-0.15-0.21L-985.75,1065.7z M-978.37,1065.63
	l15.91-22.72l15.9,22.72l-15.9,22.72L-978.37,1065.63z M-962.71,1032.79l-22.84,32.63l-0.15,0.21l0.15,0.21l22.84,32.63l0.01,0.67
	l0.24-0.33l0.23,0.33v-0.67l22.84-32.63l0.15-0.21l-0.14-0.21l-22.85-32.63v-0.67l-0.23,0.33l-0.24-0.33L-962.71,1032.79z
	 M-985.55,1065.42l-0.2,0.14l0.05,0.07L-985.55,1065.42z M-939.18,1065.7l-0.06-0.07l-0.15,0.21L-939.18,1065.7z M-939.18,1065.56
	l-0.2-0.14l0.14,0.21L-939.18,1065.56z"/>
</svg>
