<?xml version="1.0" encoding="utf-8"?>
<!-- Generator: Adobe Illustrator 16.0.0, SVG Export Plug-In . SVG Version: 6.00 Build 0)  -->
<!DOCTYPE svg PUBLIC "-//W3C//DTD SVG 1.1//EN" "http://www.w3.org/Graphics/SVG/1.1/DTD/svg11.dtd">
<svg version="1.1" id="Layer_1" xmlns="http://www.w3.org/2000/svg" xmlns:xlink="http://www.w3.org/1999/xlink" x="0px" y="0px"
	 width="612px" height="792px" viewBox="0 0 612 792" enable-background="new 0 0 612 792" xml:space="preserve">
<g>
	<polyline fill="none" stroke="#000000" stroke-miterlimit="10" points="-83,398.5 192,398.5 192,618.5 -83,618.5 -83,398.5 	"/>
	<line fill="none" stroke="#000000" stroke-miterlimit="10" x1="-83" y1="398.5" x2="192" y2="618.5"/>
	<line fill="none" stroke="#000000" stroke-miterlimit="10" x1="192" y1="398.5" x2="-83" y2="618.5"/>
</g>
<g>
	<polyline fill="none" stroke="#000000" stroke-miterlimit="10" points="145,173.5 469,173.5 469,618.5 145,618.5 145,173.5 	"/>
	<line fill="none" stroke="#000000" stroke-miterlimit="10" x1="145" y1="173.5" x2="469" y2="618.5"/>
	<line fill="none" stroke="#000000" stroke-miterlimit="10" x1="469" y1="173.5" x2="145" y2="618.5"/>
</g>
<g>
	<polyline fill="none" stroke="#000000" stroke-miterlimit="10" points="479,173.5 695,173.5 695,394.5 479,394.5 479,173.5 	"/>
	<line fill="none" stroke="#000000" stroke-miterlimit="10" x1="479" y1="173.5" x2="695" y2="394.5"/>
	<line fill="none" stroke="#000000" stroke-miterlimit="10" x1="695" y1="173.5" x2="479" y2="394.5"/>
</g>
<g>
	<polyline fill="none" stroke="#000000" stroke-miterlimit="10" points="479,397.5 695,397.5 695,618.5 479,618.5 479,397.5 	"/>
	<line fill="none" stroke="#000000" stroke-miterlimit="10" x1="479" y1="397.5" x2="695" y2="618.5"/>
	<line fill="none" stroke="#000000" stroke-miterlimit="10" x1="695" y1="397.5" x2="479" y2="618.5"/>
</g>
<g>
	<path fill-rule="evenodd" clip-rule="evenodd" d="M370.04,407.71h-66.37v17.12l-20.17-20.16l20.17-20.17v18.13h66.37v-33.55h5.08
		v33.55C375.12,405.43,372.85,407.71,370.04,407.71z"/>
</g>
<g>
	<polygon fill-rule="evenodd" clip-rule="evenodd" points="47.04,520 47.04,508 30.17,508 50.33,487.83 70.5,508 53.62,508 
		53.62,513.42 53.62,520 	"/>
</g>
<g>
	<path fill-rule="evenodd" clip-rule="evenodd" d="M620.73,252.36c-4.25-6.5-8.15-11.45-11.73-14.86l-4.45,4.16
		c9.04,10.14,15.36,20.42,18.95,30.84l6-3.56C627.89,264.39,624.97,258.86,620.73,252.36z M556.75,271.81
		c2.16-2.87,4.81-4.31,7.95-4.31c3.86,0,5.8,2.27,5.8,6.8c0,3.86-0.92,7.18-2.77,10c-1.84,2.81-4.29,4.2-7.34,4.2
		c-1.91,0-3.53-0.66-4.89-1.97c-1.37-1.31-2.03-2.98-2-5.01C553.5,277.92,554.58,274.69,556.75,271.81z M561.5,302.23
		c0,8.85,8.72,13.27,26.17,13.27c4.61,0,9.78-0.28,15.52-0.8c5.73-0.54,10.04-2.11,12.95-4.7c2.91-2.59,4.36-6.11,4.36-10.55
		c0-8.95-2.2-17.93-6.58-26.95l-5.65,2.27c3.48,8.25,5.23,15.96,5.23,23.17c0,2.9-1.08,5.2-3.22,6.92
		c-2.15,1.72-5.47,2.76-9.97,3.11c-4.5,0.36-8.58,0.53-12.23,0.53c-13.72,0-20.58-2.63-20.58-7.88c0-0.96,0.23-2.17,0.7-3.59
		c0.47-1.41,2.49-5.12,6.08-11.14c2.14-5.34,3.22-9.56,3.22-12.66V251.5h21v-6h-21v-13h-7v13h-21v6h21l-0.05,11.64
		c-1.62-1.09-3.47-1.64-5.54-1.64c-4.85,0-8.97,2.08-12.35,6.23c-3.37,4.16-5.06,9.04-5.06,14.63c0,4.09,1.16,7.31,3.48,9.64
		c2.32,2.34,5.43,3.5,9.33,3.5c0.86,0,1.72-0.11,2.6-0.34C561.97,297.75,561.5,300.11,561.5,302.23z"/>
</g>
<g>
	<path fill-rule="evenodd" clip-rule="evenodd" d="M620.73,476.36c-4.25-6.5-8.15-11.45-11.73-14.86l-4.45,4.16
		c9.04,10.14,15.36,20.42,18.95,30.84l6-3.56C627.89,488.39,624.97,482.86,620.73,476.36z M556.75,495.81
		c2.16-2.87,4.81-4.31,7.95-4.31c3.86,0,5.8,2.27,5.8,6.8c0,3.86-0.92,7.18-2.77,10c-1.84,2.81-4.29,4.2-7.34,4.2
		c-1.91,0-3.53-0.66-4.89-1.97c-1.37-1.31-2.03-2.98-2-5.01C553.5,501.92,554.58,498.69,556.75,495.81z M561.5,526.23
		c0,8.85,8.72,13.27,26.17,13.27c4.61,0,9.78-0.28,15.52-0.8c5.73-0.54,10.04-2.11,12.95-4.7c2.91-2.59,4.36-6.11,4.36-10.55
		c0-8.95-2.2-17.93-6.58-26.95l-5.65,2.27c3.48,8.25,5.23,15.96,5.23,23.17c0,2.9-1.08,5.2-3.22,6.92
		c-2.15,1.72-5.47,2.76-9.97,3.11c-4.5,0.36-8.58,0.53-12.23,0.53c-13.72,0-20.58-2.63-20.58-7.88c0-0.96,0.23-2.17,0.7-3.59
		c0.47-1.41,2.49-5.12,6.08-11.14c2.14-5.34,3.22-9.56,3.22-12.66V475.5h21v-6h-21v-13h-7v13h-21v6h21l-0.05,11.64
		c-1.62-1.09-3.47-1.64-5.54-1.64c-4.85,0-8.97,2.08-12.35,6.23c-3.37,4.16-5.06,9.04-5.06,14.63c0,4.09,1.16,7.31,3.48,9.64
		c2.32,2.34,5.43,3.5,9.33,3.5c0.86,0,1.72-0.11,2.6-0.34C561.97,521.75,561.5,524.11,561.5,526.23z"/>
</g>
</svg>
