<?xml version="1.0" encoding="utf-8"?>
<!-- Generator: Adobe Illustrator 16.0.0, SVG Export Plug-In . SVG Version: 6.00 Build 0)  -->
<!DOCTYPE svg PUBLIC "-//W3C//DTD SVG 1.1//EN" "http://www.w3.org/Graphics/SVG/1.1/DTD/svg11.dtd">
<svg version="1.1" id="Layer_1" xmlns="http://www.w3.org/2000/svg" xmlns:xlink="http://www.w3.org/1999/xlink" x="0px" y="0px"
	 width="612px" height="792px" viewBox="0 0 612 792" enable-background="new 0 0 612 792" xml:space="preserve">
<g>
	<polyline fill="none" stroke="#000000" stroke-miterlimit="10" points="-1146.5,-386 -822.5,-386 -822.5,-166 -1146.5,-166 
		-1146.5,-386 	"/>
	<line fill="none" stroke="#000000" stroke-miterlimit="10" x1="-1146.5" y1="-386" x2="-822.5" y2="-166"/>
	<line fill="none" stroke="#000000" stroke-miterlimit="10" x1="-822.5" y1="-386" x2="-1146.5" y2="-166"/>
</g>
<g>
	<polyline fill="none" stroke="#000000" stroke-miterlimit="10" points="-1373.5,-387 -1158.5,-387 -1158.5,-167 -1373.5,-167 
		-1373.5,-387 	"/>
	<line fill="none" stroke="#000000" stroke-miterlimit="10" x1="-1373.5" y1="-387" x2="-1158.5" y2="-167"/>
	<line fill="none" stroke="#000000" stroke-miterlimit="10" x1="-1158.5" y1="-387" x2="-1373.5" y2="-167"/>
</g>
<g>
	<polyline fill="none" stroke="#000000" stroke-miterlimit="10" points="-815.5,-389 -600.5,-389 -600.5,-168 -815.5,-168 
		-815.5,-389 	"/>
	<line fill="none" stroke="#000000" stroke-miterlimit="10" x1="-815.5" y1="-389" x2="-600.5" y2="-168"/>
	<line fill="none" stroke="#000000" stroke-miterlimit="10" x1="-600.5" y1="-389" x2="-815.5" y2="-168"/>
</g>
<g>
	<polyline fill="none" stroke="#000000" stroke-miterlimit="10" points="-590.5,-389 -375.5,-389 -375.5,-168 -590.5,-168 
		-590.5,-389 	"/>
	<line fill="none" stroke="#000000" stroke-miterlimit="10" x1="-590.5" y1="-389" x2="-375.5" y2="-168"/>
	<line fill="none" stroke="#000000" stroke-miterlimit="10" x1="-375.5" y1="-389" x2="-590.5" y2="-168"/>
</g>
<g>
	<polyline fill="none" stroke="#000000" stroke-miterlimit="10" points="1156.5,735 1371.5,735 1371.5,956 1156.5,956 1156.5,735 	
		"/>
	<line fill="none" stroke="#000000" stroke-miterlimit="10" x1="1156.5" y1="735" x2="1371.5" y2="956"/>
	<line fill="none" stroke="#000000" stroke-miterlimit="10" x1="1371.5" y1="735" x2="1156.5" y2="956"/>
</g>
<g>
	<polyline fill="none" stroke="#000000" stroke-miterlimit="10" points="931.5,735 1146.5,735 1146.5,956 931.5,956 931.5,735 	"/>
	<line fill="none" stroke="#000000" stroke-miterlimit="10" x1="931.5" y1="735" x2="1146.5" y2="956"/>
	<line fill="none" stroke="#000000" stroke-miterlimit="10" x1="1146.5" y1="735" x2="931.5" y2="956"/>
</g>
<g>
	<polyline fill="none" stroke="#000000" stroke-miterlimit="10" points="1269.5,510 1484.5,510 1484.5,731 1269.5,731 1269.5,510 	
		"/>
	<line fill="none" stroke="#000000" stroke-miterlimit="10" x1="1269.5" y1="510" x2="1484.5" y2="731"/>
	<line fill="none" stroke="#000000" stroke-miterlimit="10" x1="1484.5" y1="510" x2="1269.5" y2="731"/>
</g>
<g>
	<polyline fill="none" stroke="#000000" stroke-miterlimit="10" points="1044.5,510 1259.5,510 1259.5,731 1044.5,731 1044.5,510 	
		"/>
	<line fill="none" stroke="#000000" stroke-miterlimit="10" x1="1044.5" y1="510" x2="1259.5" y2="731"/>
	<line fill="none" stroke="#000000" stroke-miterlimit="10" x1="1259.5" y1="510" x2="1044.5" y2="731"/>
</g>
<g>
	<polyline fill="none" stroke="#000000" stroke-miterlimit="10" points="706.5,735 921.5,735 921.5,956 706.5,956 706.5,735 	"/>
	<line fill="none" stroke="#000000" stroke-miterlimit="10" x1="706.5" y1="735" x2="921.5" y2="956"/>
	<line fill="none" stroke="#000000" stroke-miterlimit="10" x1="921.5" y1="735" x2="706.5" y2="956"/>
</g>
<g>
	<polyline fill="none" stroke="#000000" stroke-miterlimit="10" points="481.5,735 696.5,735 696.5,956 481.5,956 481.5,735 	"/>
	<line fill="none" stroke="#000000" stroke-miterlimit="10" x1="481.5" y1="735" x2="696.5" y2="956"/>
	<line fill="none" stroke="#000000" stroke-miterlimit="10" x1="696.5" y1="735" x2="481.5" y2="956"/>
</g>
<g>
	<polyline fill="none" stroke="#000000" stroke-miterlimit="10" points="819.5,510 1034.5,510 1034.5,731 819.5,731 819.5,510 	"/>
	<line fill="none" stroke="#000000" stroke-miterlimit="10" x1="819.5" y1="510" x2="1034.5" y2="731"/>
	<line fill="none" stroke="#000000" stroke-miterlimit="10" x1="1034.5" y1="510" x2="819.5" y2="731"/>
</g>
<g>
	<polyline fill="none" stroke="#000000" stroke-miterlimit="10" points="594.5,510 809.5,510 809.5,731 594.5,731 594.5,510 	"/>
	<line fill="none" stroke="#000000" stroke-miterlimit="10" x1="594.5" y1="510" x2="809.5" y2="731"/>
	<line fill="none" stroke="#000000" stroke-miterlimit="10" x1="809.5" y1="510" x2="594.5" y2="731"/>
</g>
<g>
	<polyline fill="none" stroke="#000000" stroke-miterlimit="10" points="256.5,735 471.5,735 471.5,956 256.5,956 256.5,735 	"/>
	<line fill="none" stroke="#000000" stroke-miterlimit="10" x1="256.5" y1="735" x2="471.5" y2="956"/>
	<line fill="none" stroke="#000000" stroke-miterlimit="10" x1="471.5" y1="735" x2="256.5" y2="956"/>
</g>
<g>
	<polyline fill="none" stroke="#000000" stroke-miterlimit="10" points="31.5,735 246.5,735 246.5,956 31.5,956 31.5,735 	"/>
	<line fill="none" stroke="#000000" stroke-miterlimit="10" x1="31.5" y1="735" x2="246.5" y2="956"/>
	<line fill="none" stroke="#000000" stroke-miterlimit="10" x1="246.5" y1="735" x2="31.5" y2="956"/>
</g>
<g>
	<polyline fill="none" stroke="#000000" stroke-miterlimit="10" points="369.5,510 584.5,510 584.5,731 369.5,731 369.5,510 	"/>
	<line fill="none" stroke="#000000" stroke-miterlimit="10" x1="369.5" y1="510" x2="584.5" y2="731"/>
	<line fill="none" stroke="#000000" stroke-miterlimit="10" x1="584.5" y1="510" x2="369.5" y2="731"/>
</g>
<g>
	<polyline fill="none" stroke="#000000" stroke-miterlimit="10" points="144.5,510 359.5,510 359.5,731 144.5,731 144.5,510 	"/>
	<line fill="none" stroke="#000000" stroke-miterlimit="10" x1="144.5" y1="510" x2="359.5" y2="731"/>
	<line fill="none" stroke="#000000" stroke-miterlimit="10" x1="359.5" y1="510" x2="144.5" y2="731"/>
</g>
<g>
	<polyline fill="none" stroke="#000000" stroke-miterlimit="10" points="-193.5,735 21.5,735 21.5,956 -193.5,956 -193.5,735 	"/>
	<line fill="none" stroke="#000000" stroke-miterlimit="10" x1="-193.5" y1="735" x2="21.5" y2="956"/>
	<line fill="none" stroke="#000000" stroke-miterlimit="10" x1="21.5" y1="735" x2="-193.5" y2="956"/>
</g>
<g>
	<polyline fill="none" stroke="#000000" stroke-miterlimit="10" points="-80.5,510 134.5,510 134.5,731 -80.5,731 -80.5,510 	"/>
	<line fill="none" stroke="#000000" stroke-miterlimit="10" x1="-80.5" y1="510" x2="134.5" y2="731"/>
	<line fill="none" stroke="#000000" stroke-miterlimit="10" x1="134.5" y1="510" x2="-80.5" y2="731"/>
</g>
<g>
	<polyline fill="none" stroke="#000000" stroke-miterlimit="10" points="-418.5,735 -203.5,735 -203.5,956 -418.5,956 -418.5,735 	
		"/>
	<line fill="none" stroke="#000000" stroke-miterlimit="10" x1="-418.5" y1="735" x2="-203.5" y2="956"/>
	<line fill="none" stroke="#000000" stroke-miterlimit="10" x1="-203.5" y1="735" x2="-418.5" y2="956"/>
</g>
<g>
	<polyline fill="none" stroke="#000000" stroke-miterlimit="10" points="-305.5,510 -90.5,510 -90.5,731 -305.5,731 -305.5,510 	"/>
	<line fill="none" stroke="#000000" stroke-miterlimit="10" x1="-305.5" y1="510" x2="-90.5" y2="731"/>
	<line fill="none" stroke="#000000" stroke-miterlimit="10" x1="-90.5" y1="510" x2="-305.5" y2="731"/>
</g>
<g>
	<polyline fill="none" stroke="#000000" stroke-miterlimit="10" points="-643.5,735 -428.5,735 -428.5,956 -643.5,956 -643.5,735 	
		"/>
	<line fill="none" stroke="#000000" stroke-miterlimit="10" x1="-643.5" y1="735" x2="-428.5" y2="956"/>
	<line fill="none" stroke="#000000" stroke-miterlimit="10" x1="-428.5" y1="735" x2="-643.5" y2="956"/>
</g>
<g>
	<polyline fill="none" stroke="#000000" stroke-miterlimit="10" points="-521.5,960 856.5,960 856.5,1181 -521.5,1181 -521.5,960 	
		"/>
	<line fill="none" stroke="#000000" stroke-miterlimit="10" x1="-521.5" y1="960" x2="856.5" y2="1181"/>
	<line fill="none" stroke="#000000" stroke-miterlimit="10" x1="856.5" y1="960" x2="-521.5" y2="1181"/>
</g>
<g>
	<polyline fill="none" stroke="#000000" stroke-miterlimit="10" points="-868.5,735 -653.5,735 -653.5,956 -868.5,956 -868.5,735 	
		"/>
	<line fill="none" stroke="#000000" stroke-miterlimit="10" x1="-868.5" y1="735" x2="-653.5" y2="956"/>
	<line fill="none" stroke="#000000" stroke-miterlimit="10" x1="-653.5" y1="735" x2="-868.5" y2="956"/>
</g>
<g>
	<polyline fill="none" stroke="#000000" stroke-miterlimit="10" points="-530.5,510 -315.5,510 -315.5,731 -530.5,731 -530.5,510 	
		"/>
	<line fill="none" stroke="#000000" stroke-miterlimit="10" x1="-530.5" y1="510" x2="-315.5" y2="731"/>
	<line fill="none" stroke="#000000" stroke-miterlimit="10" x1="-315.5" y1="510" x2="-530.5" y2="731"/>
</g>
<g>
	<polyline fill="none" stroke="#000000" stroke-miterlimit="10" points="-755.5,510 -540.5,510 -540.5,731 -755.5,731 -755.5,510 	
		"/>
	<line fill="none" stroke="#000000" stroke-miterlimit="10" x1="-755.5" y1="510" x2="-540.5" y2="731"/>
	<line fill="none" stroke="#000000" stroke-miterlimit="10" x1="-540.5" y1="510" x2="-755.5" y2="731"/>
</g>
<g>
	<polyline fill="none" stroke="#000000" stroke-miterlimit="10" points="1437.5,285 1653.5,285 1653.5,506 1437.5,506 1437.5,285 	
		"/>
	<line fill="none" stroke="#000000" stroke-miterlimit="10" x1="1437.5" y1="285" x2="1653.5" y2="506"/>
	<line fill="none" stroke="#000000" stroke-miterlimit="10" x1="1653.5" y1="285" x2="1437.5" y2="506"/>
</g>
<g>
	<polyline fill="none" stroke="#000000" stroke-miterlimit="10" points="1212.5,285 1428.5,285 1428.5,506 1212.5,506 1212.5,285 	
		"/>
	<line fill="none" stroke="#000000" stroke-miterlimit="10" x1="1212.5" y1="285" x2="1428.5" y2="506"/>
	<line fill="none" stroke="#000000" stroke-miterlimit="10" x1="1428.5" y1="285" x2="1212.5" y2="506"/>
</g>
<g>
	<polyline fill="none" stroke="#000000" stroke-miterlimit="10" points="987.5,285 1203.5,285 1203.5,506 987.5,506 987.5,285 	"/>
	<line fill="none" stroke="#000000" stroke-miterlimit="10" x1="987.5" y1="285" x2="1203.5" y2="506"/>
	<line fill="none" stroke="#000000" stroke-miterlimit="10" x1="1203.5" y1="285" x2="987.5" y2="506"/>
</g>
<g>
	<polyline fill="none" stroke="#000000" stroke-miterlimit="10" points="762.5,285 978.5,285 978.5,506 762.5,506 762.5,285 	"/>
	<line fill="none" stroke="#000000" stroke-miterlimit="10" x1="762.5" y1="285" x2="978.5" y2="506"/>
	<line fill="none" stroke="#000000" stroke-miterlimit="10" x1="978.5" y1="285" x2="762.5" y2="506"/>
</g>
<g>
	<polyline fill="none" stroke="#000000" stroke-miterlimit="10" points="537.5,285 753.5,285 753.5,506 537.5,506 537.5,285 	"/>
	<line fill="none" stroke="#000000" stroke-miterlimit="10" x1="537.5" y1="285" x2="753.5" y2="506"/>
	<line fill="none" stroke="#000000" stroke-miterlimit="10" x1="753.5" y1="285" x2="537.5" y2="506"/>
</g>
<g>
	<polyline fill="none" stroke="#000000" stroke-miterlimit="10" points="312.5,285 528.5,285 528.5,506 312.5,506 312.5,285 	"/>
	<line fill="none" stroke="#000000" stroke-miterlimit="10" x1="312.5" y1="285" x2="528.5" y2="506"/>
	<line fill="none" stroke="#000000" stroke-miterlimit="10" x1="528.5" y1="285" x2="312.5" y2="506"/>
</g>
<g>
	<polyline fill="none" stroke="#000000" stroke-miterlimit="10" points="87.5,285 303.5,285 303.5,506 87.5,506 87.5,285 	"/>
	<line fill="none" stroke="#000000" stroke-miterlimit="10" x1="87.5" y1="285" x2="303.5" y2="506"/>
	<line fill="none" stroke="#000000" stroke-miterlimit="10" x1="303.5" y1="285" x2="87.5" y2="506"/>
</g>
<g>
	<polyline fill="none" stroke="#000000" stroke-miterlimit="10" points="-137.5,285 78.5,285 78.5,506 -137.5,506 -137.5,285 	"/>
	<line fill="none" stroke="#000000" stroke-miterlimit="10" x1="-137.5" y1="285" x2="78.5" y2="506"/>
	<line fill="none" stroke="#000000" stroke-miterlimit="10" x1="78.5" y1="285" x2="-137.5" y2="506"/>
</g>
<g>
	<polyline fill="none" stroke="#000000" stroke-miterlimit="10" points="-362.5,285 -146.5,285 -146.5,506 -362.5,506 -362.5,285 	
		"/>
	<line fill="none" stroke="#000000" stroke-miterlimit="10" x1="-362.5" y1="285" x2="-146.5" y2="506"/>
	<line fill="none" stroke="#000000" stroke-miterlimit="10" x1="-146.5" y1="285" x2="-362.5" y2="506"/>
</g>
<g>
	<polyline fill="none" stroke="#000000" stroke-miterlimit="10" points="-587.5,285 -371.5,285 -371.5,506 -587.5,506 -587.5,285 	
		"/>
	<line fill="none" stroke="#000000" stroke-miterlimit="10" x1="-587.5" y1="285" x2="-371.5" y2="506"/>
	<line fill="none" stroke="#000000" stroke-miterlimit="10" x1="-371.5" y1="285" x2="-587.5" y2="506"/>
</g>
<g>
	<polyline fill="none" stroke="#000000" stroke-miterlimit="10" points="1325.5,60 1540.5,60 1540.5,281 1325.5,281 1325.5,60 	"/>
	<line fill="none" stroke="#000000" stroke-miterlimit="10" x1="1325.5" y1="60" x2="1540.5" y2="281"/>
	<line fill="none" stroke="#000000" stroke-miterlimit="10" x1="1540.5" y1="60" x2="1325.5" y2="281"/>
</g>
<g>
	<polyline fill="none" stroke="#000000" stroke-miterlimit="10" points="1100.5,60 1315.5,60 1315.5,281 1100.5,281 1100.5,60 	"/>
	<line fill="none" stroke="#000000" stroke-miterlimit="10" x1="1100.5" y1="60" x2="1315.5" y2="281"/>
	<line fill="none" stroke="#000000" stroke-miterlimit="10" x1="1315.5" y1="60" x2="1100.5" y2="281"/>
</g>
<g>
	<polyline fill="none" stroke="#000000" stroke-miterlimit="10" points="875.5,60 1090.5,60 1090.5,281 875.5,281 875.5,60 	"/>
	<line fill="none" stroke="#000000" stroke-miterlimit="10" x1="875.5" y1="60" x2="1090.5" y2="281"/>
	<line fill="none" stroke="#000000" stroke-miterlimit="10" x1="1090.5" y1="60" x2="875.5" y2="281"/>
</g>
<g>
	<polyline fill="none" stroke="#000000" stroke-miterlimit="10" points="650.5,60 865.5,60 865.5,281 650.5,281 650.5,60 	"/>
	<line fill="none" stroke="#000000" stroke-miterlimit="10" x1="650.5" y1="60" x2="865.5" y2="281"/>
	<line fill="none" stroke="#000000" stroke-miterlimit="10" x1="865.5" y1="60" x2="650.5" y2="281"/>
</g>
<g>
	<polyline fill="none" stroke="#000000" stroke-miterlimit="10" points="425.5,60 640.5,60 640.5,281 425.5,281 425.5,60 	"/>
	<line fill="none" stroke="#000000" stroke-miterlimit="10" x1="425.5" y1="60" x2="640.5" y2="281"/>
	<line fill="none" stroke="#000000" stroke-miterlimit="10" x1="640.5" y1="60" x2="425.5" y2="281"/>
</g>
<g>
	<polyline fill="none" stroke="#000000" stroke-miterlimit="10" points="200.5,60 415.5,60 415.5,281 200.5,281 200.5,60 	"/>
	<line fill="none" stroke="#000000" stroke-miterlimit="10" x1="200.5" y1="60" x2="415.5" y2="281"/>
	<line fill="none" stroke="#000000" stroke-miterlimit="10" x1="415.5" y1="60" x2="200.5" y2="281"/>
</g>
<g>
	<polyline fill="none" stroke="#000000" stroke-miterlimit="10" points="-24.5,60 190.5,60 190.5,281 -24.5,281 -24.5,60 	"/>
	<line fill="none" stroke="#000000" stroke-miterlimit="10" x1="-24.5" y1="60" x2="190.5" y2="281"/>
	<line fill="none" stroke="#000000" stroke-miterlimit="10" x1="190.5" y1="60" x2="-24.5" y2="281"/>
</g>
<g>
	<polyline fill="none" stroke="#000000" stroke-miterlimit="10" points="-249.5,60 -34.5,60 -34.5,281 -249.5,281 -249.5,60 	"/>
	<line fill="none" stroke="#000000" stroke-miterlimit="10" x1="-249.5" y1="60" x2="-34.5" y2="281"/>
	<line fill="none" stroke="#000000" stroke-miterlimit="10" x1="-34.5" y1="60" x2="-249.5" y2="281"/>
</g>
<g>
	<polyline fill="none" stroke="#000000" stroke-miterlimit="10" points="-474.5,60 -259.5,60 -259.5,281 -474.5,281 -474.5,60 	"/>
	<line fill="none" stroke="#000000" stroke-miterlimit="10" x1="-474.5" y1="60" x2="-259.5" y2="281"/>
	<line fill="none" stroke="#000000" stroke-miterlimit="10" x1="-259.5" y1="60" x2="-474.5" y2="281"/>
</g>
<g>
	<polyline fill="none" stroke="#000000" stroke-miterlimit="10" points="-812.5,285 -596.5,285 -596.5,506 -812.5,506 -812.5,285 	
		"/>
	<line fill="none" stroke="#000000" stroke-miterlimit="10" x1="-812.5" y1="285" x2="-596.5" y2="506"/>
	<line fill="none" stroke="#000000" stroke-miterlimit="10" x1="-596.5" y1="285" x2="-812.5" y2="506"/>
</g>
<g>
	<polyline fill="none" stroke="#000000" stroke-miterlimit="10" points="-699.5,60 -484.5,60 -484.5,281 -699.5,281 -699.5,60 	"/>
	<line fill="none" stroke="#000000" stroke-miterlimit="10" x1="-699.5" y1="60" x2="-484.5" y2="281"/>
	<line fill="none" stroke="#000000" stroke-miterlimit="10" x1="-484.5" y1="60" x2="-699.5" y2="281"/>
</g>
<g>
	<polyline fill="none" stroke="#000000" stroke-miterlimit="10" points="-980.5,510 -765.5,510 -765.5,731 -980.5,731 -980.5,510 	
		"/>
	<line fill="none" stroke="#000000" stroke-miterlimit="10" x1="-980.5" y1="510" x2="-765.5" y2="731"/>
	<line fill="none" stroke="#000000" stroke-miterlimit="10" x1="-765.5" y1="510" x2="-980.5" y2="731"/>
</g>
<g>
	<polyline fill="none" stroke="#000000" stroke-miterlimit="10" points="-1037.5,285 -821.5,285 -821.5,506 -1037.5,506 
		-1037.5,285 	"/>
	<line fill="none" stroke="#000000" stroke-miterlimit="10" x1="-1037.5" y1="285" x2="-821.5" y2="506"/>
	<line fill="none" stroke="#000000" stroke-miterlimit="10" x1="-821.5" y1="285" x2="-1037.5" y2="506"/>
</g>
<g>
	<polyline fill="none" stroke="#000000" stroke-miterlimit="10" points="-924.5,60 -709.5,60 -709.5,281 -924.5,281 -924.5,60 	"/>
	<line fill="none" stroke="#000000" stroke-miterlimit="10" x1="-924.5" y1="60" x2="-709.5" y2="281"/>
	<line fill="none" stroke="#000000" stroke-miterlimit="10" x1="-709.5" y1="60" x2="-924.5" y2="281"/>
</g>
<g>
	<polyline fill="none" stroke="#000000" stroke-miterlimit="10" points="-1149.5,60 -934.5,60 -934.5,281 -1149.5,281 -1149.5,60 	
		"/>
	<line fill="none" stroke="#000000" stroke-miterlimit="10" x1="-1149.5" y1="60" x2="-934.5" y2="281"/>
	<line fill="none" stroke="#000000" stroke-miterlimit="10" x1="-934.5" y1="60" x2="-1149.5" y2="281"/>
</g>
<g>
	<polyline fill="none" stroke="#000000" stroke-miterlimit="10" points="1662.5,286 1986.5,286 1986.5,506 1662.5,506 1662.5,286 	
		"/>
	<line fill="none" stroke="#000000" stroke-miterlimit="10" x1="1662.5" y1="286" x2="1986.5" y2="506"/>
	<line fill="none" stroke="#000000" stroke-miterlimit="10" x1="1986.5" y1="286" x2="1662.5" y2="506"/>
</g>
<g>
	<polyline fill="none" stroke="#000000" stroke-miterlimit="10" points="-1374.5,61 -1159.5,61 -1159.5,282 -1374.5,282 -1374.5,61 
			"/>
	<line fill="none" stroke="#000000" stroke-miterlimit="10" x1="-1374.5" y1="61" x2="-1159.5" y2="282"/>
	<line fill="none" stroke="#000000" stroke-miterlimit="10" x1="-1159.5" y1="61" x2="-1374.5" y2="282"/>
</g>
<g>
	<path fill-rule="evenodd" clip-rule="evenodd" d="M-1026.12,198c-2.85,0-5.21-0.64-7.08-1.92c-1.88-1.28-2.8-3.13-2.8-5.5
		c0-2.56,1-4.63,3.02-6.21c2.01-1.57,4.39-2.37,7.11-2.37c4.46,0,8.62,1.58,12.48,4.73C-1016.23,194.25-1020.48,198-1026.12,198z
		 M-1068.73,196c-2.6,0-4.64-1.33-6.11-3.98c-1.47-2.66-2.19-5.96-2.16-9.88c0-8.7,3.75-16.61,11.27-23.72
		c2.43,9.6,5.98,18.36,10.61,26.28C-1060.06,192.23-1064.59,196-1068.73,196z M-1043.05,146.69c-1.34,12.4-4.17,22.97-8.48,31.7
		c-3.52-6.34-6.36-14.5-8.52-24.5C-1054.8,150.28-1049.14,147.87-1043.05,146.69z M-1078.78,166.2c-2.81,5.5-4.22,11.07-4.22,16.69
		c0,6.25,1.19,11.16,3.56,14.73c2.38,3.58,5.77,5.38,10.19,5.38c4.84,0,9.61-2.55,14.3-7.66c4.68-5.11,8.7-12.14,12.01-21.11
		c3.32-8.96,5.5-18.37,6.55-28.23h0.22c7.67,0,13.78,2.39,18.34,7.16c4.55,4.76,6.83,11.25,6.83,19.46c0,2.63-0.22,5.18-0.66,7.65
		c-4.56-2.85-9.43-4.27-14.61-4.27c-4.34,0-8.04,1.44-11.12,4.31c-3.08,2.88-4.61,6.5-4.61,10.89c0,3.96,1.44,7.08,4.34,9.36
		c2.89,2.28,6.47,3.44,10.75,3.44c8.35,0,14.63-4.05,18.82-12.14c2.68,2.97,4.81,5.67,6.37,8.14l4.72-5.33
		c-3.22-4.12-6.05-7.4-8.48-9.84c0.98-3.74,1.48-7.77,1.48-12.1c0-10.37-2.8-18.39-8.37-24.07c-5.58-5.68-13.4-8.57-23.46-8.66
		c0.47-6.42,0.74-12.09,0.83-17h-7c0,3.84-0.17,9.34-0.48,16.48l-0.05,1.02c-6.47,0.98-12.64,3.28-18.55,6.89
		c-0.9-5.64-1.54-11.44-1.92-17.39l-7,0.8c0.53,7.62,1.44,14.62,2.72,20.98C-1072.14,155.89-1075.97,160.7-1078.78,166.2z"/>
</g>
<g>
	<path fill-rule="evenodd" clip-rule="evenodd" d="M-1273.91,203c12.66,0,22.64-2.39,29.96-7.16c7.29-4.78,10.95-11.78,10.95-21
		c0-7.45-2.5-13.29-7.48-17.51c-4.99-4.22-11.38-6.33-19.18-6.33c-2.75,0-6.75,0.7-12.01,2.11l-0.25-0.49
		c3.2-2.68,8.36-6.62,15.48-11.84c6.88-5,12.02-8.97,15.44-11.92l-3.52-4.86H-1296v6h43.67l-22.06,17.42l-30.61,23.83l3.36,5.75
		c8.41-7.66,15.78-12.89,22.12-15.73c6.35-2.85,12.61-4.27,18.83-4.27c6.38,0,11.41,1.56,15.13,4.66c3.7,3.11,5.56,7.57,5.56,13.42
		c-0.03,6.79-3.31,11.98-9.84,15.58c-6.53,3.59-14.82,5.37-24.82,5.34c-4.5,0-9.43-0.66-14.79-2l-0.55,7
		C-1284.87,202.33-1279.5,203-1273.91,203z"/>
</g>
<g>
	<path fill-rule="evenodd" clip-rule="evenodd" d="M-873.06,654c11.37,0,20.22-2.13,26.56-6.36c6.33-4.25,9.5-10.52,9.5-18.81
		c0-6.53-2.3-11.63-6.87-15.31c-4.58-3.68-10.4-5.52-17.46-5.52c-4.47,0-9.26,0.73-14.42,2.19c-5.16,1.47-9.56,3.37-13.22,5.75
		c3.92-7.24,6.5-14.88,7.74-22.94H-833v-7h-47.28c0.48-4.39,0.81-9.03,0.98-13.91l-7-0.09c0,3.8-0.36,8.47-1.07,14H-910v7h21.69
		c-2.06,11.84-5.97,21.91-11.69,30.22l4.25,4.78c3.63-4.06,8.72-7.41,15.27-10.03c6.54-2.61,12.78-3.94,18.68-3.97
		c4.63,0,8.28,0.83,11,2.47c2.72,1.65,4.53,3.37,5.44,5.19c0.91,1.81,1.36,4.29,1.36,7.48c0,5.81-2.73,10.25-8.17,13.31
		c-5.45,3.07-12.41,4.58-20.85,4.55c-5.92,0-11.57-0.41-16.98-1.25l0.25,7C-884.97,653.58-879.41,654-873.06,654z"/>
</g>
<g>
	<path fill-rule="evenodd" clip-rule="evenodd" d="M-891.34,419.75c-6.35,0.84-13.02,1.25-19.99,1.25c-9.15,0-14.73-0.73-16.73-2.23
		c-2-1.49-2.97-3.25-2.94-5.32c0-3,1.03-6.12,3.13-9.37l-4.24-3.08c-3.26,4.23-4.89,8.7-4.89,13.42c0,3.27,1.06,6.03,3.22,8.3
		c2.16,2.26,5.09,3.7,8.84,4.34c3.74,0.61,8.89,0.94,15.46,0.94c7.76,0,13.92-0.42,18.48-1.25L-891.34,419.75z M-898.95,375
		c-10.89,0-21.91,0.75-33.05,2.25l0.44,6c12.22-1.5,23.44-2.25,33.64-2.25c1.15,0,2.44,0.03,3.84,0.09l0.08-5.95
		C-895.41,375.05-897.05,375-898.95,375z M-949.05,346c0,4.5-0.09,8.84-0.25,13H-965v7h15.31c-0.78,10.73-2.81,21.77-6.12,33.09
		c-3.31,11.33-7.03,20.36-11.19,27.1l5.06,3.81c3.96-5.48,7.85-14.38,11.69-26.67c3.84-12.3,6.28-24.74,7.31-37.33H-912v-7h-30.47
		c0.28-5.03,0.42-9.38,0.42-13H-949.05z"/>
</g>
<g>
	<path fill-rule="evenodd" clip-rule="evenodd" d="M-667,355h-75v7h43.16c-5.74,4.37-10.36,9.72-13.88,16.03
		c-3.53,6.31-5.28,12.69-5.28,19.11c0,4.59,0.72,8.72,2.16,12.36c1.43,3.66,3.62,6.86,6.59,9.64c2.97,2.78,6.39,4.84,10.3,6.2
		c3.89,1.35,7.58,2.13,11.08,2.35c3.5,0.2,7.9,0.31,13.21,0.31h0.22l0.44-7.16c-1.78,0.11-3.48,0.16-5.12,0.16
		c-7.27,0-13.08-0.84-17.46-2.56c-4.37-1.72-7.87-4.42-10.5-8.13c-2.62-3.69-3.92-8.31-3.92-13.86c0-7.17,2.47-14.08,7.44-20.73
		c4.95-6.64,10.04-11.22,15.29-13.72H-667V355z"/>
</g>
<g>
	<path fill-rule="evenodd" clip-rule="evenodd" d="M-732.95,863.67c8.62-6.23,12.95-15.15,12.95-26.76c0-9.54-2.62-16.89-7.86-22.08
		c-5.23-5.19-12.47-7.8-21.69-7.83c-7.4,0-23.89,2.34-49.45,7l0.94,7c8.72-1.81,18.03-3.44,27.94-4.86c9.89-1.42,17-2.14,21.31-2.14
		c6.72,0.03,12.04,2.09,15.95,6.19c3.91,4.09,5.86,9.78,5.86,17.03c-0.03,9.28-4.09,16.42-12.17,21.42c-8.1,5-21.7,7.78-40.83,8.36
		l1.08,7C-756.92,873.36-741.59,869.92-732.95,863.67z"/>
</g>
<g>
	<path fill-rule="evenodd" clip-rule="evenodd" d="M-390,613c-3.2,12.58-7.37,21.39-12.52,26.44c-5.14,5.04-11.57,7.56-19.31,7.56
		c-4.31,0-7.94-0.67-10.84-2.05c-2.91-1.37-5.1-3.37-6.56-6.03c-1.47-2.64-2.3-5.51-2.49-8.64c-0.19-3.12-0.28-6.95-0.28-11.5
		c0-13.03,0.75-27.95,2.28-44.78h-7.39c-1.26,17.55-1.89,32.34-1.89,44.39c0,7.09,0.17,12.17,0.53,15.23
		c0.36,3.07,1.19,5.93,2.5,8.55c1.31,2.63,3.05,4.81,5.22,6.56c2.16,1.75,4.77,3.07,7.81,3.96c3.03,0.86,6.52,1.31,10.42,1.31
		c9.88,0,17.97-3.11,24.25-9.31c6.29-6.21,11.04-15.91,14.27-29.11L-390,613z"/>
</g>
<g>
	<path fill-rule="evenodd" clip-rule="evenodd" d="M-611,643.75c-8.62,1.47-18.25,2.19-28.86,2.19c-4.58,0.04-8.81-0.03-12.69-0.22
		c-3.87-0.19-6.97-0.74-9.25-1.61c-2.28-0.88-4.09-1.92-5.4-3.11c-1.33-1.19-2.3-2.48-2.89-3.91c-0.61-1.4-0.91-2.98-0.91-4.72
		c0-3.46,1.14-6.76,3.42-9.89c2.28-3.12,5.74-6.09,10.39-8.9c4.64-2.81,11.85-5.77,21.61-8.89c9.77-3.11,16.96-5.35,21.58-6.69
		l-1.77-7c-15.93,5.02-26.71,8.67-32.37,10.95c-0.58-9.37-0.86-17.87-0.86-25.5c0-1.56,0.02-3.04,0.05-4.45H-656
		c0.14,11.62,0.59,22.58,1.38,32.86c-15.6,7.5-23.38,16.78-23.38,27.83c0,3.2,0.56,6.03,1.69,8.48c1.12,2.47,2.89,4.61,5.31,6.45
		c2.42,1.85,5.19,3.1,8.3,3.83c3.09,0.71,7.04,1.14,11.86,1.32c4.79,0.14,9.25,0.23,13.36,0.23c9.43,0,18.26-0.52,26.48-1.52V643.75
		z"/>
</g>
<g>
	<path fill-rule="evenodd" clip-rule="evenodd" d="M-602.8,187.98c-5.31,4.02-10.23,6.02-14.73,6.02c-4.31,0-6.47-3.03-6.47-9.13
		c0-4.14,1.75-8.43,5.28-12.87c3.52-4.44,7.58-7.97,12.19-10.58C-605.87,171.86-604.64,180.7-602.8,187.98z M-597.98,183.37
		c-1.5-7.51-2.43-15.76-2.8-24.76c4.7-1.74,9.45-2.61,14.26-2.61c1.5,0,3.02,0.09,4.52,0.25C-586,167.45-591.33,176.5-597.98,183.37
		z M-591.66,204c11.47,0,20.94-2.41,28.43-7.17c7.48-4.78,11.23-11.66,11.23-20.63c0-8.31-3.33-14.75-9.95-19.31
		c-6.64-4.56-14.96-6.86-24.96-6.89c-4.78,0-9.46,0.69-14.04,2.06l-0.05-2.75c0-3.11,0.09-6.54,0.3-10.31h40.7v-6h-40.31
		c0.34-5.56,0.7-10.19,1.08-13.89l-6.44-0.11c-0.35,4.27-0.64,8.94-0.91,14H-628v6h21.13c-0.1,2.48-0.13,5.03-0.13,7.64
		c0,2.59,0.03,5.19,0.13,7.8c-6.82,3.18-12.36,7.65-16.68,13.37c-4.31,5.74-6.45,11.89-6.45,18.47c0,4.69,1.03,8.31,3.11,10.88
		c2.08,2.56,5.03,3.84,8.86,3.84c8.2,0,16.33-4.38,24.36-13.16c8.03-8.78,13.92-18.87,17.67-30.29c5.25,1.5,9.41,3.82,12.44,7
		s4.56,6.98,4.56,11.42c-0.03,7.12-3.08,12.53-9.14,16.25c-6.06,3.72-14.67,5.65-25.86,5.78l1.19,6H-591.66z"/>
</g>
<g>
	<path fill-rule="evenodd" clip-rule="evenodd" d="M-286.8,872c-18.81,0-28.2-5.55-28.2-16.67c0-7.72,3.44-13.71,10.31-17.99
		c5.02-0.22,10.3-0.34,15.85-0.34c5.62,0,11.22,0.14,16.76,0.39l0.08-7.34c-3.06-0.03-6.23-0.05-9.5-0.05
		c-15.02,0-27.25,0.55-36.69,1.61l-0.17-0.67c6.63-3.63,13.24-7.83,19.84-12.61c6.6-4.78,11.77-9.22,15.52-13.33l-3.78-5H-338v7
		h10.38c16.68,0,27.82-0.16,33.45-0.48c-7.61,6.65-14.63,12.15-21.05,16.46c-6.44,4.32-10.67,6.93-12.73,7.82
		c-2.07,0.89-4.77,1.73-8.11,2.54c-3.36,0.82-7,1.38-10.94,1.66l0.52,7c9.89-1.72,20.61-3.06,32.14-4
		c-5.11,4.66-7.66,10.52-7.66,17.59c0,7.75,3.09,13.58,9.28,17.52c6.19,3.92,14.85,5.89,25.99,5.89c2.15,0,4.34-0.08,6.56-0.2
		l0.17-7.1C-282.33,871.91-284.59,872-286.8,872z"/>
</g>
<g>
	<path fill-rule="evenodd" clip-rule="evenodd" d="M-842.31,157c-1.03,6.03-2.99,12.39-5.85,19.09c-2.87,6.72-6.15,12.64-9.84,17.77
		l4.81,4.14c8.33-11.33,13.96-24.42,16.88-39.28L-842.31,157z M-783.41,168.78c-4.04-8.22-7.59-14.16-10.65-17.78l-5.42,3.56
		c3.62,4.92,7.25,11.42,10.84,19.49c3.59,8.06,6.14,15.39,7.64,21.95l7-2.28C-776.23,185.31-779.37,177-783.41,168.78z M-817.61,203
		c3.81,0,6.88-1.66,9.17-4.94c2.28-3.29,3.44-7.45,3.44-12.48c0-4.49-0.7-8.81-2.11-13c-1.41-4.17-3.75-8.46-7-12.86
		c-3.26-4.39-4.89-7.81-4.89-10.28c0-3.13,1.41-6.74,4.25-10.8l-5.05-2.64c-3.47,4.87-5.2,9.69-5.2,14.45
		c0,2.32,1.13,5.32,3.38,8.99c2.78,4.64,4.68,7.84,5.71,9.59c1.04,1.75,1.93,3.97,2.71,6.66c0.76,2.68,1.17,5.37,1.2,8.09
		c-0.03,3.34-0.62,6.06-1.75,8.16c-1.12,2.09-2.73,3.11-4.83,3.06c-4,0-9.72-2-17.14-6l-2.28,6.03
		C-829.94,200.34-823.14,203-817.61,203z M-811.37,125.69c-4.75-0.69-13.94-1.6-27.55-2.69l-1.08,6
		c10.61,0.78,19.77,1.92,27.48,3.39c7.71,1.47,12.82,2.67,15.33,3.61l2.19-7C-801.17,127.48-806.62,126.37-811.37,125.69z"/>
</g>
<g>
	<path fill-rule="evenodd" clip-rule="evenodd" d="M-457.83,358l-5.06,3.81c5.09,7.14,9.02,15.25,11.77,24.31
		c2.75,9.08,4.12,18.41,4.12,28V415l7-0.25C-440.2,392.06-446.14,373.16-457.83,358z M-484,397c-1.98,5.37-4.22,10.39-6.7,15.03
		c-2.5,4.66-4.47,6.97-5.94,6.97c-0.91,0-2.34-1.61-4.31-4.84c-1.97-3.22-3.47-7.08-4.5-11.55c-1.03-4.47-1.55-9.5-1.55-15.13
		c0-3.73,0.36-8.82,1.08-15.28c0.8-7.22,1.25-12.29,1.37-15.2h-7.34c-0.06,3.2-0.44,8.27-1.13,15.19
		c-0.65,6.62-0.98,11.73-0.98,15.34c0,4.03,0.34,8.19,1.06,12.44c0.72,4.25,1.82,8.33,3.32,12.2c1.5,3.89,3.14,6.95,4.93,9.17
		c1.8,2.22,3.25,3.72,4.38,4.5c1.11,0.77,2.37,1.16,3.79,1.16c2.35,0,4.6-1.48,6.79-4.45c2.18-2.97,4.32-6.68,6.42-11.13
		c2.09-4.44,3.62-8.2,4.59-11.3L-484,397z"/>
</g>
<g>
	<path fill-rule="evenodd" clip-rule="evenodd" d="M-504.28,869c-7.45,2-15.17,3-23.17,3c-21.03,0-31.55-4.53-31.55-13.63
		c0-4.85,2.02-8.64,6.05-11.32c4.03-2.69,9.04-4.05,15.04-4.05c12.79,0,22.61,2.34,29.47,7l3.44-5.75
		c-5.09-4.17-10.31-12.25-15.64-24.25H-495v-6h-28.31c-1.78-4.91-3.3-10.56-4.55-17l-7,1.14c1.14,5.64,2.58,10.92,4.33,15.86H-570v6
		h42.14c3.83,8.72,7.06,15.25,9.7,19.61c-6.81-1.74-13.51-2.61-20.11-2.61c-8,0-14.6,1.94-19.85,5.8
		c-5.25,3.87-7.88,9.26-7.88,16.18c0,13.35,12.77,20.02,38.3,20.02c9.67,0,17.9-1,24.7-3L-504.28,869z"/>
</g>
<g>
	<path fill-rule="evenodd" clip-rule="evenodd" d="M693.38,621.12c-4.07,11.25-8.82,16.88-14.27,16.88c-3.19,0-5.66-1.63-7.44-4.89
		c-1.78-3.27-2.67-7.25-2.67-11.97c0-8.84,3.05-16.78,9.14-23.81c6.09-7.03,13.391-11.27,21.86-12.69
		C699.64,597.72,697.44,609.87,693.38,621.12z M733.11,640.69c7.25-6.47,10.89-15.82,10.89-28.03c0-10.72-3.56-19.18-10.67-25.36
		c-7.11-6.19-16.14-9.3-27.1-9.3c-11.71,0-21.84,4.41-30.4,13.22c-8.56,8.81-12.83,18.73-12.83,29.76c0,6.72,1.38,12.39,4.13,17.05
		c2.75,4.66,6.53,6.97,11.34,6.97c8.03,0,14.7-5.81,20.05-17.45c5.32-11.63,8.15-26.14,8.48-43.55c9.44,0.3,16.8,2.92,22.08,7.89
		c5.28,4.97,7.92,11.98,7.92,21.05c0,10.18-3.33,17.84-9.98,22.97c-6.66,5.12-14.66,8.15-24.02,9.09l1.67,7
		C716.36,650.92,725.84,647.16,733.11,640.69z"/>
</g>
<g>
	<path fill-rule="evenodd" clip-rule="evenodd" d="M946.98,644.14c7.35-6.34,11.02-17.03,11.02-32.03c0-11.63-1.92-20.56-5.73-26.78
		c-3.83-6.22-9.04-9.33-15.63-9.33c-6.16,0.03-12.01,2.58-17.55,7.61c-5.54,5.05-9.36,11.97-11.42,20.78h-0.61
		c0.38-9.94,1.52-20.84,3.44-32.7l-7-0.69c-1.67,9.84-2.5,20.75-2.5,32.72c0,9.36,0.53,17.78,1.59,25.28l6.33-0.44
		c-0.03-10.33,1.46-19.01,4.46-26.04c3-7.04,6.65-12.05,10.95-15.02c4.28-2.97,8.45-4.47,12.51-4.5c4.29,0,7.71,2.5,10.27,7.5
		s3.86,12.22,3.89,21.64c0,13.45-3.27,22.69-9.78,27.7c-6.53,5.03-15.939,8.08-28.22,9.16l1.58,6
		C928.84,654.09,939.64,650.47,946.98,644.14z"/>
</g>
<g>
	<path fill-rule="evenodd" clip-rule="evenodd" d="M1360.31,621c-2.62,4.52-5.7,10.19-9.25,17c-1.37-7.42-2.06-15.31-2.06-23.66
		c0-10.31,1.73-23.29,5.23-38.98l-6.28-1.36c-3.311,15.53-4.95,29.11-4.95,40.73c0,12.35,1.73,23.97,5.2,34.88l4.78,0.39
		c0.97-5,4.99-13.66,12.02-25.97L1360.31,621z M1402,617.44V599h18v-7h-18v-20h-7v20h-29v7h29v17.62c0,8.38-1.45,15.07-4.34,20.1
		c-2.91,5.03-7.46,8.87-13.66,11.53l2.7,5.75C1394.56,648.5,1402,636.31,1402,617.44z"/>
</g>
<g>
	<path fill-rule="evenodd" clip-rule="evenodd" d="M1859.23,364.86c-4.25-6.5-8.15-11.45-11.73-14.86l-4.45,4.16
		c9.04,10.14,15.36,20.42,18.95,30.84l6-3.56C1866.39,376.89,1863.47,371.36,1859.23,364.86z M1795.25,384.31
		c2.16-2.87,4.81-4.31,7.95-4.31c3.859,0,5.8,2.27,5.8,6.8c0,3.86-0.92,7.18-2.77,10c-1.84,2.81-4.29,4.2-7.34,4.2
		c-1.91,0-3.53-0.66-4.89-1.97c-1.37-1.31-2.03-2.98-2-5.01C1792,390.42,1793.08,387.19,1795.25,384.31z M1800,414.73
		c0,8.85,8.72,13.27,26.17,13.27c4.61,0,9.78-0.28,15.52-0.8c5.73-0.54,10.04-2.11,12.95-4.7c2.91-2.59,4.36-6.11,4.36-10.55
		c0-8.95-2.2-17.93-6.58-26.95l-5.65,2.27c3.48,8.25,5.23,15.96,5.23,23.17c0,2.9-1.08,5.2-3.22,6.92
		c-2.15,1.72-5.471,2.76-9.971,3.11c-4.5,0.36-8.58,0.53-12.229,0.53c-13.72,0-20.58-2.63-20.58-7.88c0-0.96,0.23-2.17,0.7-3.59
		c0.47-1.41,2.49-5.12,6.08-11.14c2.14-5.34,3.22-9.56,3.22-12.66V364h21v-6h-21v-13h-7v13h-21v6h21l-0.05,11.64
		c-1.62-1.09-3.47-1.64-5.54-1.64c-4.851,0-8.97,2.08-12.351,6.23c-3.37,4.16-5.06,9.04-5.06,14.63c0,4.09,1.16,7.31,3.48,9.64
		c2.32,2.34,5.43,3.5,9.33,3.5c0.86,0,1.721-0.11,2.601-0.34C1800.47,410.25,1800,412.61,1800,414.73z"/>
</g>
<g>
	<path fill-rule="evenodd" clip-rule="evenodd" d="M1127,420c-4.97,0.67-11.09,1-18.41,1c-9.95,0-16.73-0.25-20.34-0.75
		c-3.62-0.5-6.23-1.69-7.84-3.53c-1.61-1.85-2.41-4.78-2.41-8.83V376h38c-0.17,9.05-0.52,14.97-1.03,17.78
		c-0.53,2.81-1.75,4.22-3.67,4.22c-2.99,0-7.24-2.33-12.77-7l-2.53,5.66c6.67,5.56,12.13,8.34,16.34,8.34c2.79,0,5-0.88,6.66-2.66
		c1.64-1.78,2.67-5.32,3.08-10.67c0.4-5.33,0.67-10.55,0.83-15.67H1137v-6h-14v-1.73c0-7.71-0.28-14.66-0.81-20.85l-6.92,0.58
		c0.51,6.08,0.78,13.41,0.78,22H1078v-21h-7v21h-14v6h14v32.05c0,5.98,1.16,10.42,3.5,13.31c2.33,2.91,5.59,4.72,9.78,5.5
		c4.189,0.75,11.41,1.14,21.689,1.14c6.97,0,13.98-0.17,21.03-0.52V420z"/>
</g>
<g>
	<path fill-rule="evenodd" clip-rule="evenodd" d="M1212.22,197c-2.83,0.03-5.41-0.73-7.74-2.33c-2.32-1.58-3.48-3.65-3.48-6.22
		c0-2.62,1.03-4.68,3.13-6.17c2.09-1.48,4.62-2.25,7.59-2.28c4.94,0,9.03,0.8,12.28,2.37v5.79C1224,194.06,1220.06,197,1212.22,197z
		 M1231,178.47V159h16v-6h-16v-19h14v-6h-49v6h28v19h-30v6h30v16.72c-3.97-1.14-8.05-1.72-12.22-1.72c-4.51,0-8.44,1.36-11.78,4.08
		c-3.34,2.72-5,6.26-5,10.62c0,4.36,1.75,7.83,5.28,10.42c3.52,2.58,7.64,3.88,12.38,3.88c6.89,0,11.67-1.23,14.34-3.69
		c2.66-2.45,4-6.22,4-11.31v-2.81c7.61,5.47,12.59,9.4,14.97,11.81l4.03-5.75C1245.23,186.91,1238.91,182.64,1231,178.47z
		 M1180,167.69c0-13.52,1.95-27.64,5.89-42.38l-7-1.31c-3.939,15.81-5.89,30.53-5.89,44.19c0,12.51,1.45,24.12,4.38,34.81l6.75-1.8
		C1181.38,190.48,1180,179.31,1180,167.69z"/>
</g>
<g>
	<path fill-rule="evenodd" clip-rule="evenodd" d="M1131,654h6v-44.45c13.47-15.69,24.14-23.55,32.03-23.55
		c2.13,0,3.83,0.77,5.08,2.27c1.25,1.51,1.89,3.43,1.89,5.76c-0.12,6.25-0.53,13.64-1.22,22.2c-1.19,14.54-1.78,22.35-1.78,23.46
		c0,3.84,0.81,6.86,2.47,9.04c1.66,2.18,4,3.27,7.05,3.27c4.64,0,9.46-1.94,14.48-5.8l-1.77-6.2c-4.89,3.34-8.51,5-10.85,5
		c-2.93,0-4.38-2.05-4.38-6.16c0-0.42,0.25-4.29,0.75-11.62l2.22-32.22c0.01-0.42,0.03-0.83,0.03-1.22c-0.03-4.44-1.36-8-3.98-10.72
		c-2.63-2.7-6.02-4.06-10.18-4.06c-4.31,0.03-9.39,2.06-15.2,6.06c-5.81,4.02-11.359,9.03-16.64,15.06V570h-6v16h-15v6h15v11.02
		c-1.58,4.34-4.36,10.17-8.36,17.45c-4,7.3-7.55,13.14-10.64,17.55l4.52,4.98c6.5-10.88,11.32-19.13,14.48-24.73V654z"/>
</g>
<g>
	<path fill-rule="evenodd" clip-rule="evenodd" d="M1457.22,165.27c-8.22-9.83-15.08-18.5-20.55-26.02
		c-2.22-2.83-4.73-4.25-7.56-4.25c-1.58,0-2.98,0.36-4.22,1.08c-1.229,0.72-2.25,1.65-3.05,2.81c-0.81,1.16-2.11,3.41-3.9,6.72
		c-7.53,12.86-15,23.73-22.44,32.64l4.3,4.75c4.9-6,9.78-12.61,14.61-19.84c4.81-7.24,8.92-13.83,12.32-19.77
		c0.65-0.92,1.47-1.39,2.5-1.39c0.79,0,1.44,0.33,1.96,0.97l6.45,8.8c11.99,15.28,20.16,25.4,24.521,30.37
		c4.34,4.97,8.87,9.59,13.57,13.86l4.77-6.75C1473.2,183.09,1465.44,175.11,1457.22,165.27z"/>
</g>
<g>
	<path fill-rule="evenodd" clip-rule="evenodd" d="M962,147.14c0-2.97-0.14-5.42-0.41-7.39c9.47-4.03,16.6-6.95,21.41-8.75l-2.25-5
		l-20.42,8.84c-1.63-3.89-4.64-5.84-9.05-5.84c-1.4,0-3.42,0.31-6.05,0.92c-2.62,0.61-4.37,1.24-5.25,1.89l-0.51-0.29
		c3.09-4.77,5.25-8.61,6.5-11.52H974v-5h-26.27c0.96-2.77,1.71-5.59,2.27-8.47l-5-0.53c-0.58,3.03-1.39,6.03-2.44,9H925v5h15.69
		c-4.11,9.55-10.35,17.97-18.69,25.25l2.94,3.75l5.53-5.22c4.62-4.34,8.51-7.06,11.64-8.16c3.12-1.07,6.06-1.62,8.78-1.62
		c2.391,0,4.05,1.08,4.99,3.22c-7.35,4.11-12.5,7.92-15.47,11.45c-2.97,3.53-4.44,7.11-4.41,10.7c0,4.07,1.69,7.18,5.08,9.36
		c3.37,2.18,10.64,3.27,21.8,3.27c7.21,0,13.59-0.34,19.12-1.02l-0.34-5.23c-5.46,0.84-12.75,1.25-21.91,1.25
		c-7.72,0-12.77-0.72-15.16-2.19c-2.4-1.47-3.59-3.44-3.59-5.92c0-4.95,5.3-10.48,15.89-16.58c0.061,1.08,0.11,2.38,0.11,3.88V159h5
		V147.14z"/>
</g>
<g>
	<path fill-rule="evenodd" clip-rule="evenodd" d="M854.83,429c19.03,0,32.31-2.34,39.86-7.02c7.53-4.67,11.31-11.2,11.31-19.61
		c0-7.56-2.3-13.35-6.87-17.35c-4.58-4-10.99-6.02-19.24-6.02c-5.58,0-11.59,1.19-18.03,3.53c-6.44,2.36-11.61,5.34-15.5,8.97
		c2.89-12.16,4.44-22.59,4.64-31.31l-7-0.19c-0.44,15.44-2.5,28.53-6.22,39.28l5.66,3.72c3.75-5.22,9.22-9.53,16.37-12.92
		c7.16-3.38,14.11-5.08,20.83-5.08c5.59,0,10.061,1.48,13.38,4.44c3.31,2.95,4.98,7.14,4.98,12.58c0,6.17-3.22,10.98-9.64,14.42
		c-6.42,3.45-18.88,5.31-37.36,5.56l0.89,7H854.83z M880.92,353.08c-8.28-2.67-17.61-5.03-27.98-7.08l-1.94,6
		c9.5,1.87,16.53,3.5,21.11,4.87c4.58,1.38,8.95,2.8,13.14,4.27c4.17,1.47,7.3,2.77,9.39,3.86l3.36-5.75
		C894.88,357.81,889.19,355.77,880.92,353.08z"/>
</g>
<g>
	<path fill-rule="evenodd" clip-rule="evenodd" d="M995,226h5l-0.05-37.13c3.43-4.46,7.33-8.07,11.71-10.79
		c4.37-2.72,8.65-4.08,12.81-4.08c4.14,0.03,7.59,2.05,10.37,6.02c2.77,3.96,4.16,8.54,4.16,13.73c0,16.17-8.67,24.92-26,26.25
		l1.14,5c10.83-1.13,18.5-4.44,23.03-9.97c4.53-5.53,6.8-12.69,6.83-21.45c0-6.94-1.92-12.77-5.73-17.49
		c-3.83-4.7-8.66-7.06-14.49-7.09c-3.9,0-7.95,1.17-12.141,3.52c-4.189,2.34-8.08,5.51-11.64,9.48v-23h-5v13h-12v5h12v9.11
		c-1.48,3.75-3.7,8.26-6.66,13.51c-2.95,5.27-5.73,9.74-8.34,13.4l3.58,3.98c5.14-8.5,8.95-14.92,11.42-19.27V226z"/>
</g>
<g>
	
		<polygon fill-rule="evenodd" clip-rule="evenodd" stroke="#000000" stroke-linecap="round" stroke-linejoin="round" stroke-miterlimit="10" points="
		1320.88,327 1300.03,327 1300.03,393.91 1305.02,393.91 1305.02,332 1320.88,332 	"/>
</g>
<g>
	
		<path fill-rule="evenodd" clip-rule="evenodd" stroke="#000000" stroke-linecap="round" stroke-linejoin="round" stroke-miterlimit="10" d="
		M1335.31,384l-3.76,2.75c3.92,5.72,6.79,10.47,8.62,14.25l4.1-2.94C1341.42,392.81,1338.44,388.12,1335.31,384z M1324.61,390
		l-3.72,2.78c4.05,6.09,6.891,10.83,8.55,14.22l4.12-2.89C1330.67,398.75,1327.69,394.05,1324.61,390z"/>
</g>
<g>
	<path fill-rule="evenodd" clip-rule="evenodd" d="M758.61,828l-4,3.23c4.12,5.57,7.66,11.16,10.62,16.77l4.69-3.47
		C767.36,840.31,763.59,834.81,758.61,828z"/>
</g>
<g>
	<path fill-rule="evenodd" clip-rule="evenodd" d="M853.48,896c-2.1,0-3.89-0.58-5.34-1.73c-1.45-1.16-2.17-2.75-2.14-4.75
		c0-2.07,0.77-3.68,2.33-4.82c1.55-1.12,3.5-1.7,5.87-1.7c3.14,0,6.39,1.3,9.77,3.87C861.95,892.97,858.45,896,853.48,896z M825,901
		h5v-36.42c3.84-5,8.2-9.17,13.05-12.53c4.84-3.36,9.28-5.05,13.33-5.05c6.4,0,9.62,7.91,9.62,23.69c0,3.87-0.23,7.4-0.69,10.59
		c-3.92-2.19-7.75-3.28-11.48-3.28c-3.69,0-6.75,1.06-9.19,3.17c-2.439,2.11-3.64,4.95-3.64,8.55c0,3.2,1.2,5.89,3.61,8.05
		c2.41,2.14,5.14,3.23,8.2,3.23c7.22,0,12.27-3.53,15.11-10.63c2.6,2.36,4.89,4.57,6.86,6.63l3.22-4.75
		c-2.97-3.08-5.77-5.63-8.36-7.64c0.91-4.25,1.36-9.38,1.36-15.34c0-8.55-1.25-15.22-3.72-20.02c-2.47-4.8-6.11-7.22-10.9-7.25
		c-4.44,0-8.97,1.39-13.63,4.14s-8.91,6.48-12.75,11.2V834h-5v13h-12v5h12c0.06,2.23,0.09,4.02,0.09,5.36c0,1.56-0.09,2.8-0.25,3.67
		c-0.17,0.88-0.54,2.02-1.11,3.39c-0.56,1.39-1.62,3.56-3.17,6.52c-1.56,2.95-3.26,5.95-5.12,8.98c-1.88,3.03-3.69,5.74-5.44,8.1
		l3.55,3.98c5.15-8.61,8.98-15.11,11.45-19.52V901z"/>
</g>
<g>
	
		<path fill-rule="evenodd" clip-rule="evenodd" stroke="#000000" stroke-linecap="round" stroke-linejoin="round" stroke-miterlimit="10" d="
		M985.41,832.77c1.03-1.18,2.26-1.77,3.7-1.77s2.66,0.59,3.69,1.77c1.03,1.18,1.54,2.59,1.54,4.23c0,1.66-0.51,3.06-1.54,4.23
		c-1.03,1.19-2.25,1.77-3.69,1.77s-2.67-0.58-3.7-1.77c-1.03-1.17-1.53-2.57-1.53-4.23C983.88,835.36,984.38,833.95,985.41,832.77z
		 M982.58,844.08c1.8,1.94,3.97,2.92,6.53,2.92c2.55,0,4.72-0.98,6.53-2.92c1.8-1.96,2.7-4.31,2.7-7.08c0-2.75-0.9-5.11-2.7-7.06
		c-1.81-1.96-3.979-2.94-6.53-2.94c-2.56,0-4.73,0.98-6.53,2.94c-1.81,1.95-2.7,4.31-2.7,7.06
		C979.88,839.77,980.77,842.12,982.58,844.08z"/>
</g>
<g>
	<path fill-rule="evenodd" clip-rule="evenodd" d="M1068.2,897c-8.14,0-12.2-2.05-12.2-6.14c0-1.77,0.73-3.19,2.22-4.25
		c1.48-1.06,3.16-1.61,5.01-1.61c5.85,0,9.43,3.84,10.77,11.53C1071.91,896.84,1069.97,897,1068.2,897z M1073.5,884.03
		c-2.95-2.69-6.5-4.03-10.64-4.03c-2.97,0-5.69,1.03-8.16,3.06c-2.47,2.03-3.7,4.55-3.7,7.55c0,7.59,5.98,11.39,17.95,11.39
		c8.24,0,14.8-1.91,19.71-5.7c4.89-3.8,7.34-9.32,7.34-16.55c0-6.17-2.08-11-6.23-14.5c-4.16-3.5-9.46-5.25-15.91-5.25
		c-2.72,0-5.45,0.48-8.2,1.44l-0.271-0.47l23.61-19.14l-2.41-3.83H1046v5l33.84-0.16c-12.96,11.35-26.25,22.14-39.84,32.41
		l2.53,4.75c1.7-1.66,4.72-4.06,9.06-7.22c4.35-3.14,8.18-5.22,11.52-6.25c3.34-1.01,6.77-1.53,10.28-1.53
		c5.33,0,9.59,1.33,12.8,3.97c3.2,2.65,4.81,6.39,4.81,11.22c0,7.84-4,12.93-12,15.31C1078.28,890.53,1076.45,886.72,1073.5,884.03z
		"/>
</g>
<g>
	<path fill-rule="evenodd" clip-rule="evenodd" d="M1229.63,819.95c1.21,1.38,2.7,2.05,4.43,2.05c1.74,0,3.22-0.67,4.46-2.05
		c1.21-1.37,1.84-3.01,1.84-4.95c0-1.92-0.63-3.56-1.84-4.94c-1.24-1.37-2.72-2.06-4.46-2.06c-1.73,0-3.22,0.69-4.43,2.06
		c-1.24,1.38-1.85,3.02-1.85,4.94C1227.78,816.94,1228.39,818.58,1229.63,819.95z"/>
</g>
<g>
	<path fill-rule="evenodd" clip-rule="evenodd" d="M1272.42,891c-1.47,0-2.75-0.66-3.81-1.97c-1.08-1.31-1.61-2.81-1.61-4.48
		c0-2.5,0.22-4.82,0.67-6.94c0.44-2.11,1.33-4.31,2.67-6.61c1.35-2.28,3.05-4.45,5.11-6.52c2.11,6.16,4.939,12.32,8.5,18.46
		C1279.47,888.31,1275.63,891,1272.42,891z M1295.81,855c-1.23,8.64-4.09,16.44-8.56,23.37c-3.3-6-5.86-11.76-7.7-17.29
		C1284.28,857.83,1289.7,855.8,1295.81,855z M1289.91,882.95c5.68-8.15,9.31-17.61,10.87-28.34c5.56,0.06,10.16,1.83,13.78,5.33
		c3.63,3.5,5.44,8.09,5.44,13.81c0,12.98-8.67,20.41-26,22.25l1.27,5c9.12-0.67,16.37-3.3,21.71-7.92
		c5.35-4.63,8.02-10.92,8.02-18.91c0-7.2-2.25-13.06-6.72-17.56c-4.47-4.5-10.11-6.83-16.92-6.95c0.31-3.72,0.52-8.3,0.64-13.74
		l-5,0.08c0,4.3-0.22,8.97-0.62,14c-6.52,0.77-12.55,2.81-18.11,6.14c-1.5-5.59-2.58-10.64-3.27-15.14l-5,1.52
		c0.95,5.78,2.23,11.37,3.83,16.79c-3.58,2.99-6.44,6.64-8.6,10.96c-2.15,4.31-3.23,8.75-3.23,13.31c0,3.51,0.89,6.47,2.69,8.84
		c1.78,2.39,4.09,3.58,6.94,3.58c4.75,0,9.71-2.91,14.92-8.75c0.92,1.45,1.75,2.7,2.5,3.75l3.72-3.75
		C1291.64,885.66,1290.69,884.22,1289.91,882.95z"/>
</g>
<g>
	
		<polygon fill-rule="evenodd" clip-rule="evenodd" stroke="#000000" stroke-linecap="round" stroke-linejoin="round" stroke-miterlimit="10" points="
		1507.31,333 1502.36,333 1502.36,395 1486.47,395 1486.47,400 1507.31,400 	"/>
</g>
<g>
	
		<path fill-rule="evenodd" clip-rule="evenodd" stroke="#000000" stroke-linecap="round" stroke-linejoin="round" stroke-miterlimit="10" d="
		M1552.56,390.72c1.08-1.14,2.391-1.72,3.92-1.72c1.5,0,2.77,0.61,3.8,1.8c1.029,1.18,1.56,2.61,1.56,4.26
		c0,1.63-0.54,3.03-1.64,4.19c-1.09,1.17-2.391,1.75-3.86,1.75c-1.5,0-2.78-0.59-3.82-1.8c-1.05-1.2-1.57-2.64-1.57-4.29
		C1550.95,393.25,1551.48,391.86,1552.56,390.72z M1549.89,402.19c1.72,1.87,3.88,2.81,6.45,2.81c2.64,0,4.83-0.91,6.57-2.73
		c1.72-1.82,2.59-4.22,2.59-7.19c0-2.88-0.87-5.28-2.61-7.21c-1.75-1.9-3.87-2.87-6.41-2.87c-2.67,0-4.87,0.94-6.59,2.8
		c-1.729,1.87-2.59,4.25-2.59,7.12C1547.3,397.89,1548.16,400.31,1549.89,402.19z"/>
</g>
<g>
	<path fill-rule="evenodd" clip-rule="evenodd" d="M756,186.87c0,6.75-4.33,10.13-12.97,10.13c-3.98,0-7.48-0.86-10.5-2.58
		c-3.03-1.72-4.53-4.09-4.53-7.14c-0.03-3.2,1.67-5.72,5.09-7.55c3.43-1.81,7.33-2.73,11.74-2.73c3.4,0,7.12,0.56,11.17,1.66V186.87
		z M763,174.36V145h29v-7h-29v-18h-7v52.33c-3.81-0.88-7.41-1.33-10.78-1.33c-6.64,0.03-12.17,1.48-16.59,4.34
		c-4.43,2.88-6.63,6.94-6.63,12.21c0,5.37,2.03,9.47,6.11,12.26c4.06,2.78,9.59,4.19,16.56,4.19c11.99,0,18.06-5.73,18.24-17.2
		l0.09-5.83c4.22,1.78,9.09,4.51,14.64,8.19c5.55,3.67,10.24,7.28,14.061,10.84l4.3-5.75C785.36,185.03,774.36,178.39,763,174.36z"
		/>
</g>
<g>
	<path fill-rule="evenodd" clip-rule="evenodd" d="M264.55,635.37c-5.63-4.59-14.19-11.07-25.71-19.48
		c-3.06-2.25-4.81-3.61-5.21-4.06c-0.43-0.46-0.63-1.06-0.63-1.85c0-0.87,0.33-1.62,0.98-2.28c0.66-0.64,2.33-1.81,4.99-3.53
		c13.62-9.75,25.58-19.48,35.84-29.19l-5.4-4.98c-5.02,5.08-10.08,9.73-15.18,13.98s-12.76,10.07-22.95,17.43
		c-3.53,2.81-5.28,5.73-5.28,8.76c0,1.24,0.28,2.45,0.88,3.64c0.59,1.19,1.35,2.25,2.32,3.19c0.96,0.94,3.32,2.81,7.07,5.61
		c3.75,2.8,6.62,4.89,8.61,6.26c10.79,8.13,20.59,16.83,29.39,26.13l5.48-5.95C275.22,644.52,270.16,639.97,264.55,635.37z"/>
</g>
<g>
	<path fill-rule="evenodd" clip-rule="evenodd" d="M682,415.75c-5.59,0.84-11.42,1.25-17.48,1.25c-5.97,0-10.58-0.25-13.83-0.75
		s-5.85-1.52-7.78-3.06c-1.94-1.53-2.91-3.57-2.91-6.08c0-5.03,1.75-9.74,5.28-14.08l-4.84-3.03c-4.3,6.22-6.44,12.14-6.44,17.73
		c0,3.85,1.02,7,3.08,9.44s5.08,4.19,9.06,5.25c3.99,1.06,10.02,1.58,18.08,1.58c5.78,0,11.72-0.41,17.78-1.25V415.75z
		 M680.78,354.61v-0.45c-1.51-0.1-4.55-0.16-9.08-0.16c-9.15,0-21.06,0.34-35.7,1c0.17,3.12,0.27,5.45,0.27,7
		c15.4-0.66,26.04-1,31.93-1c4,0,8.27,0.05,12.8,0.14C680.84,358.36,680.78,356.19,680.78,354.61z M619,392.14
		c0-14.22,1.97-28.83,5.94-43.81l-6.06-1.33c-3.93,16-5.88,30.92-5.88,44.73c0,12.69,1.47,24.44,4.42,35.27l5.58-1.63
		C620.33,414.91,619,403.83,619,392.14z"/>
</g>
<g>
	<path fill-rule="evenodd" clip-rule="evenodd" d="M542.67,173.19c0.44-2.85,0.78-5.78,1-8.85c0.22-3.06,0.33-7,0.33-11.81V135
		l1.45-0.05h0.44c5.34,0,9.88,2,13.56,6c3.69,4,5.55,8.99,5.55,14.99c-0.03,7.4-2.16,13.42-6.34,18.08
		c-4.21,4.65-9.58,6.98-16.11,6.98c-0.53,0-1.05-0.02-1.55-0.05C541.66,178.61,542.22,176.03,542.67,173.19z M542.38,188
		c8.76,0,15.89-2.86,21.39-8.61c5.48-5.73,8.23-13.37,8.23-22.92c0-8.02-2.47-14.6-7.41-19.75c-4.93-5.14-11.06-7.72-18.36-7.72
		h-0.34H544v-9h-7v9.59c-9.22,1.52-16.81,5.97-22.8,13.36c-5.98,7.39-9.82,15.42-11.51,24.08l-0.69-0.09v-3.8
		c-0.03-13.33,1.22-25.72,3.78-37.17l-6.59-0.97c-2.13,12.11-3.19,23.39-3.19,33.83c0,8.89,0.77,16.95,2.33,24.17h5.44
		c0.48-4.63,1.65-9.67,3.5-15.14c1.84-5.47,3.87-9.94,6.09-13.39c2.22-3.45,4.48-6.52,6.81-9.17c2.31-2.66,4.86-4.77,7.61-6.33
		c2.75-1.56,5.8-2.66,9.17-3.28l0.05,9.75c0,16.67-0.92,27.98-2.75,33.95c-6.2-2.69-10.67-7.81-13.39-15.39l-4.86,3.09
		c3.13,9.32,8.41,15.49,15.81,18.52c-3.47,5.53-9.4,9.66-17.81,12.39l2.48,6c10.47-2.72,17.85-8.19,22.11-16.41
		C540,187.87,541.25,188,542.38,188z"/>
</g>
<g>
	<path fill-rule="evenodd" clip-rule="evenodd" d="M-64.48,803l-6.44,2.5c2.61,7.31,3.92,17.41,3.92,30.27
		c0,12.67-2.14,21.87-6.42,27.62c-4.28,5.75-10.83,8.61-19.61,8.61c-6,0-11-1.91-14.99-5.73c-4-3.83-5.98-8.86-5.98-15.08
		c0-8.66,2.63-17.24,7.88-25.71c5.25-8.46,11.28-15.04,18.12-19.73l-3.52-5.75c-7,1.77-18.15,3.44-33.48,5l0.86,7
		c10.66-1.33,18.92-2.77,24.8-4.3l0.26,0.69c-5.97,4.75-10.95,11.05-14.95,18.91c-4.02,7.86-6,15.5-5.97,22.92
		c-0.03,9,2.41,16.05,7.31,21.14c4.91,5.08,11.52,7.64,19.86,7.64C-71.61,879-61,865.34-61,838c0-4.28-0.34-8.34-1.03-12.22
		l0.64-0.69c3.81,7.36,9.22,14.66,16.22,21.91l4.17-6.56C-52.56,830.09-60.39,817.62-64.48,803z"/>
</g>
<g>
	<path fill-rule="evenodd" clip-rule="evenodd" d="M475.88,643.34c-0.75,0.97-2.02,1.83-3.8,2.57c-1.78,0.73-4.64,1.09-8.61,1.09
		c-4.16,0-7.59-0.75-10.34-2.27c-2.75-1.51-4.13-3.73-4.13-6.64c0-2.72,1.36-4.92,4.09-6.59c2.74-1.66,5.72-2.5,8.96-2.5
		c6.2,0,11.18,0.78,14.95,2.33v7.06C477,640.73,476.63,642.37,475.88,643.34z M484,626.47V610h28v-6h-28v-15h32v-6h-32v-11h-7v11
		h-35v6h35v15h-33v6h33v14.78c-4.19-1.19-9.08-1.78-14.67-1.78c-5.33,0-9.88,1.44-13.66,4.3c-3.78,2.86-5.67,6.72-5.67,11.57
		c0,4.71,1.98,8.41,5.98,11.1c3.99,2.67,8.74,4.03,14.24,4.03c13.84,0,20.78-4.33,20.78-13v-7.45c10.66,4.48,19.44,9.64,26.31,15.45
		l3.69-6.75C507.27,637.33,497.27,632.06,484,626.47z"/>
</g>
<g>
	<path fill-rule="evenodd" clip-rule="evenodd" d="M607,835h-29.06c0.87-5.47,1.89-11.13,3.04-17H622v-7h-39.73l2.73-13.52l-7-0.48
		c-1.25,6.23-2.16,10.91-2.69,14H554v7h20.17c-1.31,7.34-2.23,13-2.79,17H553v7h17.5c-1,8.08-1.5,13.95-1.5,17.64
		c0,12.91,8.91,19.36,26.72,19.36c20.84,0,31.28-6.75,31.28-20.27c0-7.79-2.03-15.7-6.09-23.73l-5.85,2.08
		c3.28,6.67,4.94,13.53,4.94,20.58c0,9.56-8.27,14.34-24.77,14.34c-13.5,0-20.23-4.08-20.23-12.23c0-2.91,0.66-8.83,1.98-17.77H607
		V835z"/>
</g>
<g>
	<path fill-rule="evenodd" clip-rule="evenodd" d="M435,413.86c0,5.44-3.69,8.14-11.03,8.14c-8.66,0-12.97-2.73-12.97-8.2
		c0-2.74,1.25-4.89,3.77-6.46c2.5-1.56,5.42-2.34,8.76-2.34c3.85,0,7.67,0.55,11.47,1.64V413.86z M442,402.44V375h-7v25.16
		c-3.44-0.77-7.2-1.16-11.27-1.16c-5.25,0-9.67,1.37-13.29,4.09c-3.63,2.72-5.44,6.44-5.44,11.16c0,4.3,1.8,7.66,5.39,10.09
		c3.59,2.44,7.94,3.66,13.05,3.66c12.37,0,18.56-4.69,18.56-14.09v-4.57c4.52,2.47,9.7,6.36,15.56,11.66l3.44-5.75
		C453.91,409.16,447.56,404.89,442,402.44z M437.88,350l-3.88,4.75c9.23,7.97,16.47,15.72,21.7,23.25l5.3-4.78
		C453.53,363.02,445.81,355.28,437.88,350z M399.39,346c-0.12,5.06-0.47,10.06-1.03,15H383v7h14.45c-2.84,17.2-8.32,31.8-16.45,43.8
		l5.23,4.2c9.19-13.17,15.27-29.17,18.22-48H424v-7h-18.69c0.52-4.61,0.88-9.58,1.08-14.89L399.39,346z"/>
</g>
<g>
	<path fill-rule="evenodd" clip-rule="evenodd" d="M288.73,147.83c8.69-2.6,16.22-4.69,22.63-6.25c2.81,5.03,4.69,8.83,5.64,11.42
		l6-2.92c-1.55-3.36-3.25-6.69-5.11-9.99c3.75-0.72,6.66-1.09,8.69-1.09c4.22,0.03,7.51,1.44,9.87,4.19
		c2.36,2.75,3.55,6.53,3.55,11.31c0,2.62-0.48,5-1.45,7.09c-0.97,2.1-2.33,3.82-4.11,5.16c-1.78,1.34-3.67,2.23-5.71,2.64
		c-2.03,0.41-4.37,0.61-7.03,0.61c-3.43,0-6.62-0.33-9.53-1l-0.17,6.7c3.63,0.88,7.44,1.3,11.47,1.3c7.41,0,13.19-2.08,17.33-6.25
		c4.12-4.16,6.2-9.58,6.2-16.23c0-6.54-1.87-11.75-5.62-15.66c-3.75-3.91-8.66-5.86-14.75-5.86c-2.93,0-6.99,0.5-12.18,1.47
		c-3.95-6.6-6.81-11.1-8.59-13.47l-5.16,3.2c2.27,3.35,4.72,7.22,7.36,11.66c-5.97,1.37-12.9,3.2-20.83,5.45L282,120l-7,1.7
		c1.63,5.85,3.45,13.02,5.5,21.53L265,148l1.16,7c5.07-1.72,10.37-3.42,15.9-5.14c5.69,24.41,9.67,42.12,11.94,53.14l7-1.52
		L288.73,147.83z"/>
</g>
<g>
	<path fill-rule="evenodd" clip-rule="evenodd" d="M188.5,347l-17.97,43.7L157,425.66l6.36,2.34c5.09-12.75,8.36-21.02,9.81-24.77
		c1.44-3.75,3.67-7.06,6.69-9.93c3-2.86,5.94-4.3,8.81-4.3c1.72,0,3.1,0.77,4.13,2.3c1.03,1.53,1.65,3.47,1.86,5.78l0.76,8.95
		c0.47,6.78,1.8,12.16,3.96,16.11c2.15,3.94,6.34,5.89,12.59,5.86c6.34,0,11.5-2.3,15.5-6.84c3.98-4.57,7.16-13.88,9.53-27.94
		l-6-2.22c-3,20-9.12,30-18.34,30c-2.97,0-5.28-0.69-6.93-2.08c-1.64-1.39-2.73-3.37-3.29-5.95c-0.56-2.58-1.16-7.8-1.78-15.64
		c-0.64-5.5-1.8-9.25-3.47-11.27c-1.69-2-3.99-3.03-6.92-3.06c-3.29,0-6.85,1.45-10.71,4.33c6.96-16.89,12.27-29.53,15.94-37.92
		L188.5,347z"/>
</g>
<g>
	<path fill-rule="evenodd" clip-rule="evenodd" d="M346.73,858.22c-3.82,6.53-7.25,9.78-10.26,9.78c-1.53,0-2.81-0.66-3.88-2
		c-1.06-1.33-1.59-2.92-1.59-4.77c0-2.62,0.78-5.92,2.34-9.86c1.57-3.93,4.05-7.31,7.43-10.14c3.37-2.81,7.29-4.23,11.79-4.23
		c0.8,0,1.86,0.03,3.19,0.09C353.56,844.66,350.55,851.69,346.73,858.22z M395.58,839.48c0.3-3.12,0.45-7.01,0.45-11.7L396,819h-7
		c0,9.59-0.09,15.61-0.25,18.05c-8.5-3.07-16.48-5.14-23.92-6.22c2.34-8.21,4.06-17.3,5.17-27.27l-1.33-1.56H335v6h27
		c-0.72,7.33-2.16,14.7-4.31,22.11c-1.41-0.06-2.75-0.11-4.06-0.11c-5.79,0.03-10.96,1.77-15.52,5.2c-4.56,3.44-7.88,7.5-9.97,12.17
		c-2.09,4.69-3.14,9.18-3.14,13.46c0,3.92,1.02,7.26,3.06,10.03c2.03,2.76,4.6,4.14,7.67,4.14c9.96,0,18.99-12.44,27.1-37.31
		c7.75,0.98,16.11,3.09,25.09,6.34c-2.11,13.47-8.08,24.22-17.92,32.22l3.95,4.75c5.77-4.16,10.28-8.94,13.55-14.39
		c3.27-5.45,5.63-12.16,7.06-20.13c3.17,1.32,6.61,2.83,10.33,4.52l2.11-7C401.94,841.97,398.13,840.45,395.58,839.48z"/>
</g>
<g>
	<path fill-rule="evenodd" clip-rule="evenodd" d="M115.03,133.12c-4.22-4.21-8.06-7.59-11.51-10.12L99,127.55
		c8.19,6.51,15,13.67,20.47,21.45l5.53-4.5C122.56,141.14,119.25,137.34,115.03,133.12z M69,191.34c0,3.11-1.92,4.66-5.77,4.66
		c-3.1,0-5.92-0.92-8.45-2.8c-2.53-1.87-3.78-4.59-3.78-8.18c0-3.74,1.72-7.38,5.19-10.93c3.45-3.53,7.72-6.45,12.81-8.75V191.34z
		 M97.7,203c6.85,0,12.28-2.13,16.28-6.34c4-4.22,6.02-10.11,6.02-17.66c0-7.53-2.89-13.42-8.66-17.66
		c-5.76-4.22-12.89-6.34-21.36-6.34c-4.71,0-9.39,0.59-13.98,1.75V141h22v-6H76v-15h-7v16H47v6h22v16.89
		c-6.86,2.59-12.58,6.33-17.14,11.19c-4.58,4.86-6.86,10.04-6.86,15.56c0,5.03,1.83,9.17,5.52,12.45c3.67,3.27,7.93,4.91,12.79,4.91
		c8.46,0,12.69-3.23,12.69-9.7v-30.38c4.52-1.28,9.19-1.92,14.03-1.92c7.22,0,12.85,1.55,16.89,4.62c4.05,3.08,6.08,7.58,6.08,13.5
		c0,5.44-1.5,9.61-4.47,12.52c-2.97,2.91-7.06,4.36-12.26,4.36c-3.75,0-7.32-0.66-10.68-2L84,199.95
		C87.39,201.98,91.95,203,97.7,203z"/>
</g>
<g>
	<path fill-rule="evenodd" clip-rule="evenodd" d="M44.75,607H65v-6H41.95c-1.81-5.19-3.09-9.19-3.86-12H61v-6H36.55
		c-0.64-2.78-1.38-7.13-2.21-13l-7,0.69c0.49,4.01,1.19,8.12,2.11,12.31H-5v6h36.22c1.03,3.86,2.33,7.86,3.91,12H-7v6h44.78
		c2.44,5.22,5.08,9.94,7.95,14.14c-6.56-2.75-14.21-4.14-22.98-4.14c-8.12,0-14.62,1.64-19.47,4.89c-4.86,3.25-7.28,7.98-7.28,14.2
		c0,5.83,2.56,10.27,7.72,13.33c5.14,3.05,13.95,4.58,26.42,4.58c10.78,0,19.41-0.75,25.86-2.25l-0.17-7
		c-7.41,1.5-15.89,2.25-25.49,2.25c-10.84,0-18.11-0.98-21.79-2.97C4.84,642.05,3,639.31,3,635.81c0-4,1.58-7.12,4.73-9.4
		c3.16-2.27,9.36-3.41,18.61-3.41c4.25,0,8.68,0.73,13.24,2.17c4.56,1.45,8.4,3.39,11.53,5.83l4.89-5.34
		C50.88,618.22,47.13,612,44.75,607z"/>
</g>
<g>
	<path fill-rule="evenodd" clip-rule="evenodd" d="M174.92,867c-9.75,1.34-19.67,2-29.76,2c-13,0-21.61-0.92-25.83-2.78
		c-4.22-1.85-6.33-4.88-6.33-9.1c0-4.84,2.31-9.89,6.95-15.17L115.8,838c-5.88,5.91-8.8,12.45-8.8,19.64
		c0,5.91,2.41,10.45,7.22,13.61c4.81,3.17,14.05,4.75,27.67,4.75h5.09c10.75,0,20.43-0.67,29.02-2L174.92,867z M171.5,804.14
		c-2.09-0.09-6.28-0.14-12.59-0.14c-19.88,0-35.5,0.34-46.91,1l0.34,7c20.71-1.09,36.24-1.75,46.6-2l0.17,1.03
		c-5.88,3.56-10.25,6.25-13.11,8.09l3.05,4.88c8.28-4.92,13.03-7.73,14.26-8.42c1.24-0.69,2.8-1.46,4.67-2.28
		c1.88-0.82,3.55-1.43,5.02-1.8L171.5,804.14z"/>
</g>
<g>
	<path fill-rule="evenodd" clip-rule="evenodd" d="M6.59,373.44C3,365.75-0.78,359.59-4.73,355l-5.36,3.91
		C-2.62,368,3.06,380.69,7,397l7-2C12.66,388.33,10.19,381.14,6.59,373.44z M-42,347h-7c0,10.47-0.11,16.81-0.31,19H-67v7h16.98
		c-1.29,12.28-3.82,22.91-7.59,31.91c-3.76,9-7.56,16.03-11.39,21.07l4.84,4.02c4.22-5.36,7.82-11.38,10.79-18.05
		c2.96-6.65,5.15-13.03,6.53-19.09c1.37-6.06,2.64-13.36,3.82-21.86h14.75c2.5,0,4.52,0.87,6.02,2.62S-20,379.5-20,386
		c0,7.31-0.45,13.61-1.36,18.86c-0.91,5.26-2.03,9.26-3.37,12.01c-1.35,2.75-3.14,4.13-5.36,4.13c-1,0-2.86-0.47-5.55-1.44
		c-2.7-0.95-4.78-1.81-6.22-2.56l-2.14,6.22c6.25,3.84,11.13,5.78,14.59,5.78c6.07,0,10.3-4.33,12.72-13.02
		c2.42-8.68,3.66-19.65,3.69-32.92c-0.03-5.37-1.2-9.72-3.5-13.06c-2.3-3.33-5.47-5-9.5-5h-16.44c0.28-3.58,0.44-6.77,0.44-9.58V347
		z"/>
</g>
<g>
	<path fill-rule="evenodd" clip-rule="evenodd" d="M-119.44,144H-173v6l46.34-0.19c-2.73,2.63-7.28,6.66-13.62,12.13
		c-5.99,5.12-10.52,9.2-13.59,12.23c-11.97,11.11-21,19.31-27.13,24.61l4.59,5.22c17.39-16.22,27.33-25.45,29.82-27.67
		c2.48-2.22,5.04-3.33,7.68-3.33c1.25,0,2.19,0.5,2.82,1.48c0.61,1,0.97,2.54,1.09,4.61c0.31,6.8,0.66,11.35,1,13.63
		c0.34,2.3,1.2,4.14,2.58,5.53c1.37,1.41,3.3,2.36,5.76,2.92c2.47,0.55,6.88,0.83,13.25,0.83c4.33,0,8.13-0.13,11.41-0.34l0.09-7.1
		c-4,0.3-8.11,0.44-12.34,0.44c-3.05,0-5.87-0.09-8.5-0.31c-2.62-0.22-4.25-0.69-4.87-1.41c-0.63-0.72-1.04-1.37-1.25-2
		c-0.22-0.62-0.47-2.41-0.74-5.37c-0.26-2.97-0.39-5.36-0.39-7.21c-0.16-7.12-2.19-10.7-6.06-10.7c-1.08,0-2.28,0.22-3.63,0.64
		C-131.56,162.2-124,155.66-116,149L-119.44,144z M-167,124v7c18.66,0.28,34.67,1.62,48.02,4l0.98-7
		C-132.41,125.34-148.73,124-167,124z"/>
</g>
<g>
	<path fill-rule="evenodd" clip-rule="evenodd" d="M-345.97,194.45c9.31-6.43,13.97-15.58,13.97-27.42c0-7.03-2.2-12.45-6.58-16.28
		c-4.39-3.83-10.26-5.75-17.62-5.75c-3.22,0-6.86,0.22-10.89,0.66c-4.05,0.43-8.74,1.15-14.05,2.17L-398,151l1.16,7
		c13.5-2.63,21.31-4.11,23.47-4.48c2.15-0.36,4.82-0.71,8.04-1.04c3.22-0.31,6.19-0.48,8.91-0.48c5.06,0,9.23,1.34,12.51,4.02
		c3.27,2.68,4.91,6.37,4.91,11.07c0,5.44-1.14,10.13-3.42,14.08c-2.28,3.97-6.92,7.67-13.91,11.13c-7,3.45-16.89,5.68-29.67,6.7
		l1.2,6C-368.23,204.41-355.28,200.89-345.97,194.45z M-371,125.72c-7.39-0.47-14.28-0.72-20.69-0.72l-0.31,7
		c21.55,0.44,38.05,1.78,49.5,4l1.5-7C-353.61,127.3-363.61,126.2-371,125.72z"/>
</g>
<g>
	<path fill-rule="evenodd" clip-rule="evenodd" d="M-226,617.8c0-13.47,1.95-27.63,5.89-42.47l-6.01-1.33
		c-3.93,15.97-5.88,30.84-5.88,44.64c0,12.66,1.45,24.38,4.38,35.17l5.84-1.62C-224.59,641.16-226,629.7-226,617.8z M-193.52,648
		c-3.12,0-5.81-0.73-8.07-2.22c-2.28-1.48-3.41-3.55-3.41-6.19c0-2.65,0.97-4.75,2.94-6.26c1.95-1.52,4.47-2.3,7.53-2.33
		c5.48,0,10,0.81,13.53,2.42v5.94C-181,645.12-185.17,648-193.52,648z M-174,629.45V598h16v-7h-16v-18h-7v18h-31v7h31v28.78
		c-4.31-1.19-8.72-1.78-13.25-1.78c-4.62,0-8.58,1.37-11.84,4.11c-3.28,2.75-4.91,6.33-4.91,10.73c0,4.32,1.7,7.75,5.14,10.32
		c3.42,2.56,7.53,3.84,12.34,3.84c7.1,0,12.11-1.23,15.08-3.67c2.96-2.46,4.44-6.16,4.44-11.11v-2.97
		c7.25,5.06,12.3,8.97,15.13,11.75l3.87-5.75C-160.94,636.75-167.27,632.48-174,629.45z"/>
</g>
<g>
	<path fill-rule="evenodd" clip-rule="evenodd" d="M-214,358h-27v-12h-7v12h-43v6h43v12.55c-2.75-2.36-5.87-3.55-9.37-3.55
		c-4.68,0-8.61,1.75-11.82,5.22c-3.22,3.47-4.81,7.81-4.81,13.01c0,4.54,1.47,8.3,4.41,11.29c2.93,3,6.54,4.48,10.81,4.48
		c3.75,0,6.97-1.06,9.66-3.22c2.68-2.16,4.39-5.11,5.12-8.86c0.11,0.97,0.17,2.06,0.17,3.25c0,7.1-2.42,13.05-7.26,17.83
		c-4.85,4.78-10.82,7.45-17.91,8l1.75,6c8.53-0.59,15.69-3.78,21.5-9.56c5.8-5.8,8.72-12.97,8.75-21.5c0-6.52-1.34-11.66-4-15.41
		V364h27V358z M-248,387.33c-0.09,4.09-1.14,7.39-3.17,9.9c-2.03,2.52-4.75,3.77-8.14,3.77c-2.69,0-4.8-0.95-6.36-2.89
		c-1.56-1.92-2.33-4.47-2.33-7.64c-0.03-2.91,0.95-5.53,2.94-7.89c1.98-2.35,4.25-3.55,6.78-3.58c5.2,0,8.62,1.84,10.28,5.53V387.33
		z"/>
</g>
<g>
	<path fill-rule="evenodd" clip-rule="evenodd" d="M-1272.91-245c12.66,0,22.64-2.39,29.96-7.16c7.29-4.78,10.95-11.78,10.95-21
		c0-7.45-2.5-13.29-7.48-17.51c-4.99-4.22-11.38-6.33-19.18-6.33c-2.75,0-6.75,0.7-12.01,2.11l-0.25-0.49
		c3.2-2.68,8.36-6.62,15.48-11.84c6.88-5,12.02-8.97,15.44-11.92l-3.52-4.86H-1295v6h43.67l-22.06,17.42l-30.61,23.83l3.36,5.75
		c8.41-7.66,15.78-12.89,22.12-15.73c6.35-2.85,12.61-4.27,18.83-4.27c6.38,0,11.41,1.56,15.13,4.66c3.7,3.11,5.56,7.57,5.56,13.42
		c-0.03,6.79-3.31,11.98-9.84,15.58c-6.53,3.59-14.82,5.37-24.82,5.34c-4.5,0-9.43-0.66-14.79-2l-0.55,7
		C-1283.87-245.67-1278.5-245-1272.91-245z"/>
</g>
<g>
	<path fill-rule="evenodd" clip-rule="evenodd" d="M-949.77-307.14c-4.25-6.5-8.15-11.45-11.73-14.86l-4.45,4.16
		c9.04,10.14,15.36,20.42,18.95,30.84l6-3.56C-942.61-295.11-945.53-300.64-949.77-307.14z M-1013.75-287.69
		c2.16-2.87,4.81-4.31,7.95-4.31c3.86,0,5.8,2.27,5.8,6.8c0,3.86-0.92,7.18-2.77,10c-1.84,2.81-4.29,4.2-7.34,4.2
		c-1.91,0-3.53-0.66-4.89-1.97c-1.37-1.31-2.03-2.98-2-5.01C-1017-281.58-1015.92-284.81-1013.75-287.69z M-1009-257.27
		c0,8.85,8.72,13.27,26.17,13.27c4.61,0,9.78-0.28,15.52-0.8c5.73-0.54,10.04-2.11,12.95-4.7c2.91-2.59,4.36-6.11,4.36-10.55
		c0-8.95-2.2-17.93-6.58-26.95l-5.65,2.27c3.48,8.25,5.23,15.96,5.23,23.17c0,2.9-1.08,5.2-3.22,6.92
		c-2.15,1.72-5.47,2.76-9.97,3.11c-4.5,0.36-8.58,0.53-12.23,0.53c-13.72,0-20.58-2.63-20.58-7.88c0-0.96,0.23-2.17,0.7-3.59
		c0.47-1.41,2.49-5.12,6.08-11.14c2.14-5.34,3.22-9.56,3.22-12.66V-308h21v-6h-21v-13h-7v13h-21v6h21l-0.05,11.64
		c-1.62-1.09-3.47-1.64-5.54-1.64c-4.85,0-8.97,2.08-12.35,6.23c-3.37,4.16-5.06,9.04-5.06,14.63c0,4.09,1.16,7.31,3.48,9.64
		c2.32,2.34,5.43,3.5,9.33,3.5c0.86,0,1.72-0.11,2.6-0.34C-1008.53-261.75-1009-259.39-1009-257.27z"/>
</g>
<g>
	<path fill-rule="evenodd" clip-rule="evenodd" d="M-737-285.2c0-13.47,1.95-27.63,5.89-42.47l-6.01-1.33
		c-3.93,15.97-5.88,30.84-5.88,44.64c0,12.66,1.45,24.38,4.38,35.17l5.84-1.62C-735.59-261.84-737-273.3-737-285.2z M-704.52-255
		c-3.12,0-5.81-0.73-8.07-2.22c-2.28-1.48-3.41-3.55-3.41-6.19c0-2.65,0.97-4.75,2.94-6.26c1.95-1.52,4.47-2.3,7.53-2.33
		c5.48,0,10,0.81,13.53,2.42v5.94C-692-257.88-696.17-255-704.52-255z M-685-273.55V-305h16v-7h-16v-18h-7v18h-31v7h31v28.78
		c-4.31-1.19-8.72-1.78-13.25-1.78c-4.62,0-8.58,1.37-11.84,4.11c-3.28,2.75-4.91,6.33-4.91,10.73c0,4.32,1.7,7.75,5.14,10.32
		c3.42,2.56,7.53,3.84,12.34,3.84c7.1,0,12.11-1.23,15.08-3.67c2.96-2.46,4.44-6.16,4.44-11.11v-2.97
		c7.25,5.06,12.3,8.97,15.13,11.75l3.87-5.75C-671.94-266.25-678.27-270.52-685-273.55z"/>
</g>
<g>
	<path fill-rule="evenodd" clip-rule="evenodd" d="M-484.12-258.66c-0.75,0.97-2.02,1.83-3.8,2.57c-1.78,0.73-4.64,1.09-8.61,1.09
		c-4.16,0-7.59-0.75-10.34-2.27c-2.75-1.51-4.13-3.73-4.13-6.64c0-2.72,1.36-4.92,4.09-6.59c2.74-1.66,5.72-2.5,8.96-2.5
		c6.2,0,11.18,0.78,14.95,2.33v7.06C-483-261.27-483.37-259.63-484.12-258.66z M-476-275.53V-292h28v-6h-28v-15h32v-6h-32v-11h-7v11
		h-35v6h35v15h-33v6h33v14.78c-4.19-1.19-9.08-1.78-14.67-1.78c-5.33,0-9.88,1.44-13.66,4.3s-5.67,6.72-5.67,11.57
		c0,4.71,1.98,8.41,5.98,11.1c3.99,2.67,8.74,4.03,14.24,4.03c13.84,0,20.78-4.33,20.78-13v-7.45c10.66,4.48,19.44,9.64,26.31,15.45
		l3.69-6.75C-452.73-264.67-462.73-269.94-476-275.53z"/>
</g>
</svg>
