<?xml version="1.0" encoding="utf-8"?>
<!-- Generator: Adobe Illustrator 16.0.0, SVG Export Plug-In . SVG Version: 6.00 Build 0)  -->
<!DOCTYPE svg PUBLIC "-//W3C//DTD SVG 1.1//EN" "http://www.w3.org/Graphics/SVG/1.1/DTD/svg11.dtd">
<svg version="1.1" id="Layer_1" xmlns="http://www.w3.org/2000/svg" xmlns:xlink="http://www.w3.org/1999/xlink" x="0px" y="0px"
	 width="612px" height="792px" viewBox="0 0 612 792" enable-background="new 0 0 612 792" xml:space="preserve">
<g>
	<polyline fill="none" stroke="#000000" stroke-miterlimit="10" points="-83.5,398.5 191.5,398.5 191.5,618.5 -83.5,618.5 
		-83.5,398.5 	"/>
	<line fill="none" stroke="#000000" stroke-miterlimit="10" x1="-83.5" y1="398.5" x2="191.5" y2="618.5"/>
	<line fill="none" stroke="#000000" stroke-miterlimit="10" x1="191.5" y1="398.5" x2="-83.5" y2="618.5"/>
</g>
<g>
	<polyline fill="none" stroke="#000000" stroke-miterlimit="10" points="144.5,173.5 468.5,173.5 468.5,618.5 144.5,618.5 
		144.5,173.5 	"/>
	<line fill="none" stroke="#000000" stroke-miterlimit="10" x1="144.5" y1="173.5" x2="468.5" y2="618.5"/>
	<line fill="none" stroke="#000000" stroke-miterlimit="10" x1="468.5" y1="173.5" x2="144.5" y2="618.5"/>
</g>
<g>
	<polyline fill="none" stroke="#000000" stroke-miterlimit="10" points="478.5,173.5 694.5,173.5 694.5,394.5 478.5,394.5 
		478.5,173.5 	"/>
	<line fill="none" stroke="#000000" stroke-miterlimit="10" x1="478.5" y1="173.5" x2="694.5" y2="394.5"/>
	<line fill="none" stroke="#000000" stroke-miterlimit="10" x1="694.5" y1="173.5" x2="478.5" y2="394.5"/>
</g>
<g>
	<polyline fill="none" stroke="#000000" stroke-miterlimit="10" points="478.5,397.5 694.5,397.5 694.5,618.5 478.5,618.5 
		478.5,397.5 	"/>
	<line fill="none" stroke="#000000" stroke-miterlimit="10" x1="478.5" y1="397.5" x2="694.5" y2="618.5"/>
	<line fill="none" stroke="#000000" stroke-miterlimit="10" x1="694.5" y1="397.5" x2="478.5" y2="618.5"/>
</g>
<g>
	<path fill-rule="evenodd" clip-rule="evenodd" d="M369.54,407.71h-66.37v17.12L283,404.67l20.17-20.17v18.13h66.37v-33.55h5.08
		v33.55C374.62,405.43,372.35,407.71,369.54,407.71z"/>
</g>
<g>
	<polygon fill-rule="evenodd" clip-rule="evenodd" points="46.54,520 46.54,508 29.67,508 49.83,487.83 70,508 53.12,508 
		53.12,513.42 53.12,520 	"/>
</g>
<g>
	<path fill-rule="evenodd" clip-rule="evenodd" d="M632,313.8c-5.08-10.5-17.06-29.5-27.53-41l-5.99,3.4
		c5.99,6.7,12.57,15.8,17.76,24.4c-13.17,1.2-36.82,2.9-53.38,3.6c6.88-19.6,15.47-46.4,20.95-64.8c1.5,0,2.5-0.5,2.9-1.4l-9.68-2.6
		c-5.49,20-14.97,49.9-21.55,69.1c-3.89,0.19-7.49,0.28-10.48,0.38l2.69,8.62c0.9-0.2,1.6-1,1.9-2c15.27-0.76,49.39-2.74,70.14-4.82
		c2,3.4,3.79,6.92,5.29,10.32L632,313.8z"/>
</g>
<g>
	<path fill-rule="evenodd" clip-rule="evenodd" d="M633,537.8c-5.08-10.5-17.06-29.5-27.53-41l-5.99,3.4
		c5.99,6.7,12.57,15.8,17.76,24.4c-13.17,1.2-36.82,2.9-53.38,3.6c6.88-19.6,15.47-46.4,20.95-64.8c1.5,0,2.5-0.5,2.9-1.4l-9.68-2.6
		c-5.49,20-14.97,49.9-21.55,69.1c-3.89,0.19-7.49,0.28-10.48,0.38l2.69,8.62c0.9-0.2,1.6-1,1.9-2c15.27-0.76,49.39-2.74,70.14-4.82
		c2,3.4,3.79,6.92,5.29,10.32L633,537.8z"/>
</g>
</svg>
