<?xml version="1.0" encoding="utf-8"?>
<!-- Generator: Adobe Illustrator 16.0.0, SVG Export Plug-In . SVG Version: 6.00 Build 0)  -->
<!DOCTYPE svg PUBLIC "-//W3C//DTD SVG 1.1//EN" "http://www.w3.org/Graphics/SVG/1.1/DTD/svg11.dtd">
<svg version="1.1" id="Layer_1" xmlns="http://www.w3.org/2000/svg" xmlns:xlink="http://www.w3.org/1999/xlink" x="0px" y="0px"
	 width="612px" height="792px" viewBox="0 0 612 792" enable-background="new 0 0 612 792" xml:space="preserve">
<g>
	<polyline fill="none" stroke="#000000" stroke-miterlimit="10" points="1156.5,735 1371.5,735 1371.5,956 1156.5,956 1156.5,735 	
		"/>
	<line fill="none" stroke="#000000" stroke-miterlimit="10" x1="1156.5" y1="735" x2="1371.5" y2="956"/>
	<line fill="none" stroke="#000000" stroke-miterlimit="10" x1="1371.5" y1="735" x2="1156.5" y2="956"/>
</g>
<g>
	<polyline fill="none" stroke="#000000" stroke-miterlimit="10" points="931.5,735 1146.5,735 1146.5,956 931.5,956 931.5,735 	"/>
	<line fill="none" stroke="#000000" stroke-miterlimit="10" x1="931.5" y1="735" x2="1146.5" y2="956"/>
	<line fill="none" stroke="#000000" stroke-miterlimit="10" x1="1146.5" y1="735" x2="931.5" y2="956"/>
</g>
<g>
	<polyline fill="none" stroke="#000000" stroke-miterlimit="10" points="1269.5,510 1484.5,510 1484.5,731 1269.5,731 1269.5,510 	
		"/>
	<line fill="none" stroke="#000000" stroke-miterlimit="10" x1="1269.5" y1="510" x2="1484.5" y2="731"/>
	<line fill="none" stroke="#000000" stroke-miterlimit="10" x1="1484.5" y1="510" x2="1269.5" y2="731"/>
</g>
<g>
	<polyline fill="none" stroke="#000000" stroke-miterlimit="10" points="1044.5,510 1259.5,510 1259.5,731 1044.5,731 1044.5,510 	
		"/>
	<line fill="none" stroke="#000000" stroke-miterlimit="10" x1="1044.5" y1="510" x2="1259.5" y2="731"/>
	<line fill="none" stroke="#000000" stroke-miterlimit="10" x1="1259.5" y1="510" x2="1044.5" y2="731"/>
</g>
<g>
	<polyline fill="none" stroke="#000000" stroke-miterlimit="10" points="706.5,735 921.5,735 921.5,956 706.5,956 706.5,735 	"/>
	<line fill="none" stroke="#000000" stroke-miterlimit="10" x1="706.5" y1="735" x2="921.5" y2="956"/>
	<line fill="none" stroke="#000000" stroke-miterlimit="10" x1="921.5" y1="735" x2="706.5" y2="956"/>
</g>
<g>
	<polyline fill="none" stroke="#000000" stroke-miterlimit="10" points="481.5,735 696.5,735 696.5,956 481.5,956 481.5,735 	"/>
	<line fill="none" stroke="#000000" stroke-miterlimit="10" x1="481.5" y1="735" x2="696.5" y2="956"/>
	<line fill="none" stroke="#000000" stroke-miterlimit="10" x1="696.5" y1="735" x2="481.5" y2="956"/>
</g>
<g>
	<polyline fill="none" stroke="#000000" stroke-miterlimit="10" points="819.5,510 1034.5,510 1034.5,731 819.5,731 819.5,510 	"/>
	<line fill="none" stroke="#000000" stroke-miterlimit="10" x1="819.5" y1="510" x2="1034.5" y2="731"/>
	<line fill="none" stroke="#000000" stroke-miterlimit="10" x1="1034.5" y1="510" x2="819.5" y2="731"/>
</g>
<g>
	<polyline fill="none" stroke="#000000" stroke-miterlimit="10" points="594.5,510 809.5,510 809.5,731 594.5,731 594.5,510 	"/>
	<line fill="none" stroke="#000000" stroke-miterlimit="10" x1="594.5" y1="510" x2="809.5" y2="731"/>
	<line fill="none" stroke="#000000" stroke-miterlimit="10" x1="809.5" y1="510" x2="594.5" y2="731"/>
</g>
<g>
	<polyline fill="none" stroke="#000000" stroke-miterlimit="10" points="256.5,735 471.5,735 471.5,956 256.5,956 256.5,735 	"/>
	<line fill="none" stroke="#000000" stroke-miterlimit="10" x1="256.5" y1="735" x2="471.5" y2="956"/>
	<line fill="none" stroke="#000000" stroke-miterlimit="10" x1="471.5" y1="735" x2="256.5" y2="956"/>
</g>
<g>
	<polyline fill="none" stroke="#000000" stroke-miterlimit="10" points="31.5,735 246.5,735 246.5,956 31.5,956 31.5,735 	"/>
	<line fill="none" stroke="#000000" stroke-miterlimit="10" x1="31.5" y1="735" x2="246.5" y2="956"/>
	<line fill="none" stroke="#000000" stroke-miterlimit="10" x1="246.5" y1="735" x2="31.5" y2="956"/>
</g>
<g>
	<polyline fill="none" stroke="#000000" stroke-miterlimit="10" points="369.5,510 584.5,510 584.5,731 369.5,731 369.5,510 	"/>
	<line fill="none" stroke="#000000" stroke-miterlimit="10" x1="369.5" y1="510" x2="584.5" y2="731"/>
	<line fill="none" stroke="#000000" stroke-miterlimit="10" x1="584.5" y1="510" x2="369.5" y2="731"/>
</g>
<g>
	<polyline fill="none" stroke="#000000" stroke-miterlimit="10" points="144.5,510 359.5,510 359.5,731 144.5,731 144.5,510 	"/>
	<line fill="none" stroke="#000000" stroke-miterlimit="10" x1="144.5" y1="510" x2="359.5" y2="731"/>
	<line fill="none" stroke="#000000" stroke-miterlimit="10" x1="359.5" y1="510" x2="144.5" y2="731"/>
</g>
<g>
	<polyline fill="none" stroke="#000000" stroke-miterlimit="10" points="-193.5,735 21.5,735 21.5,956 -193.5,956 -193.5,735 	"/>
	<line fill="none" stroke="#000000" stroke-miterlimit="10" x1="-193.5" y1="735" x2="21.5" y2="956"/>
	<line fill="none" stroke="#000000" stroke-miterlimit="10" x1="21.5" y1="735" x2="-193.5" y2="956"/>
</g>
<g>
	<polyline fill="none" stroke="#000000" stroke-miterlimit="10" points="-80.5,510 134.5,510 134.5,731 -80.5,731 -80.5,510 	"/>
	<line fill="none" stroke="#000000" stroke-miterlimit="10" x1="-80.5" y1="510" x2="134.5" y2="731"/>
	<line fill="none" stroke="#000000" stroke-miterlimit="10" x1="134.5" y1="510" x2="-80.5" y2="731"/>
</g>
<g>
	<polyline fill="none" stroke="#000000" stroke-miterlimit="10" points="-418.5,735 -203.5,735 -203.5,956 -418.5,956 -418.5,735 	
		"/>
	<line fill="none" stroke="#000000" stroke-miterlimit="10" x1="-418.5" y1="735" x2="-203.5" y2="956"/>
	<line fill="none" stroke="#000000" stroke-miterlimit="10" x1="-203.5" y1="735" x2="-418.5" y2="956"/>
</g>
<g>
	<polyline fill="none" stroke="#000000" stroke-miterlimit="10" points="-305.5,510 -90.5,510 -90.5,731 -305.5,731 -305.5,510 	"/>
	<line fill="none" stroke="#000000" stroke-miterlimit="10" x1="-305.5" y1="510" x2="-90.5" y2="731"/>
	<line fill="none" stroke="#000000" stroke-miterlimit="10" x1="-90.5" y1="510" x2="-305.5" y2="731"/>
</g>
<g>
	<polyline fill="none" stroke="#000000" stroke-miterlimit="10" points="-643.5,735 -428.5,735 -428.5,956 -643.5,956 -643.5,735 	
		"/>
	<line fill="none" stroke="#000000" stroke-miterlimit="10" x1="-643.5" y1="735" x2="-428.5" y2="956"/>
	<line fill="none" stroke="#000000" stroke-miterlimit="10" x1="-428.5" y1="735" x2="-643.5" y2="956"/>
</g>
<g>
	<polyline fill="none" stroke="#000000" stroke-miterlimit="10" points="-521.5,960 856.5,960 856.5,1181 -521.5,1181 -521.5,960 	
		"/>
	<line fill="none" stroke="#000000" stroke-miterlimit="10" x1="-521.5" y1="960" x2="856.5" y2="1181"/>
	<line fill="none" stroke="#000000" stroke-miterlimit="10" x1="856.5" y1="960" x2="-521.5" y2="1181"/>
</g>
<g>
	<polyline fill="none" stroke="#000000" stroke-miterlimit="10" points="-868.5,735 -653.5,735 -653.5,956 -868.5,956 -868.5,735 	
		"/>
	<line fill="none" stroke="#000000" stroke-miterlimit="10" x1="-868.5" y1="735" x2="-653.5" y2="956"/>
	<line fill="none" stroke="#000000" stroke-miterlimit="10" x1="-653.5" y1="735" x2="-868.5" y2="956"/>
</g>
<g>
	<polyline fill="none" stroke="#000000" stroke-miterlimit="10" points="-530.5,510 -315.5,510 -315.5,731 -530.5,731 -530.5,510 	
		"/>
	<line fill="none" stroke="#000000" stroke-miterlimit="10" x1="-530.5" y1="510" x2="-315.5" y2="731"/>
	<line fill="none" stroke="#000000" stroke-miterlimit="10" x1="-315.5" y1="510" x2="-530.5" y2="731"/>
</g>
<g>
	<polyline fill="none" stroke="#000000" stroke-miterlimit="10" points="-755.5,510 -540.5,510 -540.5,731 -755.5,731 -755.5,510 	
		"/>
	<line fill="none" stroke="#000000" stroke-miterlimit="10" x1="-755.5" y1="510" x2="-540.5" y2="731"/>
	<line fill="none" stroke="#000000" stroke-miterlimit="10" x1="-540.5" y1="510" x2="-755.5" y2="731"/>
</g>
<g>
	<polyline fill="none" stroke="#000000" stroke-miterlimit="10" points="1437.5,285 1653.5,285 1653.5,506 1437.5,506 1437.5,285 	
		"/>
	<line fill="none" stroke="#000000" stroke-miterlimit="10" x1="1437.5" y1="285" x2="1653.5" y2="506"/>
	<line fill="none" stroke="#000000" stroke-miterlimit="10" x1="1653.5" y1="285" x2="1437.5" y2="506"/>
</g>
<g>
	<polyline fill="none" stroke="#000000" stroke-miterlimit="10" points="1212.5,285 1428.5,285 1428.5,506 1212.5,506 1212.5,285 	
		"/>
	<line fill="none" stroke="#000000" stroke-miterlimit="10" x1="1212.5" y1="285" x2="1428.5" y2="506"/>
	<line fill="none" stroke="#000000" stroke-miterlimit="10" x1="1428.5" y1="285" x2="1212.5" y2="506"/>
</g>
<g>
	<polyline fill="none" stroke="#000000" stroke-miterlimit="10" points="987.5,285 1203.5,285 1203.5,506 987.5,506 987.5,285 	"/>
	<line fill="none" stroke="#000000" stroke-miterlimit="10" x1="987.5" y1="285" x2="1203.5" y2="506"/>
	<line fill="none" stroke="#000000" stroke-miterlimit="10" x1="1203.5" y1="285" x2="987.5" y2="506"/>
</g>
<g>
	<polyline fill="none" stroke="#000000" stroke-miterlimit="10" points="762.5,285 978.5,285 978.5,506 762.5,506 762.5,285 	"/>
	<line fill="none" stroke="#000000" stroke-miterlimit="10" x1="762.5" y1="285" x2="978.5" y2="506"/>
	<line fill="none" stroke="#000000" stroke-miterlimit="10" x1="978.5" y1="285" x2="762.5" y2="506"/>
</g>
<g>
	<polyline fill="none" stroke="#000000" stroke-miterlimit="10" points="537.5,285 753.5,285 753.5,506 537.5,506 537.5,285 	"/>
	<line fill="none" stroke="#000000" stroke-miterlimit="10" x1="537.5" y1="285" x2="753.5" y2="506"/>
	<line fill="none" stroke="#000000" stroke-miterlimit="10" x1="753.5" y1="285" x2="537.5" y2="506"/>
</g>
<g>
	<polyline fill="none" stroke="#000000" stroke-miterlimit="10" points="312.5,285 528.5,285 528.5,506 312.5,506 312.5,285 	"/>
	<line fill="none" stroke="#000000" stroke-miterlimit="10" x1="312.5" y1="285" x2="528.5" y2="506"/>
	<line fill="none" stroke="#000000" stroke-miterlimit="10" x1="528.5" y1="285" x2="312.5" y2="506"/>
</g>
<g>
	<polyline fill="none" stroke="#000000" stroke-miterlimit="10" points="87.5,285 303.5,285 303.5,506 87.5,506 87.5,285 	"/>
	<line fill="none" stroke="#000000" stroke-miterlimit="10" x1="87.5" y1="285" x2="303.5" y2="506"/>
	<line fill="none" stroke="#000000" stroke-miterlimit="10" x1="303.5" y1="285" x2="87.5" y2="506"/>
</g>
<g>
	<polyline fill="none" stroke="#000000" stroke-miterlimit="10" points="-137.5,285 78.5,285 78.5,506 -137.5,506 -137.5,285 	"/>
	<line fill="none" stroke="#000000" stroke-miterlimit="10" x1="-137.5" y1="285" x2="78.5" y2="506"/>
	<line fill="none" stroke="#000000" stroke-miterlimit="10" x1="78.5" y1="285" x2="-137.5" y2="506"/>
</g>
<g>
	<polyline fill="none" stroke="#000000" stroke-miterlimit="10" points="-362.5,285 -146.5,285 -146.5,506 -362.5,506 -362.5,285 	
		"/>
	<line fill="none" stroke="#000000" stroke-miterlimit="10" x1="-362.5" y1="285" x2="-146.5" y2="506"/>
	<line fill="none" stroke="#000000" stroke-miterlimit="10" x1="-146.5" y1="285" x2="-362.5" y2="506"/>
</g>
<g>
	<polyline fill="none" stroke="#000000" stroke-miterlimit="10" points="-587.5,285 -371.5,285 -371.5,506 -587.5,506 -587.5,285 	
		"/>
	<line fill="none" stroke="#000000" stroke-miterlimit="10" x1="-587.5" y1="285" x2="-371.5" y2="506"/>
	<line fill="none" stroke="#000000" stroke-miterlimit="10" x1="-371.5" y1="285" x2="-587.5" y2="506"/>
</g>
<g>
	<polyline fill="none" stroke="#000000" stroke-miterlimit="10" points="1325.5,60 1540.5,60 1540.5,281 1325.5,281 1325.5,60 	"/>
	<line fill="none" stroke="#000000" stroke-miterlimit="10" x1="1325.5" y1="60" x2="1540.5" y2="281"/>
	<line fill="none" stroke="#000000" stroke-miterlimit="10" x1="1540.5" y1="60" x2="1325.5" y2="281"/>
</g>
<g>
	<polyline fill="none" stroke="#000000" stroke-miterlimit="10" points="1100.5,60 1315.5,60 1315.5,281 1100.5,281 1100.5,60 	"/>
	<line fill="none" stroke="#000000" stroke-miterlimit="10" x1="1100.5" y1="60" x2="1315.5" y2="281"/>
	<line fill="none" stroke="#000000" stroke-miterlimit="10" x1="1315.5" y1="60" x2="1100.5" y2="281"/>
</g>
<g>
	<polyline fill="none" stroke="#000000" stroke-miterlimit="10" points="875.5,60 1090.5,60 1090.5,281 875.5,281 875.5,60 	"/>
	<line fill="none" stroke="#000000" stroke-miterlimit="10" x1="875.5" y1="60" x2="1090.5" y2="281"/>
	<line fill="none" stroke="#000000" stroke-miterlimit="10" x1="1090.5" y1="60" x2="875.5" y2="281"/>
</g>
<g>
	<polyline fill="none" stroke="#000000" stroke-miterlimit="10" points="650.5,60 865.5,60 865.5,281 650.5,281 650.5,60 	"/>
	<line fill="none" stroke="#000000" stroke-miterlimit="10" x1="650.5" y1="60" x2="865.5" y2="281"/>
	<line fill="none" stroke="#000000" stroke-miterlimit="10" x1="865.5" y1="60" x2="650.5" y2="281"/>
</g>
<g>
	<polyline fill="none" stroke="#000000" stroke-miterlimit="10" points="425.5,60 640.5,60 640.5,281 425.5,281 425.5,60 	"/>
	<line fill="none" stroke="#000000" stroke-miterlimit="10" x1="425.5" y1="60" x2="640.5" y2="281"/>
	<line fill="none" stroke="#000000" stroke-miterlimit="10" x1="640.5" y1="60" x2="425.5" y2="281"/>
</g>
<g>
	<polyline fill="none" stroke="#000000" stroke-miterlimit="10" points="200.5,60 415.5,60 415.5,281 200.5,281 200.5,60 	"/>
	<line fill="none" stroke="#000000" stroke-miterlimit="10" x1="200.5" y1="60" x2="415.5" y2="281"/>
	<line fill="none" stroke="#000000" stroke-miterlimit="10" x1="415.5" y1="60" x2="200.5" y2="281"/>
</g>
<g>
	<polyline fill="none" stroke="#000000" stroke-miterlimit="10" points="-24.5,60 190.5,60 190.5,281 -24.5,281 -24.5,60 	"/>
	<line fill="none" stroke="#000000" stroke-miterlimit="10" x1="-24.5" y1="60" x2="190.5" y2="281"/>
	<line fill="none" stroke="#000000" stroke-miterlimit="10" x1="190.5" y1="60" x2="-24.5" y2="281"/>
</g>
<g>
	<polyline fill="none" stroke="#000000" stroke-miterlimit="10" points="-249.5,60 -34.5,60 -34.5,281 -249.5,281 -249.5,60 	"/>
	<line fill="none" stroke="#000000" stroke-miterlimit="10" x1="-249.5" y1="60" x2="-34.5" y2="281"/>
	<line fill="none" stroke="#000000" stroke-miterlimit="10" x1="-34.5" y1="60" x2="-249.5" y2="281"/>
</g>
<g>
	<polyline fill="none" stroke="#000000" stroke-miterlimit="10" points="-474.5,60 -259.5,60 -259.5,281 -474.5,281 -474.5,60 	"/>
	<line fill="none" stroke="#000000" stroke-miterlimit="10" x1="-474.5" y1="60" x2="-259.5" y2="281"/>
	<line fill="none" stroke="#000000" stroke-miterlimit="10" x1="-259.5" y1="60" x2="-474.5" y2="281"/>
</g>
<g>
	<polyline fill="none" stroke="#000000" stroke-miterlimit="10" points="-812.5,285 -596.5,285 -596.5,506 -812.5,506 -812.5,285 	
		"/>
	<line fill="none" stroke="#000000" stroke-miterlimit="10" x1="-812.5" y1="285" x2="-596.5" y2="506"/>
	<line fill="none" stroke="#000000" stroke-miterlimit="10" x1="-596.5" y1="285" x2="-812.5" y2="506"/>
</g>
<g>
	<polyline fill="none" stroke="#000000" stroke-miterlimit="10" points="-699.5,60 -484.5,60 -484.5,281 -699.5,281 -699.5,60 	"/>
	<line fill="none" stroke="#000000" stroke-miterlimit="10" x1="-699.5" y1="60" x2="-484.5" y2="281"/>
	<line fill="none" stroke="#000000" stroke-miterlimit="10" x1="-484.5" y1="60" x2="-699.5" y2="281"/>
</g>
<g>
	<polyline fill="none" stroke="#000000" stroke-miterlimit="10" points="-980.5,510 -765.5,510 -765.5,731 -980.5,731 -980.5,510 	
		"/>
	<line fill="none" stroke="#000000" stroke-miterlimit="10" x1="-980.5" y1="510" x2="-765.5" y2="731"/>
	<line fill="none" stroke="#000000" stroke-miterlimit="10" x1="-765.5" y1="510" x2="-980.5" y2="731"/>
</g>
<g>
	<polyline fill="none" stroke="#000000" stroke-miterlimit="10" points="-1037.5,285 -821.5,285 -821.5,506 -1037.5,506 
		-1037.5,285 	"/>
	<line fill="none" stroke="#000000" stroke-miterlimit="10" x1="-1037.5" y1="285" x2="-821.5" y2="506"/>
	<line fill="none" stroke="#000000" stroke-miterlimit="10" x1="-821.5" y1="285" x2="-1037.5" y2="506"/>
</g>
<g>
	<polyline fill="none" stroke="#000000" stroke-miterlimit="10" points="-924.5,60 -709.5,60 -709.5,281 -924.5,281 -924.5,60 	"/>
	<line fill="none" stroke="#000000" stroke-miterlimit="10" x1="-924.5" y1="60" x2="-709.5" y2="281"/>
	<line fill="none" stroke="#000000" stroke-miterlimit="10" x1="-709.5" y1="60" x2="-924.5" y2="281"/>
</g>
<g>
	<polyline fill="none" stroke="#000000" stroke-miterlimit="10" points="-1149.5,60 -934.5,60 -934.5,281 -1149.5,281 -1149.5,60 	
		"/>
	<line fill="none" stroke="#000000" stroke-miterlimit="10" x1="-1149.5" y1="60" x2="-934.5" y2="281"/>
	<line fill="none" stroke="#000000" stroke-miterlimit="10" x1="-934.5" y1="60" x2="-1149.5" y2="281"/>
</g>
<g>
	<polyline fill="none" stroke="#000000" stroke-miterlimit="10" points="1662.5,286 1986.5,286 1986.5,506 1662.5,506 1662.5,286 	
		"/>
	<line fill="none" stroke="#000000" stroke-miterlimit="10" x1="1662.5" y1="286" x2="1986.5" y2="506"/>
	<line fill="none" stroke="#000000" stroke-miterlimit="10" x1="1986.5" y1="286" x2="1662.5" y2="506"/>
</g>
<g>
	<polyline fill="none" stroke="#000000" stroke-miterlimit="10" points="-1374.5,61 -1159.5,61 -1159.5,282 -1374.5,282 -1374.5,61 
			"/>
	<line fill="none" stroke="#000000" stroke-miterlimit="10" x1="-1374.5" y1="61" x2="-1159.5" y2="282"/>
	<line fill="none" stroke="#000000" stroke-miterlimit="10" x1="-1159.5" y1="61" x2="-1374.5" y2="282"/>
</g>
<g>
	<polyline fill="none" stroke="#000000" stroke-miterlimit="10" points="-1146.5,-386 -822.5,-386 -822.5,-166 -1146.5,-166 
		-1146.5,-386 	"/>
	<line fill="none" stroke="#000000" stroke-miterlimit="10" x1="-1146.5" y1="-386" x2="-822.5" y2="-166"/>
	<line fill="none" stroke="#000000" stroke-miterlimit="10" x1="-822.5" y1="-386" x2="-1146.5" y2="-166"/>
</g>
<g>
	<polyline fill="none" stroke="#000000" stroke-miterlimit="10" points="-1373.5,-387 -1158.5,-387 -1158.5,-167 -1373.5,-167 
		-1373.5,-387 	"/>
	<line fill="none" stroke="#000000" stroke-miterlimit="10" x1="-1373.5" y1="-387" x2="-1158.5" y2="-167"/>
	<line fill="none" stroke="#000000" stroke-miterlimit="10" x1="-1158.5" y1="-387" x2="-1373.5" y2="-167"/>
</g>
<g>
	<polyline fill="none" stroke="#000000" stroke-miterlimit="10" points="-815.5,-389 -600.5,-389 -600.5,-168 -815.5,-168 
		-815.5,-389 	"/>
	<line fill="none" stroke="#000000" stroke-miterlimit="10" x1="-815.5" y1="-389" x2="-600.5" y2="-168"/>
	<line fill="none" stroke="#000000" stroke-miterlimit="10" x1="-600.5" y1="-389" x2="-815.5" y2="-168"/>
</g>
<g>
	<polyline fill="none" stroke="#000000" stroke-miterlimit="10" points="-590.5,-389 -375.5,-389 -375.5,-168 -590.5,-168 
		-590.5,-389 	"/>
	<line fill="none" stroke="#000000" stroke-miterlimit="10" x1="-590.5" y1="-389" x2="-375.5" y2="-168"/>
	<line fill="none" stroke="#000000" stroke-miterlimit="10" x1="-375.5" y1="-389" x2="-590.5" y2="-168"/>
</g>
<g>
	<path fill-rule="evenodd" clip-rule="evenodd" d="M-1070.9,135h51c-3.4,11.4-8.4,21.4-14.5,30.2c-8.1-5.4-17.1-10.6-25.7-14.9
		l-4.5,5.3c8.7,4.5,17.6,9.9,25.9,15.4c-10.4,13.3-24.5,24.2-39.3,31.1c1.7,1.5,3.8,3.8,5.2,5.6c15.1-7.7,29-18.5,40-32.5
		c7.4,5.2,13.9,10.5,18.9,15.2l4.9-6.1c-5-4.7-11.7-9.9-19.3-15.1c7.5-10.8,13.6-23.8,17.7-37.2c0.6-0.26,1.1-0.62,1.3-0.97
		l-6.1-2.83l-1.3,0.8h-54.2V135z"/>
</g>
<g>
	<path fill-rule="evenodd" clip-rule="evenodd" d="M-1296,187v-47h56v47H-1296z M-1303,134v65.5h7V193h56v6.3h7V134H-1303z"/>
</g>
<g>
	<path fill-rule="evenodd" clip-rule="evenodd" d="M-830.3,608h-34.28c0.39-6.42,0.48-13.35,0.58-21c1.3-0.22,2-0.86,2.1-1.84
		l-3.27-0.31c7.87-1.9,16.77-4.5,22.37-6.6c0.4,0.1,0.7,0.1,1.1,0.1c0.5,0,0.9-0.1,1.3-0.3l-5.3-5.9c-6.2,2.7-26.7,9.6-61.8,13.88
		c0.9,1.99,1.6,4.03,2.1,5.96c11-1.22,24.2-3.46,34.4-5.85c-0.1,8.2-0.1,15.13-0.6,21.86h-41.3v6h40.8c-2.1,17.6-8.6,30-26.6,39.8
		c1.7,1.3,4.1,3.2,5.6,4.8c19.4-11,25.79-25.4,27.93-44.6h34.87V608z"/>
</g>
<g>
	<path fill-rule="evenodd" clip-rule="evenodd" d="M-901.42,361.6l-1.4,0.4h-33.34c1.91-3.7,4.21-8.6,5.62-11.9
		c1.31,0.1,2.31-0.2,2.71-1.3l-9.54-2.2c-6.02,16.92-18.47,34.4-31.63,44.4c1.71,1.1,4.42,3.3,5.72,4.5
		c8.84-7.2,17.08-17.3,23.2-27.5h34.04c-2.81,9.6-6.93,18.3-12.15,26.5c-7.73-4.1-15.26-7.5-22.59-10.1l-3.82,5.6
		c7.43,2.8,14.76,6.3,22.19,10.4c-9.13,11.9-20.88,22-35.54,28.8c1.8,1.1,4.41,3.5,5.52,5.2c15.16-7.3,27.01-17.6,36.25-30.4
		c4.22,2.6,9.34,5.9,12.95,8.7l4.22-6.6c-3.71-2.7-8.63-5.8-12.95-8.3c6.02-9.3,11.04-20.7,14.76-32.76c0.6-0.17,1.1-0.53,1.2-0.98
		L-901.42,361.6z"/>
</g>
<g>
	<path fill-rule="evenodd" clip-rule="evenodd" d="M-664,379h-80v6h38.71c-2.29,18.4-8.06,32.4-28.76,42.4c1.69,1.3,4.18,3.7,5.37,5
		c21.3-10.5,28.06-27.1,30.75-45.7c1.09-0.1,1.79-0.6,1.99-1.2l-1.69-0.5H-664V379z M-673.85,351h-61.09v6h61.09V351z"/>
</g>
<g>
	<path fill-rule="evenodd" clip-rule="evenodd" d="M-800.9,810.82c3.8,7.82,8,19.75,9.4,26.77l6.7-2.21
		c-1.4-7.21-5.8-19.24-9.6-26.66L-800.9,810.82z M-729,806.91c-9.9,36.49-25.6,56.64-56.1,69.58c1.5,1.4,3.8,4.11,4.8,5.51
		c31.2-13.73,47.6-35.39,58.1-70.78c1.3,0,2.3-0.4,2.6-1.3L-729,806.91z M-769.7,804.21c2.4,8.42,4.6,20.45,5.2,28.37l7-1.11
		c-0.49-7.72-2.96-20.15-5.22-28.47L-769.7,804.21z"/>
</g>
<g>
	<path fill-rule="evenodd" clip-rule="evenodd" d="M-463.5,606.09c8.79,2.01,20.28,6.03,26.87,9.25l3-6.33
		c-6.7-3.22-17.88-7.05-26.87-9.06L-463.5,606.09z M-448.92,657c0.9-0.4,1.4-1.61,1.2-2.52c30.57-10.96,53.84-29.58,67.22-59.46
		c-1.49-1.01-4.59-3.12-6.09-4.43c-13.28,30.19-35.46,47.59-67.92,58.56L-448.92,657z M-452.51,580.83
		c8.99,2.52,19.37,6.54,26.47,10.17l3.29-6.14c-6.79-3.42-17.78-7.45-26.77-9.86L-452.51,580.83z"/>
</g>
<g>
	<path fill-rule="evenodd" clip-rule="evenodd" d="M-618.4,617.8c-10.4-5.5-25.9-12.4-37.6-16.7l-1.5,2.1V574
		c1.7-0.25,2.5-0.83,2.6-1.75l-10.6-0.55v86.51h8V608.2c10.9,4.3,24.9,10.8,35.1,16.3L-618.4,617.8z"/>
</g>
<g>
	<path fill-rule="evenodd" clip-rule="evenodd" d="M-597.82,147.1c-2.41,24.1-9.72,45-30.17,56.2c1.9,1.1,4.51,3.4,5.91,4.6
		c20.65-11.9,28.77-34.4,31.68-58c1.3-0.2,2.2-0.9,2.3-1.7L-597.82,147.1z M-555.32,127.5l-1.1,0.5H-632v6h71.77
		c-3.31,8.4-10.73,18.1-19.95,24.8c1.81,1,4.61,2.8,6.12,4.1c9.72-8.1,18.34-19.2,23.75-31.64c0.5-0.17,1.1-0.44,1.31-0.79
		L-555.32,127.5z"/>
</g>
<g>
	<path fill-rule="evenodd" clip-rule="evenodd" d="M-348.5,810.18c6.67,8.15,13.75,20.59,16.54,28.44l6.87-3.48
		c-3.09-8.05-10.16-20.09-17.13-28.25L-348.5,810.18z M-282.06,805c-9.46,38-27.89,58.69-55.28,70.73c1.69,1.29,3.98,3.78,5.08,5.27
		c27.99-12.73,47.11-34.52,57.17-71.62c1.6,0,2.29-0.4,2.59-1.29L-282.06,805z"/>
</g>
<g>
	<path fill-rule="evenodd" clip-rule="evenodd" d="M-785.14,131.1l-1.41,0.9H-855v6h65.83c-6.04,30.3-25.16,52.6-56.37,62.7
		c1.31,1.4,3.53,4.1,4.63,5.8c32.92-11.5,52.65-34,60.6-71.54c0.61-0.18,1.01-0.54,1.31-0.99L-785.14,131.1z"/>
</g>
<g>
	<path fill-rule="evenodd" clip-rule="evenodd" d="M-445.8,348c-16.1,17.64-45.7,38.96-73,51.52c1.4,1.39,3.2,3.89,4.2,5.48
		c13.7-6.68,27.5-14.75,38.1-22.22V434h7v-53c1.1-0.08,2-0.58,2.2-1.08c-0.4-0.17-1.6-0.67-2.39-0.92c9.69-7,20.79-16.1,28.49-23.9
		c0.4,0.1,0.7,0.1,1,0.1c0.9,0,1.5-0.3,1.9-0.8L-445.8,348z"/>
</g>
<g>
	<path fill-rule="evenodd" clip-rule="evenodd" d="M-492.1,821H-513v-21c1.6-0.18,2.4-0.91,2.5-1.73l-9.5-0.57V821h-32v-20
		c1.49-0.17,2.38-0.92,2.48-1.75l-9.48-0.55V821h-19.6v6h19.6v24.9h7V827h32v7c0,16.4-4.66,34.2-29.82,45.2
		c1.78,1.4,3.86,3.4,5.15,5C-518.82,872.4-513,853-513,833.9V827h20.9V821z"/>
</g>
<g>
	<path fill-rule="evenodd" clip-rule="evenodd" d="M728.21,573c-14.28,38.68-39.05,64.6-66.21,79.67c2,1.41,4.39,3.82,5.59,5.33
		c27.77-15.67,52.43-42.4,67.61-80.08c1.2,0.1,2.3-0.2,2.8-1.21L728.21,573z"/>
</g>
<g>
	<path fill-rule="evenodd" clip-rule="evenodd" d="M908,626.8V580c1.6-0.19,2.3-0.86,2.4-1.71l-9.4-0.53v48.44L908,626.8z
		 M947,573.7v34.1c0,18.5-6.2,35.6-33.9,45.9c1.7,1.3,4.2,3.9,5.2,5.4C947,648,954,628.8,954,607.8V576c1.6-0.2,2.3-0.7,2.4-1.7
		L947,573.7z"/>
</g>
<g>
	<path fill-rule="evenodd" clip-rule="evenodd" d="M1361.19,596c3.01-6,6.42-13.6,8.53-19.8c1.61,0,2.51-0.8,2.71-1.5l-9.63-2.2
		c-4.82,18.6-16.46,37.3-27.3,46.6c2.01,0.9,4.82,2.4,6.32,3.5c5.42-5,11.24-12.4,15.86-20.6h27.9c-2.51,22.4-12.04,41.2-32.62,52.3
		c1.91,1.2,4.62,3,6.22,4.5c21.18-12.2,30.61-32.4,33.62-55.6c0.91-0.1,1.51-0.6,1.81-1.2h24.89v-6H1361.19z"/>
</g>
<g>
	
		<path fill-rule="evenodd" clip-rule="evenodd" stroke="#000000" stroke-linecap="round" stroke-linejoin="round" stroke-miterlimit="10" d="
		M1871,426.3c-5.08-10.5-17.06-29.5-27.53-41l-5.99,3.4c5.99,6.7,12.57,15.8,17.76,24.4c-13.17,1.2-36.82,2.9-53.38,3.6
		c6.88-19.6,15.47-46.4,20.95-64.8c1.5,0,2.5-0.5,2.9-1.4l-9.68-2.6c-5.49,20-14.971,49.9-21.55,69.1
		c-3.89,0.19-7.49,0.28-10.48,0.38l2.69,8.62c0.9-0.2,1.6-1,1.9-2c15.27-0.76,49.39-2.74,70.14-4.82c2,3.4,3.79,6.92,5.29,10.32
		L1871,426.3z"/>
</g>
<g>
	<path fill-rule="evenodd" clip-rule="evenodd" d="M1130.4,365.58l-1.1,0.81l-42.3,11.04V351c1.4-0.18,2.3-0.73,2.5-1.82l-9.5-0.38
		v30.55l-26.9,6.79l1.7,6.78l25.2-6.58v24.5c0,13.88,8.2,19.16,20.8,19.16h16.7c3.8,0,10.8-0.27,14.8-0.72
		c-0.1-1.88-0.2-4.3-0.2-6.39c-3.899,0.5-10.8,1.11-14.899,1.11h-16.3c-8,0-13.9-3.34-13.9-13.26v-26.22l38.3-10.13
		c-3.3,8.1-9.5,18.22-17.1,25.11c1.899,1.01,4.5,2.53,6,3.64c8.5-8.3,16.399-22.07,20.899-33c0.7-0.3,1.3-0.71,1.601-1.22
		L1130.4,365.58z"/>
</g>
<g>
	<path fill-rule="evenodd" clip-rule="evenodd" d="M1184.3,162.48c-4,12.05-10.9,21.85-18.1,28.9l5.8,3.88
		c7.7-7.66,14.3-18.38,18.9-30.33L1184.3,162.48z M1224.2,165.13c6.7,7.76,15.5,20.84,20.399,30.23l6.4-3.78
		c-5.4-9.49-13.8-21.44-21.1-29.72L1224.2,165.13z M1245.8,149v-6H1212v-19c1.5-0.09,2.2-0.84,2.3-1.77l-9.3-0.48V143h-34v6h34
		v48.71c0,2.45-1.3,4.29-4.1,4.29c-1.1,0-12.3,0.09-14.6,0c1,1.82,1.8,4.36,2.2,6c14.9,0.2,23.5,0.3,23.5-10.39V149H1245.8z"/>
</g>
<g>
	<path fill-rule="evenodd" clip-rule="evenodd" d="M1130.5,577c2-0.16,2.9-0.9,3-1.8l-10-0.45V648l-1.2,1.9l4.08,7
		c0.76-0.3,1.34-1.2,1.53-2c29.99-7.9,52.29-21.3,65.79-44.3c-1.5-1.2-4-3.3-5.3-5c-12.3,21.8-32.5,34-57.9,41.1V577z"/>
</g>
<g>
	<path fill-rule="evenodd" clip-rule="evenodd" d="M1392.22,177.4c0.6-0.5,1-1.3,1-2.1c0-0.2,0-0.5-0.1-0.7
		c6.72-7.2,20.27-22.9,24.979-28c2.21-2.1,3.92-3.6,5.22-3.6c1.91,0,3.31,1.5,5.72,3.9c10.03,9.2,30.1,32.1,44.95,51.6l6.01-5.5
		c-15.65-19.6-35.51-41.5-47.35-52.35c-3.91-3.73-6.22-5.65-9.63-5.65c-3.01,0-5.62,1.71-8.93,5.23
		c-5.72,6.27-20.47,22.77-28.09,30.77L1392.22,177.4z"/>
</g>
<g>
	
		<path fill-rule="evenodd" clip-rule="evenodd" stroke="#000000" stroke-linecap="square" stroke-linejoin="round" stroke-miterlimit="10" d="
		M976.27,111.36l-0.96,0.64h-48.12v5h46.61c-0.8,6.4-2.229,11.98-3.75,17H925.2v5h42.86c-6.29,15.68-19.2,25.84-35.13,31.92
		c1.11,1.2,3.18,3.52,3.9,4.64c20.56-8.24,39.2-23.12,43.26-61.17c0.48-0.15,0.88-0.45,1.11-0.9L976.27,111.36z"/>
</g>
<g>
	<path fill-rule="evenodd" clip-rule="evenodd" d="M902.11,376.37l-1,0.63H832v6h66.11c-6.29,23.2-23.17,37.2-50.33,44
		c1.399,1.5,3.3,4,4.189,5.8c29.87-8.3,46.54-23,54.73-52.8c0.6-0.18,1.1-0.53,1.3-0.88L902.11,376.37z M898.61,351h-56.92v6h56.92
		V351z"/>
</g>
<g>
	
		<path fill-rule="evenodd" clip-rule="evenodd" stroke="#000000" stroke-linecap="square" stroke-linejoin="round" stroke-miterlimit="10" d="
		M1037.3,167.36l-0.88,0.64H983.9v27.08h5V173h45.68c-2.64,26.24-12.64,41.44-38.16,51.84c1.36,1.2,2.96,2.96,4,4.32
		c26.72-10.8,37.36-27.6,40.48-58.66c0.4-0.15,0.8-0.44,1.04-0.74L1037.3,167.36z"/>
</g>
<g>
	
		<polygon fill-rule="evenodd" clip-rule="evenodd" stroke="#000000" stroke-width="2" stroke-linecap="square" stroke-linejoin="round" stroke-miterlimit="10" points="
		1287.8,387.56 1287.8,333 1310.28,333 1310.28,329 1283.8,329 1283.8,387.56 	"/>
</g>
<g>
	
		<path fill-rule="evenodd" clip-rule="evenodd" stroke="#000000" stroke-width="2" stroke-linecap="square" stroke-linejoin="round" stroke-miterlimit="10" d="
		M1314,391.26c3.42,3.15,6.52,7.59,7.95,10.74l2.86-1.86c-1.75-3.71-4.45-7.42-8.35-10.73L1314,391.26z M1322.11,385.78
		c3.5,3.14,6.52,7.66,8.03,10.81l2.86-1.94c-1.75-3.63-4.45-7.26-8.35-10.65L1322.11,385.78z"/>
</g>
<g>
	<path fill-rule="evenodd" clip-rule="evenodd" d="M765.2,835.75c5.28,4.78,13.33,13.15,17.27,18.25l4.73-4.38
		c-4.26-5.03-11.98-12.92-17.82-17.62L765.2,835.75z"/>
</g>
<g>
	<path fill-rule="evenodd" clip-rule="evenodd" d="M850.56,877.32c7.68,4.08,17.6,10.56,22.96,15.04l4.08-4.32
		c-5.76-4.56-15.359-10.56-23.359-14.44L850.56,877.32z M862.64,851.44l-0.88,0.56H816.6v5h39.8
		c-10.94,12.65-28.68,24.24-48.04,31.44c0.64,0.64,3.28,3.92,3.68,4.48c9.84-3.92,20.4-9.6,28.56-15.2v27.76h5V875
		c1.04-0.06,1.601-0.56,1.76-0.88l-1.28-0.28c7.36-5.61,14.24-12.41,19.36-18.69c0.72-0.07,1.2-0.3,1.44-0.69L862.64,851.44z
		 M856.64,843.44c-7.28-3.52-17.399-7.36-25.96-9.44l-2.64,4.64c8.48,2.4,18.68,6,25.64,9.68L856.64,843.44z"/>
</g>
<g>
	
		<path fill-rule="evenodd" clip-rule="evenodd" stroke="#000000" stroke-width="2" stroke-linecap="square" stroke-linejoin="round" stroke-miterlimit="10" d="
		M1001.16,851c-4.96,0-8.96-3.78-8.96-8.46c0-4.76,4-8.54,8.96-8.54c5.04,0,9.04,3.78,9.04,8.54
		C1010.2,847.06,1006.38,851,1001.16,851z M1001.16,831c-6.7,0-10.96,5.22-10.96,11.54s4.26,11.46,10.96,11.46
		c6.689,0,11.04-5.14,11.04-11.46C1012.2,836.38,1008.03,831,1001.16,831z"/>
</g>
<g>
	<path fill-rule="evenodd" clip-rule="evenodd" d="M1046,847.65c-0.24,21.79-1.68,41.79-13.6,54.75c1.6,0.88,3.52,2.08,4.8,3.04
		c12.51-14.32,14.36-33.92,14.86-55.44c1.1-0.19,1.86-0.74,1.94-1.58L1046,847.65z M1074,840c1.12-0.19,1.68-0.93,1.76-1.77
		l-6.76-0.43v59.16l-0.88,1.2l3.77,5.28c0.49-0.32,0.98-0.96,1.19-1.6c16.92-8.08,26.84-20,32.52-36.16
		c-1.359-0.72-3.76-2.08-4.96-3.12c-4.64,14-13.28,25.68-26.64,32.16V840z"/>
</g>
<g>
	<path fill-rule="evenodd" clip-rule="evenodd" d="M1234,809c-4.43,0-8,3.57-8,8s3.57,8,8,8c4.43,0,8-3.57,8-8
		C1242,812.73,1238.58,809,1234,809z"/>
</g>
<g>
	<path fill-rule="evenodd" clip-rule="evenodd" d="M1272.81,857.97c7.48,3.34,15.21,7.39,22.45,11.68
		c-7.88,10.96-20.06,22.8-33.36,31.38c1.35,0.87,3.58,2.78,4.54,3.97c13.53-8.98,25.48-20.81,33.68-32.49
		c6.61,4.21,12.58,8.58,16.96,12.39l3.82-5c-4.86-4.13-11.23-8.42-17.36-12.24c5.34-8.1,10.51-18.11,14.17-26.53
		c1.44,0.16,2.55-0.24,2.87-0.95l-7.8-3.18c-3.98,10.09-9.24,20.1-14.33,27.73c-7.25-4.21-15.13-8.19-22.62-11.44L1272.81,857.97z"
		/>
</g>
<g>
	
		<polygon fill-rule="evenodd" clip-rule="evenodd" stroke="#000000" stroke-width="2" stroke-linecap="square" stroke-linejoin="round" stroke-miterlimit="10" points="
		1519.2,345.52 1519.2,400 1496.72,400 1496.72,404 1523.2,404 1523.2,345.52 	"/>
</g>
<g>
	
		<path fill-rule="evenodd" clip-rule="evenodd" stroke="#000000" stroke-width="2" stroke-linecap="square" stroke-linejoin="round" stroke-miterlimit="10" d="
		M1547.46,386c3.61,0,6.54,2.93,6.54,6.46c0,3.6-2.93,6.54-6.54,6.54c-3.52,0-6.46-2.94-6.46-6.54
		C1541,389.1,1543.77,386,1547.46,386z M1556,392.46c0-5.04-3.51-8.46-8.54-8.46s-8.46,3.42-8.46,8.46c0,5.03,3.43,8.54,8.46,8.54
		C1552.32,401,1556,397.66,1556,392.46z"/>
</g>
<g>
	<polygon fill-rule="evenodd" clip-rule="evenodd" points="725.1,130 725.1,136 779.5,136 779.5,162 727.4,162 727.4,168 779.5,168 
		779.5,195 722.3,195 722.3,201 779.5,201 779.5,206.7 786.5,206.7 786.5,130 	"/>
</g>
<g>
	<path fill-rule="evenodd" clip-rule="evenodd" d="M282.82,587.4l-1.2,0.6h-35.11c2.3-4,4.39-8.2,6.39-12.6
		c1.29,0,2.49-0.3,2.89-1.3l-9.48-2.7c-6.78,17.5-18.25,32.2-31.81,42.7c2,1.3,4.29,3.2,5.69,4.6c8.87-7,16.55-15.7,22.34-24.7h35.6
		c-8.28,26.5-24.44,46.5-50.56,59.2c1.99,1.5,3.88,3.8,5.08,5.5c27.53-14,43.88-34.8,54.36-66.94c0.59-0.36,1.09-0.8,1.49-1.25
		L282.82,587.4z"/>
</g>
<g>
	<path fill-rule="evenodd" clip-rule="evenodd" d="M604,415v6h83v-6H604z M614.66,360v7h62.479v-7H614.66z"/>
</g>
<g>
	<path fill-rule="evenodd" clip-rule="evenodd" d="M550,192.1c1.9-14.07,5.3-42.31,6.5-55.28c0.8-0.17,1.4-0.53,1.6-0.97l-5.5-2.35
		l-1.4,0.5H501v6h47.5c-1.1,13.87-4,39.05-5.9,52h-52.4v7H574v-6.9H550z"/>
</g>
<g>
	<path fill-rule="evenodd" clip-rule="evenodd" d="M-91.8,872c-10.3,0-15.2-3.8-15.2-13.9v-16.7c17.2-5.2,40-13.6,52.1-19.7
		c0.5,0.2,0.9,0.3,1.4,0.3c0.4,0,0.9-0.1,1.2-0.3l-5.1-6.9C-70.7,822-91.8,830-107,834.6V802c1.8-0.19,2.5-0.76,2.7-1.71l-9.7-0.59
		v58.2c0,14.28,7.2,20.1,22.3,20.1h25c4.1,0,14.1-0.35,20.7-0.97c-0.2-1.94-0.3-4.41-0.4-6.53c-6.3,1-17,1.4-21,1.5H-91.8z"/>
</g>
<g>
	<path fill-rule="evenodd" clip-rule="evenodd" d="M515.09,583.4l-1.21,0.6H435v6h73.57c-7.92,11.6-21.65,24.5-35.18,34.1
		c-7.22-5.5-15.24-10.8-22.35-14.8l-4.81,5.1c16.94,9.9,36.68,26.4,47.21,38.7l6.11-5.3c-5.11-5.6-12.83-13.3-20.55-19.5
		c15.44-11.1,31.18-26,40.5-39.98c0.7-0.17,1.2-0.44,1.5-0.88L515.09,583.4z"/>
</g>
<g>
	<path fill-rule="evenodd" clip-rule="evenodd" d="M629.3,841v-6H584v-26h35.8v-6h-64.2v6H577v26h-28.6v6H577v22.96
		c0,9.31,4.18,15.04,16.3,15.04h18.9c3.4,0,9.1-0.09,12.3-0.54c0-1.34-0.1-4.39-0.2-6.17c-3.3,0.51-8.6,0.71-12.1,0.71h-18.4
		c-7.3,0-9.8-3.66-9.8-9.04V841H629.3z"/>
</g>
<g>
	<path fill-rule="evenodd" clip-rule="evenodd" d="M462.3,372h-35.77c0.38-7.15,0.38-15.09,0.47-24c1.4-0.19,2.3-0.76,2.4-1.71
		l-9.4-0.59c0,9.84-0.1,18.66-0.4,26.3h-40.4v7h40.1c-1.9,23.7-8,37.4-28.7,48.9c1.9,1.4,4.3,3.3,5.7,4.9
		c21.8-12.5,28.05-28.1,29.85-53.8h36.15V372z"/>
</g>
<g>
	<path fill-rule="evenodd" clip-rule="evenodd" d="M344.69,137.2l-0.91,0.6l-43.05,8.1l-4.22-22.9c1.61-0.5,2.41-1.3,2.31-2.4
		l-10.13,0.8l4.91,25.9l-29.1,5.5l1.41,6.7l29-5.5l10.03,53.51l7.23-1.3l-10.14-53.61l37.54-7.2c-3.82,9.4-10.74,20.6-18.67,27.5
		c1.71,1,4.42,2.8,5.92,4.2c9.23-8.7,17.77-22.1,22.28-35.2c0.6-0.2,1.21-0.5,1.4-1L344.69,137.2z"/>
</g>
<g>
	<path fill-rule="evenodd" clip-rule="evenodd" d="M165.66,432c0.7-0.4,1.29-1.4,1.39-2.3c33.73-11.28,58.01-32.55,70.45-59.92
		c-2.09-1.1-4.38-2.39-6.47-4.09c-11.94,27.66-35.42,47.53-70.74,58.52L165.66,432z M157.5,360.99c10.15,3.5,21.89,8.79,29.06,13.88
		l3.78-6.29c-7.37-5.09-19.31-10.28-29.66-13.58L157.5,360.99z"/>
</g>
<g>
	<path fill-rule="evenodd" clip-rule="evenodd" d="M330,868.18c22.07,2.6,48.75,8.91,63,14.82l3-7.01
		c-15.74-6.21-41.52-11.91-63.59-14.42L330,868.18z M338.33,837.74c16.25,1.6,36.51,5.41,48.25,9.41l2.3-7
		c-12.44-3.81-32.5-7.61-48.45-9.22L338.33,837.74z M338.53,806.7c17.05,1.9,38.32,5.81,52.16,11.02l2.91-7.01
		c-13.84-4.91-35.71-8.91-52.77-10.71L338.53,806.7z"/>
</g>
<g>
	<path fill-rule="evenodd" clip-rule="evenodd" d="M125.2,142H94.6l-0.2-19c1.4-0.19,2.4-0.76,2.5-1.81l-9.5-0.39l0.2,21.2H43.7v6
		h39.8c-10.2,15.61-27.4,31.52-43.7,40.64c1.8,1.52,3.7,3.65,4.9,5.47c16.8-9.73,33.4-25.54,43.6-40.74l0.4,43.78
		c0.1,1.82-1.1,3.44-3.5,3.75c-1.8,0.19-9.7,0.19-16.3,0.1c0.8,1.75,1.5,4.34,1.8,6c18.4,0.2,25.2-0.09,25-9.75L95.3,148h29.9V142z"
		/>
</g>
<g>
	<path fill-rule="evenodd" clip-rule="evenodd" d="M69,622l-0.9-6.6l-37.46,4.7l-2.59-22.4l30.29-3.9l-0.8-6.8l-30.29,4l-1.79-17
		c1.39-0.4,2.29-1.2,2.29-2.2l-9.77,0.4l2.2,19.8l-31.39,4l0.9,6.7l31.28-4.1l2.59,22.5L-14,625.9l0.9,6.6l37.36-4.8l3.49,31.31
		l7.17-0.8l-3.58-31.41L69,622z"/>
</g>
<g>
	<polygon fill-rule="evenodd" clip-rule="evenodd" points="104,811 104,817 166,817 166,866 103,866 103,872 166,872 166,877.5 
		173,877.5 173,811 	"/>
</g>
<g>
	<path fill-rule="evenodd" clip-rule="evenodd" d="M2.3,368.37L0.7,369h-32.28c1.04-6.67,1.51-12.4,2.08-20
		c1.5-0.09,2.4-0.64,2.5-1.64l-9.5-0.76c-0.5,8.34-1.1,15-2.3,22.4h-29v6h27.6c-4.8,23.21-13.9,40.62-31.2,53.84
		c1.9,1.22,4.5,3.15,5.7,4.46c18.1-13.81,28-33.97,32.79-58.3H-1.1c-1,22.91-3.5,40.01-6.5,46.22c-2.1,3.86-4.1,4.78-7.7,4.78
		c-2.3,0-10-0.81-17.32-2.54c0.28,2.13,0.47,5.18,0.28,7.21C-25.6,432.09-18.5,433-14.6,433c3.3,0,9.1-0.3,13.1-7.31
		c3.9-7.22,6.7-25.65,8-54.45c0.5-0.36,0.7-0.81,0.9-1.17L2.3,368.37z"/>
</g>
<g>
	<polygon fill-rule="evenodd" clip-rule="evenodd" points="-175.4,142 -145,142 -145,191 -182.4,191 -182.4,197 -100,197 -100,191 
		-138,191 -138,142 -107.2,142 -107.2,136 -175.4,136 	"/>
</g>
<g>
	<path fill-rule="evenodd" clip-rule="evenodd" d="M-369,141h-31v30.8h7V147h55.7c-3.4,28.1-17.1,46.7-46.24,56.9
		c1.57,1.7,3.61,4.3,4.59,6c31.25-11.1,45.75-31.4,50.35-65.99c0.4-0.26,0.9-0.62,1.1-0.97l-6.2-2.59l-1.5,0.65H-362v-17
		c1.5-0.09,2.7-0.87,2.8-1.74l-9.8-0.56V141z"/>
</g>
<g>
	<path fill-rule="evenodd" clip-rule="evenodd" d="M-219.9,585c-3.5,25.56-11.1,50.03-23.1,64.6c2,0.9,4.8,2.1,6.7,3.4
		c12.1-15.28,19.8-40.54,23.9-64.21c1.5-0.2,2.3-0.69,2.6-1.59L-219.9,585z M-185.1,586.9c10.7,18.07,22.3,48.03,26.81,65.6
		l7.29-2.9c-4.39-17.77-16.3-47.03-27.3-65.6L-185.1,586.9z"/>
</g>
<g>
	<path fill-rule="evenodd" clip-rule="evenodd" d="M-234.13,354.5l-1.3,0.5h-53.06v6h49.16c-9.01,21.7-30.94,50.1-58.67,65.3
		c1.7,1.4,4.1,3.9,5.21,5.4c14.51-8.3,29.73-22.9,38.54-33.6c10.21,8.2,26.33,23.4,35.14,33.6l6.11-5.3
		c-9.31-10.3-25.73-25.2-36.65-33.9c8.21-10.7,14.62-21.7,20.03-34.06c0.6-0.18,1.1-0.53,1.3-0.97L-234.13,354.5z"/>
</g>
<g>
	
		<path fill-rule="evenodd" clip-rule="evenodd" stroke="#000000" stroke-linecap="square" stroke-linejoin="round" stroke-miterlimit="10" d="
		M-1295-261v-47h56v47H-1295z M-1302-314v65.5h7v-6.5h56v6.3h7V-314H-1302z"/>
</g>
<g>
	
		<path fill-rule="evenodd" clip-rule="evenodd" stroke="#000000" stroke-linecap="square" stroke-linejoin="round" stroke-miterlimit="10" d="
		M-938-245.7c-5.08-10.5-17.06-29.5-27.53-41l-5.99,3.4c5.99,6.7,12.57,15.8,17.76,24.4c-13.17,1.2-36.82,2.9-53.38,3.6
		c6.88-19.6,15.47-46.4,20.95-64.8c1.5,0,2.5-0.5,2.9-1.4l-9.68-2.6c-5.49,20-14.97,49.9-21.55,69.1
		c-3.89,0.19-7.49,0.28-10.48,0.38l2.69,8.62c0.9-0.2,1.6-1,1.9-2c15.27-0.76,49.39-2.74,70.14-4.82c2,3.4,3.79,6.92,5.29,10.32
		L-938-245.7z"/>
</g>
<g>
	<path fill-rule="evenodd" clip-rule="evenodd" d="M-724.9-320c-3.5,25.56-11.1,50.03-23.1,64.6c2,0.9,4.8,2.1,6.7,3.4
		c12.1-15.28,19.8-40.54,23.9-64.21c1.5-0.2,2.3-0.69,2.6-1.59L-724.9-320z M-690.1-318.1c10.7,18.07,22.3,48.03,26.81,65.6
		l7.29-2.9c-4.39-17.77-16.3-47.03-27.3-65.6L-690.1-318.1z"/>
</g>
<g>
	<path fill-rule="evenodd" clip-rule="evenodd" d="M-439.91-318.6l-1.21,0.6H-520v6h73.57c-7.92,11.6-21.65,24.5-35.18,34.1
		c-7.22-5.5-15.24-10.8-22.35-14.8l-4.81,5.1c16.94,9.9,36.68,26.4,47.21,38.7l6.11-5.3c-5.11-5.6-12.83-13.3-20.55-19.5
		c15.44-11.1,31.18-26,40.5-39.98c0.7-0.17,1.2-0.44,1.5-0.88L-439.91-318.6z"/>
</g>
</svg>
