<?xml version="1.0" encoding="utf-8"?>
<!-- Generator: Adobe Illustrator 16.0.0, SVG Export Plug-In . SVG Version: 6.00 Build 0)  -->
<!DOCTYPE svg PUBLIC "-//W3C//DTD SVG 1.1//EN" "http://www.w3.org/Graphics/SVG/1.1/DTD/svg11.dtd">
<svg version="1.1" id="Layer_1" xmlns="http://www.w3.org/2000/svg" xmlns:xlink="http://www.w3.org/1999/xlink" x="0px" y="0px"
	 width="612px" height="792px" viewBox="0 0 612 792" enable-background="new 0 0 612 792" xml:space="preserve">
<g>
	<polyline fill="none" stroke="#000000" stroke-miterlimit="10" points="-939,171 -664,171 -664,391 -939,391 -939,171 	"/>
	<line fill="none" stroke="#000000" stroke-miterlimit="10" x1="-939" y1="171" x2="-664" y2="391"/>
	<line fill="none" stroke="#000000" stroke-miterlimit="10" x1="-664" y1="171" x2="-939" y2="391"/>
</g>
<g>
	<polyline fill="none" stroke="#000000" stroke-miterlimit="10" points="-33,-60 183,-60 183,161 -33,161 -33,-60 	"/>
	<line fill="none" stroke="#000000" stroke-miterlimit="10" x1="-33" y1="-60" x2="183" y2="161"/>
	<line fill="none" stroke="#000000" stroke-miterlimit="10" x1="183" y1="-60" x2="-33" y2="161"/>
</g>
<g>
	<polyline fill="none" stroke="#000000" stroke-miterlimit="10" points="-939,631 -555,631 -555,851 -939,851 -939,631 	"/>
	<line fill="none" stroke="#000000" stroke-miterlimit="10" x1="-939" y1="631" x2="-555" y2="851"/>
	<line fill="none" stroke="#000000" stroke-miterlimit="10" x1="-555" y1="631" x2="-939" y2="851"/>
</g>
<g>
	<polyline fill="none" stroke="#000000" stroke-miterlimit="10" points="-545,631 -161,631 -161,851 -545,851 -545,631 	"/>
	<line fill="none" stroke="#000000" stroke-miterlimit="10" x1="-545" y1="631" x2="-161" y2="851"/>
	<line fill="none" stroke="#000000" stroke-miterlimit="10" x1="-161" y1="631" x2="-545" y2="851"/>
</g>
<g>
	<polyline fill="none" stroke="#000000" stroke-miterlimit="10" points="1031,631 1415,631 1415,851 1031,851 1031,631 	"/>
	<line fill="none" stroke="#000000" stroke-miterlimit="10" x1="1031" y1="631" x2="1415" y2="851"/>
	<line fill="none" stroke="#000000" stroke-miterlimit="10" x1="1415" y1="631" x2="1031" y2="851"/>
</g>
<g>
	<polyline fill="none" stroke="#000000" stroke-miterlimit="10" points="-939,401 -611,401 -611,621 -939,621 -939,401 	"/>
	<line fill="none" stroke="#000000" stroke-miterlimit="10" x1="-939" y1="401" x2="-611" y2="621"/>
	<line fill="none" stroke="#000000" stroke-miterlimit="10" x1="-611" y1="401" x2="-939" y2="621"/>
</g>
<g>
	<polyline fill="none" stroke="#000000" stroke-miterlimit="10" points="-263,401 65,401 65,621 -263,621 -263,401 	"/>
	<line fill="none" stroke="#000000" stroke-miterlimit="10" x1="-263" y1="401" x2="65" y2="621"/>
	<line fill="none" stroke="#000000" stroke-miterlimit="10" x1="65" y1="401" x2="-263" y2="621"/>
</g>
<g>
	<polyline fill="none" stroke="#000000" stroke-miterlimit="10" points="-151,631 233,631 233,851 -151,851 -151,631 	"/>
	<line fill="none" stroke="#000000" stroke-miterlimit="10" x1="-151" y1="631" x2="233" y2="851"/>
	<line fill="none" stroke="#000000" stroke-miterlimit="10" x1="233" y1="631" x2="-151" y2="851"/>
</g>
<g>
	<polyline fill="none" stroke="#000000" stroke-miterlimit="10" points="243,631 627,631 627,851 243,851 243,631 	"/>
	<line fill="none" stroke="#000000" stroke-miterlimit="10" x1="243" y1="631" x2="627" y2="851"/>
	<line fill="none" stroke="#000000" stroke-miterlimit="10" x1="627" y1="631" x2="243" y2="851"/>
</g>
<g>
	<polyline fill="none" stroke="#000000" stroke-miterlimit="10" points="637,631 1021,631 1021,851 637,851 637,631 	"/>
	<line fill="none" stroke="#000000" stroke-miterlimit="10" x1="637" y1="631" x2="1021" y2="851"/>
	<line fill="none" stroke="#000000" stroke-miterlimit="10" x1="1021" y1="631" x2="637" y2="851"/>
</g>
<g>
	<polyline fill="none" stroke="#000000" stroke-miterlimit="10" points="-259,-59 -43,-59 -43,162 -259,162 -259,-59 	"/>
	<line fill="none" stroke="#000000" stroke-miterlimit="10" x1="-259" y1="-59" x2="-43" y2="162"/>
	<line fill="none" stroke="#000000" stroke-miterlimit="10" x1="-43" y1="-59" x2="-259" y2="162"/>
</g>
<g>
	<polyline fill="none" stroke="#000000" stroke-miterlimit="10" points="193,-60 409,-60 409,161 193,161 193,-60 	"/>
	<line fill="none" stroke="#000000" stroke-miterlimit="10" x1="193" y1="-60" x2="409" y2="161"/>
	<line fill="none" stroke="#000000" stroke-miterlimit="10" x1="409" y1="-60" x2="193" y2="161"/>
</g>
<g>
	<polyline fill="none" stroke="#000000" stroke-miterlimit="10" points="-601,401 -273,401 -273,621 -601,621 -601,401 	"/>
	<line fill="none" stroke="#000000" stroke-miterlimit="10" x1="-601" y1="401" x2="-273" y2="621"/>
	<line fill="none" stroke="#000000" stroke-miterlimit="10" x1="-273" y1="401" x2="-601" y2="621"/>
</g>
<g>
	<polyline fill="none" stroke="#000000" stroke-miterlimit="10" points="75,401 403,401 403,621 75,621 75,401 	"/>
	<line fill="none" stroke="#000000" stroke-miterlimit="10" x1="75" y1="401" x2="403" y2="621"/>
	<line fill="none" stroke="#000000" stroke-miterlimit="10" x1="403" y1="401" x2="75" y2="621"/>
</g>
<g>
	<polyline fill="none" stroke="#000000" stroke-miterlimit="10" points="419,-60 635,-60 635,161 419,161 419,-60 	"/>
	<line fill="none" stroke="#000000" stroke-miterlimit="10" x1="419" y1="-60" x2="635" y2="161"/>
	<line fill="none" stroke="#000000" stroke-miterlimit="10" x1="635" y1="-60" x2="419" y2="161"/>
</g>
<g>
	<polyline fill="none" stroke="#000000" stroke-miterlimit="10" points="1426,632 1810,632 1810,852 1426,852 1426,632 	"/>
	<line fill="none" stroke="#000000" stroke-miterlimit="10" x1="1426" y1="632" x2="1810" y2="852"/>
	<line fill="none" stroke="#000000" stroke-miterlimit="10" x1="1810" y1="632" x2="1426" y2="852"/>
</g>
<g>
	<polyline fill="none" stroke="#000000" stroke-miterlimit="10" points="-938,-60 -722,-60 -722,161 -938,161 -938,-60 	"/>
	<line fill="none" stroke="#000000" stroke-miterlimit="10" x1="-938" y1="-60" x2="-722" y2="161"/>
	<line fill="none" stroke="#000000" stroke-miterlimit="10" x1="-722" y1="-60" x2="-938" y2="161"/>
</g>
<g>
	<polyline fill="none" stroke="#000000" stroke-miterlimit="10" points="-712,-60 -496,-60 -496,161 -712,161 -712,-60 	"/>
	<line fill="none" stroke="#000000" stroke-miterlimit="10" x1="-712" y1="-60" x2="-496" y2="161"/>
	<line fill="none" stroke="#000000" stroke-miterlimit="10" x1="-496" y1="-60" x2="-712" y2="161"/>
</g>
<g>
	<polyline fill="none" stroke="#000000" stroke-miterlimit="10" points="-486,-60 -270,-60 -270,161 -486,161 -486,-60 	"/>
	<line fill="none" stroke="#000000" stroke-miterlimit="10" x1="-486" y1="-60" x2="-270" y2="161"/>
	<line fill="none" stroke="#000000" stroke-miterlimit="10" x1="-270" y1="-60" x2="-486" y2="161"/>
</g>
<g>
	<polygon fill-rule="evenodd" clip-rule="evenodd" points="-751.96,753.5 -751.96,741.5 -768.83,741.5 -748.67,721.33 -728.5,741.5 
		-745.38,741.5 -745.38,746.92 -745.38,753.5 	"/>
</g>
<polygon fill-rule="evenodd" clip-rule="evenodd" points="-102.5,487.11 -102.5,486.5 -102.85,486.5 -102.9,486.41 -103.06,486.5 
	-123.5,486.5 -123.5,492.5 -106.32,492.5 -90.5,519.89 -90.5,520.5 -90.15,520.5 -90.1,520.59 -89.95,520.5 -71.5,520.5 
	-71.5,514.5 -86.69,514.5 "/>
<rect x="-87.5" y="486.5" fill-rule="evenodd" clip-rule="evenodd" width="16" height="6"/>
<polygon fill-rule="evenodd" clip-rule="evenodd" points="-749.63,520.12 -745.38,515.87 -774.37,486.88 -774.5,487.01 
	-774.63,486.88 -803.62,515.87 -799.37,520.12 -774.5,495.24 "/>
<polygon fill-rule="evenodd" clip-rule="evenodd" points="-327.63,753.12 -323.38,748.87 -352.37,719.88 -352.5,720.01 
	-352.63,719.88 -381.62,748.87 -377.37,753.12 -352.5,728.24 "/>
<polygon fill-rule="evenodd" clip-rule="evenodd" points="66.37,753.12 70.62,748.87 41.63,719.88 41.5,720.01 41.37,719.88 
	12.38,748.87 16.63,753.12 41.5,728.24 "/>
<path fill-rule="evenodd" clip-rule="evenodd" d="M59.13,44.13l15.9-22.71l15.91,22.71L75.03,66.85L59.13,44.13z M74.79,11.29
	L51.95,43.92l-0.15,0.21l-0.05,0.07l0.2,0.14l22.84,32.63l0.01,0.67l0.23-0.33l0.24,0.33v-0.67l22.84-32.62l0.21-0.15l-0.05-0.07
	l-0.15-0.21L75.27,11.29v-0.67l-0.24,0.34l-0.23-0.34L74.79,11.29z M51.95,43.92l-0.2,0.14l0.05,0.07L51.95,43.92z M98.27,44.13
	l0.05-0.07l-0.2-0.14L98.27,44.13z"/>
<polygon fill-rule="evenodd" clip-rule="evenodd" points="235.5,487.11 235.5,486.5 235.15,486.5 235.1,486.41 234.94,486.5 
	214.5,486.5 214.5,492.5 231.68,492.5 247.5,519.89 247.5,520.5 247.85,520.5 247.9,520.59 248.05,520.5 266.5,520.5 266.5,514.5 
	251.31,514.5 "/>
<rect x="250.5" y="486.5" fill-rule="evenodd" clip-rule="evenodd" width="16" height="6"/>
<polygon fill-rule="evenodd" clip-rule="evenodd" points="431.5,725.11 431.5,724.5 431.15,724.5 431.1,724.41 430.94,724.5 
	410.5,724.5 410.5,730.5 427.68,730.5 443.5,757.89 443.5,758.5 443.85,758.5 443.9,758.59 444.05,758.5 462.5,758.5 462.5,752.5 
	447.31,752.5 "/>
<rect x="446.5" y="724.5" fill-rule="evenodd" clip-rule="evenodd" width="16" height="6"/>
<polygon fill-rule="evenodd" clip-rule="evenodd" points="831.5,725.11 831.5,724.5 831.15,724.5 831.1,724.41 830.94,724.5 
	810.5,724.5 810.5,730.5 827.68,730.5 843.5,757.89 843.5,758.5 843.85,758.5 843.9,758.59 844.05,758.5 862.5,758.5 862.5,752.5 
	847.31,752.5 "/>
<rect x="846.5" y="724.5" fill-rule="evenodd" clip-rule="evenodd" width="16" height="6"/>
<polygon fill-rule="evenodd" clip-rule="evenodd" points="-411.63,520.12 -407.38,515.87 -436.37,486.88 -436.5,487.01 
	-436.63,486.88 -465.62,515.87 -461.37,520.12 -436.5,495.24 "/>
<path fill-rule="evenodd" clip-rule="evenodd" d="M285.13,44.13l15.9-22.71l15.91,22.71l-15.91,22.72L285.13,44.13z M300.79,11.29
	l-22.84,32.63l-0.15,0.21l-0.05,0.07l0.2,0.14l22.84,32.63l0.01,0.67l0.23-0.33l0.24,0.33v-0.67l22.84-32.62l0.21-0.15l-0.05-0.07
	l-0.15-0.21l-22.85-32.63v-0.67l-0.24,0.34l-0.23-0.34L300.79,11.29z M277.95,43.92l-0.2,0.14l0.05,0.07L277.95,43.92z
	 M324.27,44.13l0.05-0.07l-0.2-0.14L324.27,44.13z"/>
<polygon fill-rule="evenodd" clip-rule="evenodd" points="1192.5,735.5 1204.5,735.5 1184.33,715.33 1164.17,735.5 1176.17,735.5 
	1184.33,727.33 "/>
<g>
	<polygon fill-rule="evenodd" clip-rule="evenodd" points="1181.04,766.5 1181.04,754.5 1164.17,754.5 1184.33,734.33 1204.5,754.5 
		1187.62,754.5 1187.62,759.92 1187.62,766.5 	"/>
</g>
<polygon fill-rule="evenodd" clip-rule="evenodd" points="-797.5,270.5 -785.5,270.5 -805.67,250.33 -825.83,270.5 -813.84,270.5 
	-805.67,262.33 "/>
<g>
	<polygon fill-rule="evenodd" clip-rule="evenodd" points="-808.96,301.5 -808.96,289.5 -825.83,289.5 -805.67,269.33 -785.5,289.5 
		-802.38,289.5 -802.38,294.92 -802.38,301.5 	"/>
</g>
<g>
	<polygon fill-rule="evenodd" clip-rule="evenodd" points="556.67,46.75 519.67,46.75 519.67,64.33 499.5,44.17 519.67,24 
		519.67,41.58 551.5,41.58 556.67,41.58 	"/>
</g>
<polygon fill-rule="evenodd" clip-rule="evenodd" points="1594.37,753.12 1598.62,748.87 1569.63,719.88 1569.5,720.01 
	1569.37,719.88 1540.38,748.87 1544.63,753.12 1569.5,728.24 "/>
<polygon fill-rule="evenodd" clip-rule="evenodd" points="-804.63,60.12 -800.38,55.87 -829.37,26.88 -829.5,27.01 -829.63,26.88 
	-858.62,55.87 -854.37,60.12 -829.5,35.24 "/>
<polygon fill-rule="evenodd" clip-rule="evenodd" points="-579.63,60.12 -575.38,55.87 -604.37,26.88 -604.5,27.01 -604.63,26.88 
	-633.62,55.87 -629.37,60.12 -604.5,35.24 "/>
<polygon fill-rule="evenodd" clip-rule="evenodd" points="-157.5,29.11 -157.5,28.5 -157.85,28.5 -157.9,28.41 -158.06,28.5 
	-178.5,28.5 -178.5,34.5 -161.32,34.5 -145.5,61.89 -145.5,62.5 -145.15,62.5 -145.1,62.59 -144.95,62.5 -126.5,62.5 -126.5,56.5 
	-141.69,56.5 "/>
<rect x="-142.5" y="28.5" fill-rule="evenodd" clip-rule="evenodd" width="16" height="6"/>
<polygon fill-rule="evenodd" clip-rule="evenodd" points="-383.5,29.11 -383.5,28.5 -383.85,28.5 -383.9,28.41 -384.05,28.5 
	-404.5,28.5 -404.5,34.5 -387.32,34.5 -371.5,61.89 -371.5,62.5 -371.15,62.5 -371.1,62.59 -370.95,62.5 -352.5,62.5 -352.5,56.5 
	-367.68,56.5 "/>
<rect x="-368.5" y="28.5" fill-rule="evenodd" clip-rule="evenodd" width="16" height="6"/>
</svg>
