<?xml version="1.0" encoding="utf-8"?>
<!-- Generator: Adobe Illustrator 16.0.0, SVG Export Plug-In . SVG Version: 6.00 Build 0)  -->
<!DOCTYPE svg PUBLIC "-//W3C//DTD SVG 1.1//EN" "http://www.w3.org/Graphics/SVG/1.1/DTD/svg11.dtd">
<svg version="1.1" id="Layer_1" xmlns="http://www.w3.org/2000/svg" xmlns:xlink="http://www.w3.org/1999/xlink" x="0px" y="0px"
	 width="612px" height="792px" viewBox="0 0 612 792" enable-background="new 0 0 612 792" xml:space="preserve">
<g>
	<polyline fill="none" stroke="#000000" stroke-miterlimit="10" points="308.5,565.5 524.5,565.5 524.5,786.5 308.5,786.5 
		308.5,565.5 	"/>
	<line fill="none" stroke="#000000" stroke-miterlimit="10" x1="308.5" y1="565.5" x2="524.5" y2="786.5"/>
	<line fill="none" stroke="#000000" stroke-miterlimit="10" x1="524.5" y1="565.5" x2="308.5" y2="786.5"/>
</g>
<g>
	<polyline fill="none" stroke="#000000" stroke-miterlimit="10" points="-141.5,565.5 298.5,565.5 298.5,785.5 -141.5,785.5 
		-141.5,565.5 	"/>
	<line fill="none" stroke="#000000" stroke-miterlimit="10" x1="-141.5" y1="565.5" x2="298.5" y2="785.5"/>
	<line fill="none" stroke="#000000" stroke-miterlimit="10" x1="298.5" y1="565.5" x2="-141.5" y2="785.5"/>
</g>
<g>
	<polyline fill="none" stroke="#000000" stroke-miterlimit="10" points="308.5,340.5 524.5,340.5 524.5,561.5 308.5,561.5 
		308.5,340.5 	"/>
	<line fill="none" stroke="#000000" stroke-miterlimit="10" x1="308.5" y1="340.5" x2="524.5" y2="561.5"/>
	<line fill="none" stroke="#000000" stroke-miterlimit="10" x1="524.5" y1="340.5" x2="308.5" y2="561.5"/>
</g>
<g>
	<polyline fill="none" stroke="#000000" stroke-miterlimit="10" points="83.5,340.5 299.5,340.5 299.5,561.5 83.5,561.5 83.5,340.5 
			"/>
	<line fill="none" stroke="#000000" stroke-miterlimit="10" x1="83.5" y1="340.5" x2="299.5" y2="561.5"/>
	<line fill="none" stroke="#000000" stroke-miterlimit="10" x1="299.5" y1="340.5" x2="83.5" y2="561.5"/>
</g>
<g>
	<polyline fill="none" stroke="#000000" stroke-miterlimit="10" points="-141.5,340.5 74.5,340.5 74.5,561.5 -141.5,561.5 
		-141.5,340.5 	"/>
	<line fill="none" stroke="#000000" stroke-miterlimit="10" x1="-141.5" y1="340.5" x2="74.5" y2="561.5"/>
	<line fill="none" stroke="#000000" stroke-miterlimit="10" x1="74.5" y1="340.5" x2="-141.5" y2="561.5"/>
</g>
<g>
	<polyline fill="none" stroke="#000000" stroke-miterlimit="10" points="533.5,343.5 753.5,343.5 753.5,783.5 533.5,783.5 
		533.5,343.5 	"/>
	<line fill="none" stroke="#000000" stroke-miterlimit="10" x1="533.5" y1="343.5" x2="753.5" y2="783.5"/>
	<line fill="none" stroke="#000000" stroke-miterlimit="10" x1="753.5" y1="343.5" x2="533.5" y2="783.5"/>
</g>
<g>
	<polyline fill="none" stroke="#000000" stroke-miterlimit="10" points="308.5,115.5 524.5,115.5 524.5,336.5 308.5,336.5 
		308.5,115.5 	"/>
	<line fill="none" stroke="#000000" stroke-miterlimit="10" x1="308.5" y1="115.5" x2="524.5" y2="336.5"/>
	<line fill="none" stroke="#000000" stroke-miterlimit="10" x1="524.5" y1="115.5" x2="308.5" y2="336.5"/>
</g>
<g>
	<polyline fill="none" stroke="#000000" stroke-miterlimit="10" points="83.5,115.5 299.5,115.5 299.5,336.5 83.5,336.5 83.5,115.5 
			"/>
	<line fill="none" stroke="#000000" stroke-miterlimit="10" x1="83.5" y1="115.5" x2="299.5" y2="336.5"/>
	<line fill="none" stroke="#000000" stroke-miterlimit="10" x1="299.5" y1="115.5" x2="83.5" y2="336.5"/>
</g>
<g>
	<polyline fill="none" stroke="#000000" stroke-miterlimit="10" points="-141.5,115.5 74.5,115.5 74.5,336.5 -141.5,336.5 
		-141.5,115.5 	"/>
	<line fill="none" stroke="#000000" stroke-miterlimit="10" x1="-141.5" y1="115.5" x2="74.5" y2="336.5"/>
	<line fill="none" stroke="#000000" stroke-miterlimit="10" x1="74.5" y1="115.5" x2="-141.5" y2="336.5"/>
</g>
<g>
	<polyline fill="none" stroke="#000000" stroke-miterlimit="10" points="533.5,-106.5 753.5,-106.5 753.5,333.5 533.5,333.5 
		533.5,-106.5 	"/>
	<line fill="none" stroke="#000000" stroke-miterlimit="10" x1="533.5" y1="-106.5" x2="753.5" y2="333.5"/>
	<line fill="none" stroke="#000000" stroke-miterlimit="10" x1="753.5" y1="-106.5" x2="533.5" y2="333.5"/>
</g>
<g>
	<polyline fill="none" stroke="#000000" stroke-miterlimit="10" points="308.5,-109.5 524.5,-109.5 524.5,111.5 308.5,111.5 
		308.5,-109.5 	"/>
	<line fill="none" stroke="#000000" stroke-miterlimit="10" x1="308.5" y1="-109.5" x2="524.5" y2="111.5"/>
	<line fill="none" stroke="#000000" stroke-miterlimit="10" x1="524.5" y1="-109.5" x2="308.5" y2="111.5"/>
</g>
<g>
	<polyline fill="none" stroke="#000000" stroke-miterlimit="10" points="83.5,-109.5 299.5,-109.5 299.5,111.5 83.5,111.5 
		83.5,-109.5 	"/>
	<line fill="none" stroke="#000000" stroke-miterlimit="10" x1="83.5" y1="-109.5" x2="299.5" y2="111.5"/>
	<line fill="none" stroke="#000000" stroke-miterlimit="10" x1="299.5" y1="-109.5" x2="83.5" y2="111.5"/>
</g>
<g>
	<polyline fill="none" stroke="#000000" stroke-miterlimit="10" points="-141.5,-109.5 74.5,-109.5 74.5,111.5 -141.5,111.5 
		-141.5,-109.5 	"/>
	<line fill="none" stroke="#000000" stroke-miterlimit="10" x1="-141.5" y1="-109.5" x2="74.5" y2="111.5"/>
	<line fill="none" stroke="#000000" stroke-miterlimit="10" x1="74.5" y1="-109.5" x2="-141.5" y2="111.5"/>
</g>
<g>
	<polyline fill="none" stroke="#000000" stroke-miterlimit="10" points="532.5,-334.5 748.5,-334.5 748.5,-113.5 532.5,-113.5 
		532.5,-334.5 	"/>
	<line fill="none" stroke="#000000" stroke-miterlimit="10" x1="532.5" y1="-334.5" x2="748.5" y2="-113.5"/>
	<line fill="none" stroke="#000000" stroke-miterlimit="10" x1="748.5" y1="-334.5" x2="532.5" y2="-113.5"/>
</g>
<g>
	<polyline fill="none" stroke="#000000" stroke-miterlimit="10" points="308.5,-334.5 524.5,-334.5 524.5,-113.5 308.5,-113.5 
		308.5,-334.5 	"/>
	<line fill="none" stroke="#000000" stroke-miterlimit="10" x1="308.5" y1="-334.5" x2="524.5" y2="-113.5"/>
	<line fill="none" stroke="#000000" stroke-miterlimit="10" x1="524.5" y1="-334.5" x2="308.5" y2="-113.5"/>
</g>
<g>
	<polyline fill="none" stroke="#000000" stroke-miterlimit="10" points="83.5,-334.5 299.5,-334.5 299.5,-113.5 83.5,-113.5 
		83.5,-334.5 	"/>
	<line fill="none" stroke="#000000" stroke-miterlimit="10" x1="83.5" y1="-334.5" x2="299.5" y2="-113.5"/>
	<line fill="none" stroke="#000000" stroke-miterlimit="10" x1="299.5" y1="-334.5" x2="83.5" y2="-113.5"/>
</g>
<g>
	<polyline fill="none" stroke="#000000" stroke-miterlimit="10" points="-141.5,-334.5 74.5,-334.5 74.5,-113.5 -141.5,-113.5 
		-141.5,-334.5 	"/>
	<line fill="none" stroke="#000000" stroke-miterlimit="10" x1="-141.5" y1="-334.5" x2="74.5" y2="-113.5"/>
	<line fill="none" stroke="#000000" stroke-miterlimit="10" x1="74.5" y1="-334.5" x2="-141.5" y2="-113.5"/>
</g>
<g>
	<polyline fill="none" stroke="#000000" stroke-miterlimit="10" points="532.5,905.5 748.5,905.5 748.5,1126.5 532.5,1126.5 
		532.5,905.5 	"/>
	<line fill="none" stroke="#000000" stroke-miterlimit="10" x1="532.5" y1="905.5" x2="748.5" y2="1126.5"/>
	<line fill="none" stroke="#000000" stroke-miterlimit="10" x1="748.5" y1="905.5" x2="532.5" y2="1126.5"/>
</g>
<g>
	<polyline fill="none" stroke="#000000" stroke-miterlimit="10" points="308.5,905.5 524.5,905.5 524.5,1126.5 308.5,1126.5 
		308.5,905.5 	"/>
	<line fill="none" stroke="#000000" stroke-miterlimit="10" x1="308.5" y1="905.5" x2="524.5" y2="1126.5"/>
	<line fill="none" stroke="#000000" stroke-miterlimit="10" x1="524.5" y1="905.5" x2="308.5" y2="1126.5"/>
</g>
<g>
	<polyline fill="none" stroke="#000000" stroke-miterlimit="10" points="83.5,905.5 299.5,905.5 299.5,1126.5 83.5,1126.5 
		83.5,905.5 	"/>
	<line fill="none" stroke="#000000" stroke-miterlimit="10" x1="83.5" y1="905.5" x2="299.5" y2="1126.5"/>
	<line fill="none" stroke="#000000" stroke-miterlimit="10" x1="299.5" y1="905.5" x2="83.5" y2="1126.5"/>
</g>
<g>
	<polyline fill="none" stroke="#000000" stroke-miterlimit="10" points="-141.5,905.5 74.5,905.5 74.5,1126.5 -141.5,1126.5 
		-141.5,905.5 	"/>
	<line fill="none" stroke="#000000" stroke-miterlimit="10" x1="-141.5" y1="905.5" x2="74.5" y2="1126.5"/>
	<line fill="none" stroke="#000000" stroke-miterlimit="10" x1="74.5" y1="905.5" x2="-141.5" y2="1126.5"/>
</g>
<g>
	<path fill-rule="evenodd" clip-rule="evenodd" d="M670.54,621.21h-32.37v17.62L618,618.67l20.17-20.17v17.63h32.37V494.08h5.09
		v122.05C675.63,618.93,673.35,621.21,670.54,621.21z"/>
</g>
<g>
	<rect x="411" y="685.5" fill-rule="evenodd" clip-rule="evenodd" width="11" height="13"/>
</g>
<g>
	<path fill-rule="evenodd" clip-rule="evenodd" d="M196.5-215.5h-11v12h11V-215.5z M220.5-236.5h-59v7h59V-236.5z M196.5-262.5h-11
		v12h11V-262.5z"/>
</g>
<g>
	<polygon fill-rule="evenodd" clip-rule="evenodd" points="422.69,-233 443.97,-254.23 439.23,-258.97 418,-237.69 396.77,-258.97 
		392.03,-254.23 413.31,-233 392.03,-211.77 396.77,-207.03 418,-228.31 439.23,-207.03 443.97,-211.77 	"/>
</g>
<g>
	<rect x="626" y="-237.5" fill-rule="evenodd" clip-rule="evenodd" width="29" height="8"/>
</g>
<g>
	<polygon fill-rule="evenodd" clip-rule="evenodd" points="680.5,113.5 654.5,113.5 654.5,87.5 647.5,87.5 647.5,113.5 621.5,113.5 
		621.5,120.5 647.5,120.5 647.5,146.5 654.5,146.5 654.5,120.5 680.5,120.5 	"/>
</g>
<path fill-rule="evenodd" clip-rule="evenodd" d="M-12.52-264.15c-4.56-10.99-13.9-12.68-21.58-12.68
	c-8.72,0-18.48,1.69-22.84,15.63c0.63,17.75,0.42,17.96,0.63,18.17h8.71l0.63-0.63v-14.58c0-4.01,6.85-8.03,9.34-8.03
	c1.04,0,2.7-0.21,3.11-0.21c4.36,0,11.21,1.69,13.29,8.03v15.42h9.96v-16.27C-11.27-259.93-11.89-262.89-12.52-264.15z
	 M-38.18-212.71l6.2,0.01l1.03-5.88h-6.19L-38.18-212.71z M-8.37-237.96h-51.68c-1.24,0-2.9,1.69-3.32,2.96v38.66
	c0,0.63,2.91,2.75,3.53,3.17h51.27c1.45,0,3.52-2.75,3.94-3.8v-37.61C-4.63-235.85-7.74-237.96-8.37-237.96z M-48.14-212.7h4.69
	l1.02-5.88h-3.87v-4.48h4.64l1.47-8.28l4.74,0.25l-0.96,8.03h6.22l1.49-8.28l4.72,0.25l-0.95,8.03h3.91v4.48h-4.64l-1.03,5.87
	l3.88,0.01v4.48h-4.69l-1.59,8.16l-4.72-0.21l1.06-7.95h-6.23l-1.6,8.16l-4.72-0.21l1.08-7.95h-3.92V-212.7z"/>
<g>
	<path fill-rule="evenodd" clip-rule="evenodd" d="M147,479.5h90v-7h-90V479.5z M155.61,419.5h72.78v-7h-72.78V419.5z"/>
</g>
<g>
	<path fill-rule="evenodd" clip-rule="evenodd" d="M373,483.5h88v-7h-88V483.5z M385.31,448.5h62.28v-7h-62.28V448.5z M378.81,414.5
		h76.58v-7h-76.58V414.5z"/>
</g>
<g>
	<path fill-rule="evenodd" clip-rule="evenodd" d="M84,631.5c20.94,0,38,17.06,38,38c0,20.95-17.06,38-38,38
		c-20.95,0-38-17.05-38-38C46,648.76,62.85,631.5,84,631.5z M84,624.5c-24.84,0-45,20.17-45,45c0,24.84,20.16,45,45,45
		c24.83,0,45-20.16,45-45C129,644.87,109.03,624.5,84,624.5z"/>
</g>
<g>
	<rect x="-79" y="439.5" fill-rule="evenodd" clip-rule="evenodd" width="93" height="7"/>
</g>
<g>
	<path fill-rule="evenodd" clip-rule="evenodd" d="M213,253.5h-35.8c2.1-9.37,4.7-21.44,7.2-34H213V253.5z M220,212.5h-34.4
		c1.6-7.93,3.1-15.76,4.3-23h41.9v-7h-79.2v7h30c-1.2,7.14-2.6,15.07-4.1,23h-21.1v7h19.8c-2.5,12.36-5.1,24.53-7.5,34h-22.9v7h90.3
		v-7H220V212.5z"/>
</g>
<g>
	<path fill-rule="evenodd" clip-rule="evenodd" d="M461.1,261.8c-4.6-11.3-15.6-29-25.4-42.2l-6.6,2.8c9.8,13.4,20.5,31.6,24.8,42.8
		L461.1,261.8z M396.5,219.4c-5.9,15.6-15.6,31.6-25.3,41.1c1.8,1.1,4.6,3.3,6,4.5c9.9-10.3,19.6-26.3,26-41.7c1.2,0.1,2-0.3,2.3-1
		L396.5,219.4z M420,175.5c1.4-0.24,1.9-0.82,2-1.65l-9-0.65v24.3h-40.7v7h89.3v-7H420V175.5z"/>
</g>
<g>
	<path fill-rule="evenodd" clip-rule="evenodd" d="M-67.15,189.5H-47c-0.81,19.15-3.63,33.41-18.13,41.54
		c1.41,1.06,3.42,3.19,4.23,4.73c16.35-9.22,18.9-25.95,19.9-46.27h15.06v29.31c0,5.32,0,10.69,8.31,10.69h7.11
		c6.59,0,8.43-1.89,9.45-4.74c0.55-1.85,0.82-6.63,1.01-10.74c-1.43-0.49-3.66-1.56-4.98-2.64c-0.31,12.12-0.41,12.12-5.99,12.12
		h-5.28c-3.35,0-3.75-0.39-3.75-3.91V189.5H2.06v59h-69.21V189.5z M-73.85,262.9h6.7v-7.4H2.06v6.6h6.88v-79.6h-82.79V262.9z"/>
</g>
<g>
	<path fill-rule="evenodd" clip-rule="evenodd" d="M171.16-24.7c-2.81,21.6-9.33,46.9-25.16,61.4c1.6,1.1,4.21,3.5,5.41,4.9
		c16.54-15.6,23.55-41.8,26.96-63.4c1.3-0.1,2.01-0.5,2.21-1.4L171.16-24.7z M168.45-36.5h35.48c3.3,33.7,10.62,62.8,28.66,77.9
		c1.6-1.7,4.51-4.1,6.41-5.3c-18.54-14.2-25.65-44.4-28.86-79.6h-41.69V-36.5z"/>
</g>
<g>
	<path fill-rule="evenodd" clip-rule="evenodd" d="M440-24.62l0.4-1.78l-4.8-1.1l-1,0.7L409-26.19c0.51-7.91,0.51-15.81,0.61-23.31
		c1.52-0.21,2.33-0.82,2.43-1.74l-9.45-0.51c-0.1,8.49,0,17.24-0.59,25.9l-28.2,0.72l0.3,6.98l27.4-0.72
		c-2.2,22.32-9,43.31-30.8,54.99c1.9,1.04,4.1,3.1,5.2,4.78c23.4-13.09,30.44-36.34,32.61-60.1L433-19.81v49.02
		c0,8.13,2.2,10.29,9.53,10.29h11.03c7.25,0,8.77-4.69,9.44-21.17c-1.81-0.4-4.48-1.8-6-3.09c-0.3,15.17-0.91,18.26-3.95,18.26
		h-9.51c-2.93,0-3.54-0.6-3.54-4.29V-24.62z"/>
</g>
<g>
	<path fill-rule="evenodd" clip-rule="evenodd" d="M-43-10.05l55.6-8.91l-1.1-6.81L-43-16.86V-47.5c1.4-0.24,1.9-0.82,2-1.65
		l-9-0.65v34.04l-28.7,4.71l1.2,6.6l27.5-4.4v32.64c0,11.63,3.45,14.71,15.1,14.71h25.3C2.29,38.5,4.66,32.56,6,15.78
		c-2.16-0.5-5.15-1.8-7-3.1C-1.9,27.8-2.9,31.5-9.8,31.5h-24.9c-6.9,0-8.3-1.4-8.3-7.51V-10.05z"/>
</g>
<g>
	<path fill-rule="evenodd" clip-rule="evenodd" d="M195,997.5v-32c1.4-0.23,2-0.8,2.1-1.71l-9.1-0.54v34.25h-41.3v7H188v51.2h7
		v-51.2h42.2v-7H195z"/>
</g>
<g>
	<path fill-rule="evenodd" clip-rule="evenodd" d="M420,979.5v-19c1.02-0.14,1.38-0.38,1.44-0.81l-7.44-0.43v20.24h-23.94v6H414
		v29.94h6V985.5h24.54v-6H420z"/>
	<rect x="389" y="1044.5" fill-rule="evenodd" clip-rule="evenodd" width="56" height="6"/>
</g>
<g>
	<path fill-rule="evenodd" clip-rule="evenodd" d="M644,974.5v-19c1.02-0.14,1.38-0.38,1.44-0.81l-7.44-0.43v20.24h-23.94v6H638
		v29.94h6V980.5h24.54v-6H644z"/>
	<path fill-rule="evenodd" clip-rule="evenodd" d="M614,1064.5h54v-6h-54V1064.5z M619.11,1029.5h43.78v-6h-43.78V1029.5z"/>
</g>
<g>
	<path fill-rule="evenodd" clip-rule="evenodd" d="M-33,971.5c20.94,0,38,17.06,38,38c0,20.95-17.06,38-38,38
		c-20.95,0-38-17.05-38-38C-71,988.76-54.15,971.5-33,971.5z M-33,964.5c-24.84,0-45,20.17-45,45c0,24.84,20.16,45,45,45
		c24.83,0,45-20.16,45-45C12,984.87-7.97,964.5-33,964.5z"/>
</g>
</svg>
