<?xml version="1.0" encoding="utf-8"?>
<!-- Generator: Adobe Illustrator 16.0.0, SVG Export Plug-In . SVG Version: 6.00 Build 0)  -->
<!DOCTYPE svg PUBLIC "-//W3C//DTD SVG 1.1//EN" "http://www.w3.org/Graphics/SVG/1.1/DTD/svg11.dtd">
<svg version="1.1" id="Layer_1" xmlns="http://www.w3.org/2000/svg" xmlns:xlink="http://www.w3.org/1999/xlink" x="0px" y="0px"
	 width="612px" height="792px" viewBox="0 0 612 792" enable-background="new 0 0 612 792" xml:space="preserve">
<g>
	<polyline fill="none" stroke="#000000" stroke-miterlimit="10" points="423,203 639,203 639,424 423,424 423,203 	"/>
	<line fill="none" stroke="#000000" stroke-miterlimit="10" x1="423" y1="203" x2="639" y2="424"/>
	<line fill="none" stroke="#000000" stroke-miterlimit="10" x1="639" y1="203" x2="423" y2="424"/>
</g>
<g>
	<polyline fill="none" stroke="#000000" stroke-miterlimit="10" points="198,203 414,203 414,424 198,424 198,203 	"/>
	<line fill="none" stroke="#000000" stroke-miterlimit="10" x1="198" y1="203" x2="414" y2="424"/>
	<line fill="none" stroke="#000000" stroke-miterlimit="10" x1="414" y1="203" x2="198" y2="424"/>
</g>
<g>
	<polyline fill="none" stroke="#000000" stroke-miterlimit="10" points="-27,203 189,203 189,424 -27,424 -27,203 	"/>
	<line fill="none" stroke="#000000" stroke-miterlimit="10" x1="-27" y1="203" x2="189" y2="424"/>
	<line fill="none" stroke="#000000" stroke-miterlimit="10" x1="189" y1="203" x2="-27" y2="424"/>
</g>
<g>
	<polyline fill="none" stroke="#000000" stroke-miterlimit="10" points="423,-22 639,-22 639,199 423,199 423,-22 	"/>
	<line fill="none" stroke="#000000" stroke-miterlimit="10" x1="423" y1="-22" x2="639" y2="199"/>
	<line fill="none" stroke="#000000" stroke-miterlimit="10" x1="639" y1="-22" x2="423" y2="199"/>
</g>
<g>
	<polyline fill="none" stroke="#000000" stroke-miterlimit="10" points="198,-22 414,-22 414,199 198,199 198,-22 	"/>
	<line fill="none" stroke="#000000" stroke-miterlimit="10" x1="198" y1="-22" x2="414" y2="199"/>
	<line fill="none" stroke="#000000" stroke-miterlimit="10" x1="414" y1="-22" x2="198" y2="199"/>
</g>
<g>
	<polyline fill="none" stroke="#000000" stroke-miterlimit="10" points="-27,-22 189,-22 189,199 -27,199 -27,-22 	"/>
	<line fill="none" stroke="#000000" stroke-miterlimit="10" x1="-27" y1="-22" x2="189" y2="199"/>
	<line fill="none" stroke="#000000" stroke-miterlimit="10" x1="189" y1="-22" x2="-27" y2="199"/>
</g>
<g>
	<polyline fill="none" stroke="#000000" stroke-miterlimit="10" points="-26,566 250,566 250,786 -26,786 -26,566 	"/>
	<line fill="none" stroke="#000000" stroke-miterlimit="10" x1="-26" y1="566" x2="250" y2="786"/>
	<line fill="none" stroke="#000000" stroke-miterlimit="10" x1="250" y1="566" x2="-26" y2="786"/>
</g>
<g>
	<polyline fill="none" stroke="#000000" stroke-miterlimit="10" points="284,566 560,566 560,786 284,786 284,566 	"/>
	<line fill="none" stroke="#000000" stroke-miterlimit="10" x1="284" y1="566" x2="560" y2="786"/>
	<line fill="none" stroke="#000000" stroke-miterlimit="10" x1="560" y1="566" x2="284" y2="786"/>
</g>
<path fill-rule="evenodd" clip-rule="evenodd" fill="#A9110E" d="M136.57,240.41c6.82,0.45,15.46,11.83,15.46,18.21v54.16h-17.74
	l-7.73,88.76h-64.6l36.4-96.95l-25.48-14.57l-61.86,87.4V292.3l35.93-29.13c-6.36-7.29-9.09-15.48-13.19-22.76H136.57z"/>
<path fill-rule="evenodd" clip-rule="evenodd" fill="#A9110E" d="M53.32,16l35.94,68.28c9.55-5.46,20.01-9.11,31.38-10.93
	c0,0,0-0.45,0.46-0.91L111.55,16h25.93c6.82,2.28,14.55,11.83,14.55,18.21v123.35c-0.91,10.93-11.83,20.03-20.92,20.03H31.03
	c-2.73-1.36-5.91-0.91-5.91-3.18c0-0.91,1.82-10.47,3.18-15.48c-5.46-2.28-11.37-4.1-17.28-5.46V93.84l35.48,25.94
	c5-5,10.01-10.47,14.1-15.47L11.02,48.32V33.3c-0.46-5.92,7.73-16.39,14.55-17.3H53.32z"/>
<path fill-rule="evenodd" clip-rule="evenodd" fill="#A9110E" d="M376.29,33.75c0,1.37,0.91,3.19,0.91,4.55l-0.46,54.63
	c-24.11,10.47-48.67,20.48-72.32,30.95c-10.01,4.1-20.02,8.19-29.57,12.74c-4.09,1.37-17.74,6.83-17.74,8.65
	c0,0.91,1.82,4.1,2.27,6.38l4.1,13.65c0.45,0.46,1.36,0.91,1.82,0.91l108.26-22.76h3.18v11.84c-0.91,11.83-11.37,22.3-21.38,22.3
	H255.29c-2.27-0.45-5-0.91-6.82-1.82c-1.37-0.45-10.01-6.37-10.01-8.65c0-1.36-2.28-3.18-2.73-5c-0.46-1.37-0.46-3.19-0.46-4.1
	v-47.34c3.19,3.64,6.37,7.74,8.65,10.47l131-87.4H376.29z M300.78,16l-65.51,70.55V34.21c-0.9-5.46,6.83-17.3,14.56-18.21H300.78z"
	/>
<path fill-rule="evenodd" clip-rule="evenodd" fill="#A9110E" d="M248.47,399.72c-9.56-3.18-13.2-12.29-13.2-17.29v-7.74
	L248.47,399.72z M361.73,240.41c8.19,2.73,15.01,13.2,15.01,20.48v12.75c0,0-0.45,0.45-0.91,0.45l-98.25-33.68H361.73z
	 M256.65,240.41c-2.73,5.92-6.36,12.29-10,18.21l130.09,83.3l0.46,37.78l-0.91,0.91c-0.91,10.47-10.01,21.39-20.47,21.39h-17.74
	c-34.57-35.96-68.69-72.38-102.81-107.88v-35.5c-0.45-6.38,5.92-15.94,13.65-18.21H256.65z"/>
<path fill-rule="evenodd" clip-rule="evenodd" fill="#A9110E" d="M500.93,240.41c7.27,1.36,14.55,1.82,21.38,2.73
	c4.09,0.91,9.55,1.36,14.1,1.82c3.64,0.91,8.18,1.37,13.19,1.82l10.92,1.37c12.73,1.36,25.92,3.64,38.21,5.46
	c1.36,2.27,2.27,5.46,2.27,6.83v90.12c0,0-0.45,0.46-0.91,0.46l-140.56-48.25v-44.15c-0.91-5.47,6.82-17.3,14.56-18.21H500.93z"/>
<path fill-rule="evenodd" clip-rule="evenodd" fill="#A9110E" d="M600.55,97.02v61c-3.19,10.92-10.92,19.12-20.02,19.12H478.64
	c-6.37,1.36-18.65-10.47-18.65-16.39V125.7l137.37-28.68H600.55z M556.42,16l-96.43,41.42v-26.4c0.91-5.01,8.18-14.11,14.1-15.02
	H556.42z"/>
<polygon fill-rule="evenodd" clip-rule="evenodd" fill="none" stroke="#000000" stroke-width="3" stroke-linecap="square" stroke-miterlimit="10" points="
	61.13,649.26 151.81,631.37 151.81,729.62 61.13,711.77 "/>
<path fill-rule="evenodd" clip-rule="evenodd" d="M69.99,647.56l1.15,24.62c0.75-0.32,1.87-0.19,2.7-0.04
	c1.2-8.53,2.29-17.17,3.46-26.02l8.66-1.71l-9.28,29.05c0.81,0.56,1.62,1.41,2.44,2.47l20.72-34.25l24.43-4.81L81.1,679.46
	c0.52,1.1,0.78,2.5,1.24,3.41l69.54-35.43v27.42L82.93,686.6c0,0.81,0.07,1.62,0,2.52l68.95,4.67v25.62L83,692.85l-0.33-0.02
	c-0.13,1-0.33,2.08-0.59,3.07l36.45,27.11l-19.94-3.92l-17.68-19.91c-0.58,0.93-1.22,1.95-1.92,2.86l8.27,14.93l-7.12-1.41
	l-3.64-11.4c-1.04,0.63-2.18,0.85-3.2,1l0.72,9.1l-4.82-0.95l0.91-8.61c0,0,0-0.1-0.06-0.2c-0.79-0.49-1.69-0.98-2.47-1.83
	l-3.25,9.77l-3.18-0.62v-4.87l4.14-7.22c-0.32-0.67-0.7-1.44-1.01-2.2l-3.13,3.48v-7.88c0.51-0.14,1.08-0.45,1.65-0.58
	c0,0,0.05,0,0.05-0.18c0-0.27-0.36-2.97-0.36-3.15v-1.79l-1.34-0.05v-5.14c0.56,0.36,1.18,0.73,1.76,1.09
	c0.31-1.34,0.73-3.13,1.37-4.4l-3.13-4.13v-11.42l5.11,12.06c0.72-0.94,1.54-1.53,1.99-2.19l-5.55-24.26L69.99,647.56z"/>
<polygon fill-rule="evenodd" clip-rule="evenodd" fill="none" stroke="#000000" stroke-width="3" stroke-linecap="square" stroke-miterlimit="10" points="
	371.13,649.26 461.81,631.37 461.81,729.62 371.13,711.77 "/>
<path fill-rule="evenodd" clip-rule="evenodd" d="M379.99,647.56l1.15,24.62c0.75-0.32,1.87-0.19,2.7-0.04
	c1.2-8.53,2.29-17.17,3.46-26.02l8.66-1.71l-9.28,29.05c0.81,0.56,1.62,1.41,2.44,2.47l20.72-34.25l24.43-4.81l-43.17,42.59
	c0.52,1.1,0.78,2.5,1.24,3.41l69.54-35.43v27.42l-68.95,11.74c0,0.81,0.07,1.62,0,2.52l68.95,4.67v25.62L393,692.85l-0.33-0.02
	c-0.13,1-0.33,2.08-0.59,3.07l36.45,27.11l-19.94-3.92l-17.68-19.91c-0.58,0.93-1.22,1.95-1.92,2.86l8.27,14.93l-7.12-1.41
	l-3.64-11.4c-1.04,0.63-2.18,0.85-3.2,1l0.72,9.1l-4.82-0.95l0.91-8.61c0,0,0-0.1-0.06-0.2c-0.79-0.49-1.69-0.98-2.47-1.83
	l-3.25,9.77l-3.18-0.62v-4.87l4.14-7.22c-0.32-0.67-0.7-1.44-1.01-2.2l-3.13,3.48v-7.88c0.51-0.14,1.08-0.45,1.65-0.58
	c0,0,0.05,0,0.05-0.18c0-0.27-0.36-2.97-0.36-3.15v-1.79l-1.34-0.05v-5.14c0.56,0.36,1.18,0.73,1.76,1.09
	c0.31-1.34,0.73-3.13,1.37-4.4l-3.13-4.13v-11.42l5.11,12.06c0.72-0.94,1.54-1.53,1.99-2.19l-5.55-24.26L379.99,647.56z"/>
</svg>
