<?xml version="1.0" encoding="utf-8"?>
<!-- Generator: Adobe Illustrator 16.0.0, SVG Export Plug-In . SVG Version: 6.00 Build 0)  -->
<!DOCTYPE svg PUBLIC "-//W3C//DTD SVG 1.1//EN" "http://www.w3.org/Graphics/SVG/1.1/DTD/svg11.dtd">
<svg version="1.1" id="Layer_1" xmlns="http://www.w3.org/2000/svg" xmlns:xlink="http://www.w3.org/1999/xlink" x="0px" y="0px"
	 width="612px" height="792px" viewBox="0 0 612 792" enable-background="new 0 0 612 792" xml:space="preserve">
<g>
	<polyline fill="none" stroke="#000000" stroke-miterlimit="10" points="29.5,-153 245.5,-153 245.5,68 29.5,68 29.5,-153 	"/>
	<line fill="none" stroke="#000000" stroke-miterlimit="10" x1="29.5" y1="-153" x2="245.5" y2="68"/>
	<line fill="none" stroke="#000000" stroke-miterlimit="10" x1="245.5" y1="-153" x2="29.5" y2="68"/>
</g>
<g>
	<polyline fill="none" stroke="#000000" stroke-miterlimit="10" points="-195.5,-153 20.5,-153 20.5,68 -195.5,68 -195.5,-153 	"/>
	<line fill="none" stroke="#000000" stroke-miterlimit="10" x1="-195.5" y1="-153" x2="20.5" y2="68"/>
	<line fill="none" stroke="#000000" stroke-miterlimit="10" x1="20.5" y1="-153" x2="-195.5" y2="68"/>
</g>
<g>
	<polyline fill="none" stroke="#000000" stroke-miterlimit="10" points="-420.5,-153 -205.5,-153 -205.5,68 -420.5,68 -420.5,-153 	
		"/>
	<line fill="none" stroke="#000000" stroke-miterlimit="10" x1="-420.5" y1="-153" x2="-205.5" y2="68"/>
	<line fill="none" stroke="#000000" stroke-miterlimit="10" x1="-205.5" y1="-153" x2="-420.5" y2="68"/>
</g>
<g>
	<polyline fill="none" stroke="#000000" stroke-miterlimit="10" points="-645.5,-153 -429.5,-153 -429.5,68 -645.5,68 -645.5,-153 	
		"/>
	<line fill="none" stroke="#000000" stroke-miterlimit="10" x1="-645.5" y1="-153" x2="-429.5" y2="68"/>
	<line fill="none" stroke="#000000" stroke-miterlimit="10" x1="-429.5" y1="-153" x2="-645.5" y2="68"/>
</g>
<g>
	<polyline fill="none" stroke="#000000" stroke-miterlimit="10" points="1041.5,-153 1257.5,-153 1257.5,69 1041.5,69 1041.5,-153 	
		"/>
	<line fill="none" stroke="#000000" stroke-miterlimit="10" x1="1041.5" y1="-153" x2="1257.5" y2="69"/>
	<line fill="none" stroke="#000000" stroke-miterlimit="10" x1="1257.5" y1="-153" x2="1041.5" y2="69"/>
</g>
<g>
	<polyline fill="none" stroke="#000000" stroke-miterlimit="10" points="816.5,-153 1032.5,-153 1032.5,69 816.5,69 816.5,-153 	"/>
	<line fill="none" stroke="#000000" stroke-miterlimit="10" x1="816.5" y1="-153" x2="1032.5" y2="69"/>
	<line fill="none" stroke="#000000" stroke-miterlimit="10" x1="1032.5" y1="-153" x2="816.5" y2="69"/>
</g>
<g>
	<polyline fill="none" stroke="#000000" stroke-miterlimit="10" points="591.5,-153 807.5,-153 807.5,69 591.5,69 591.5,-153 	"/>
	<line fill="none" stroke="#000000" stroke-miterlimit="10" x1="591.5" y1="-153" x2="807.5" y2="69"/>
	<line fill="none" stroke="#000000" stroke-miterlimit="10" x1="807.5" y1="-153" x2="591.5" y2="69"/>
</g>
<g>
	<polyline fill="none" stroke="#000000" stroke-miterlimit="10" points="366.5,-153 582.5,-153 582.5,69 366.5,69 366.5,-153 	"/>
	<line fill="none" stroke="#000000" stroke-miterlimit="10" x1="366.5" y1="-153" x2="582.5" y2="69"/>
	<line fill="none" stroke="#000000" stroke-miterlimit="10" x1="582.5" y1="-153" x2="366.5" y2="69"/>
</g>
<g>
	<polyline fill="none" stroke="#000000" stroke-miterlimit="10" points="29.5,169 245.5,169 245.5,391 29.5,391 29.5,169 	"/>
	<line fill="none" stroke="#000000" stroke-miterlimit="10" x1="29.5" y1="169" x2="245.5" y2="391"/>
	<line fill="none" stroke="#000000" stroke-miterlimit="10" x1="245.5" y1="169" x2="29.5" y2="391"/>
</g>
<g>
	<polyline fill="none" stroke="#000000" stroke-miterlimit="10" points="-195.5,169 20.5,169 20.5,391 -195.5,391 -195.5,169 	"/>
	<line fill="none" stroke="#000000" stroke-miterlimit="10" x1="-195.5" y1="169" x2="20.5" y2="391"/>
	<line fill="none" stroke="#000000" stroke-miterlimit="10" x1="20.5" y1="169" x2="-195.5" y2="391"/>
</g>
<g>
	<polyline fill="none" stroke="#000000" stroke-miterlimit="10" points="-420.5,169 -204.5,169 -204.5,391 -420.5,391 -420.5,169 	
		"/>
	<line fill="none" stroke="#000000" stroke-miterlimit="10" x1="-420.5" y1="169" x2="-204.5" y2="391"/>
	<line fill="none" stroke="#000000" stroke-miterlimit="10" x1="-204.5" y1="169" x2="-420.5" y2="391"/>
</g>
<g>
	<polyline fill="none" stroke="#000000" stroke-miterlimit="10" points="-645.5,169 -429.5,169 -429.5,391 -645.5,391 -645.5,169 	
		"/>
	<line fill="none" stroke="#000000" stroke-miterlimit="10" x1="-645.5" y1="169" x2="-429.5" y2="391"/>
	<line fill="none" stroke="#000000" stroke-miterlimit="10" x1="-429.5" y1="169" x2="-645.5" y2="391"/>
</g>
<g>
	<polyline fill="none" stroke="#000000" stroke-miterlimit="10" points="816.5,169 1032.5,169 1032.5,391 816.5,391 816.5,169 	"/>
	<line fill="none" stroke="#000000" stroke-miterlimit="10" x1="816.5" y1="169" x2="1032.5" y2="391"/>
	<line fill="none" stroke="#000000" stroke-miterlimit="10" x1="1032.5" y1="169" x2="816.5" y2="391"/>
</g>
<g>
	<polyline fill="none" stroke="#000000" stroke-miterlimit="10" points="591.5,169 807.5,169 807.5,391 591.5,391 591.5,169 	"/>
	<line fill="none" stroke="#000000" stroke-miterlimit="10" x1="591.5" y1="169" x2="807.5" y2="391"/>
	<line fill="none" stroke="#000000" stroke-miterlimit="10" x1="807.5" y1="169" x2="591.5" y2="391"/>
</g>
<g>
	<polyline fill="none" stroke="#000000" stroke-miterlimit="10" points="366.5,169 582.5,169 582.5,391 366.5,391 366.5,169 	"/>
	<line fill="none" stroke="#000000" stroke-miterlimit="10" x1="366.5" y1="169" x2="582.5" y2="391"/>
	<line fill="none" stroke="#000000" stroke-miterlimit="10" x1="582.5" y1="169" x2="366.5" y2="391"/>
</g>
<g>
	<polyline fill="none" stroke="#000000" stroke-miterlimit="10" points="371.5,496 587.5,496 587.5,718 371.5,718 371.5,496 	"/>
	<line fill="none" stroke="#000000" stroke-miterlimit="10" x1="371.5" y1="496" x2="587.5" y2="718"/>
	<line fill="none" stroke="#000000" stroke-miterlimit="10" x1="587.5" y1="496" x2="371.5" y2="718"/>
</g>
<g>
	<polyline fill="none" stroke="#000000" stroke-miterlimit="10" points="596.5,723 812.5,723 812.5,945 596.5,945 596.5,723 	"/>
	<line fill="none" stroke="#000000" stroke-miterlimit="10" x1="596.5" y1="723" x2="812.5" y2="945"/>
	<line fill="none" stroke="#000000" stroke-miterlimit="10" x1="812.5" y1="723" x2="596.5" y2="945"/>
</g>
<g>
	<polyline fill="none" stroke="#000000" stroke-miterlimit="10" points="371.5,723 587.5,723 587.5,945 371.5,945 371.5,723 	"/>
	<line fill="none" stroke="#000000" stroke-miterlimit="10" x1="371.5" y1="723" x2="587.5" y2="945"/>
	<line fill="none" stroke="#000000" stroke-miterlimit="10" x1="587.5" y1="723" x2="371.5" y2="945"/>
</g>
<g>
	<polyline fill="none" stroke="#000000" stroke-miterlimit="10" points="146.5,723 362.5,723 362.5,945 146.5,945 146.5,723 	"/>
	<line fill="none" stroke="#000000" stroke-miterlimit="10" x1="146.5" y1="723" x2="362.5" y2="945"/>
	<line fill="none" stroke="#000000" stroke-miterlimit="10" x1="362.5" y1="723" x2="146.5" y2="945"/>
</g>
<g>
	<polyline fill="none" stroke="#000000" stroke-miterlimit="10" points="-195.5,723 20.5,723 20.5,945 -195.5,945 -195.5,723 	"/>
	<line fill="none" stroke="#000000" stroke-miterlimit="10" x1="-195.5" y1="723" x2="20.5" y2="945"/>
	<line fill="none" stroke="#000000" stroke-miterlimit="10" x1="20.5" y1="723" x2="-195.5" y2="945"/>
</g>
<g>
	<polyline fill="none" stroke="#000000" stroke-miterlimit="10" points="-420.5,723 -204.5,723 -204.5,945 -420.5,945 -420.5,723 	
		"/>
	<line fill="none" stroke="#000000" stroke-miterlimit="10" x1="-420.5" y1="723" x2="-204.5" y2="945"/>
	<line fill="none" stroke="#000000" stroke-miterlimit="10" x1="-204.5" y1="723" x2="-420.5" y2="945"/>
</g>
<g>
	<polyline fill="none" stroke="#000000" stroke-miterlimit="10" points="-645.5,723 -429.5,723 -429.5,945 -645.5,945 -645.5,723 	
		"/>
	<line fill="none" stroke="#000000" stroke-miterlimit="10" x1="-645.5" y1="723" x2="-429.5" y2="945"/>
	<line fill="none" stroke="#000000" stroke-miterlimit="10" x1="-429.5" y1="723" x2="-645.5" y2="945"/>
</g>
<g>
	<polyline fill="none" stroke="#000000" stroke-miterlimit="10" points="-195.5,499 20.5,499 20.5,721 -195.5,721 -195.5,499 	"/>
	<line fill="none" stroke="#000000" stroke-miterlimit="10" x1="-195.5" y1="499" x2="20.5" y2="721"/>
	<line fill="none" stroke="#000000" stroke-miterlimit="10" x1="20.5" y1="499" x2="-195.5" y2="721"/>
</g>
<g>
	<polyline fill="none" stroke="#000000" stroke-miterlimit="10" points="-420.5,499 -204.5,499 -204.5,721 -420.5,721 -420.5,499 	
		"/>
	<line fill="none" stroke="#000000" stroke-miterlimit="10" x1="-420.5" y1="499" x2="-204.5" y2="721"/>
	<line fill="none" stroke="#000000" stroke-miterlimit="10" x1="-204.5" y1="499" x2="-420.5" y2="721"/>
</g>
<g>
	<polyline fill="none" stroke="#000000" stroke-miterlimit="10" points="-645.5,499 -429.5,499 -429.5,721 -645.5,721 -645.5,499 	
		"/>
	<line fill="none" stroke="#000000" stroke-miterlimit="10" x1="-645.5" y1="499" x2="-429.5" y2="721"/>
	<line fill="none" stroke="#000000" stroke-miterlimit="10" x1="-429.5" y1="499" x2="-645.5" y2="721"/>
</g>
<path fill-rule="evenodd" clip-rule="evenodd" d="M-572.38-52c0,19.82,16.06,35.88,35.88,35.88s35.88-16.06,35.88-35.88
	s-16.06-35.88-35.88-35.88S-572.38-71.82-572.38-52z M-559.5-55h47v6h-47V-55z"/>
<path fill-rule="evenodd" clip-rule="evenodd" d="M-348.38-52c0,19.82,16.06,35.88,35.88,35.88s35.88-16.06,35.88-35.88
	s-16.06-35.88-35.88-35.88S-348.38-71.82-348.38-52z M-331.5-69h38v6h-38V-69z M-334.5-42h45v6h-45V-42z"/>
<path fill-rule="evenodd" clip-rule="evenodd" d="M-122.38-52c0,19.82,16.06,35.88,35.88,35.88S-50.62-32.18-50.62-52
	S-66.68-87.88-86.5-87.88S-122.38-71.82-122.38-52z M-102.5-55h33v6h-33V-55z M-106.5-72h41v6h-41V-72z M-106.5-38h41v6h-41V-38z"/>
<path fill-rule="evenodd" clip-rule="evenodd" d="M131.5-67h-10v27h33v-27h-10v15c0,1.76,0.32,2,2,2h1c1.75,0,2-0.94,2-7
	c0.66,0.54,3.34,1.76,4,2c-0.06,3.25-1,6.81-1,8c-0.6,1.42-1.08,2-4,2h-3c-4.1,0-6-4.34-6-7v-15h-3c-0.5,10.16-2.83,20.56-11,25
	c-0.4-0.73-2.3-3.5-3-4C129.74-50.02,131.1-57.43,131.5-67z M101.62-52c0,19.82,16.06,35.88,35.88,35.88S173.38-32.18,173.38-52
	s-16.06-35.88-35.88-35.88S101.62-71.82,101.62-52z M115.5-30v-43h45v43h-6v-4h-33v4H115.5z"/>
<path fill-rule="evenodd" clip-rule="evenodd" d="M485.5-38v-12h-11c-1.2,5.91-1.99,7.59-3,12H485.5z M440.62-51
	c0,19.82,16.06,35.88,35.88,35.88c19.82,0,35.88-16.06,35.88-35.88s-16.06-35.88-35.88-35.88C456.68-86.88,440.62-70.82,440.62-51z
	 M491.5-56v18h8v6h-46v-6h12c1.15-4.46,1.8-6.18,3-12h-10v-6h11c0.44-4.13,0.75-5.06,1-9h-14v-6h40v6h-20c-0.37,4.06-0.44,4.81-1,9
	H491.5z"/>
<path fill-rule="evenodd" clip-rule="evenodd" d="M664.62-51c0,19.82,16.06,35.88,35.88,35.88c19.82,0,35.88-16.06,35.88-35.88
	s-16.06-35.88-35.88-35.88C680.68-86.88,664.62-70.82,664.62-51z M723.5-32l-6,2c-2.06-5.38-7.3-14.57-12-21l4-3
	C714.2-47.66,721.29-37.42,723.5-32z M690.5-54l6,2c-0.14,0.34-9.25,18.06-14,23c-0.67-0.58-4.14-3.47-5-4
	C682.16-37.56,687.67-46.51,690.5-54z M703.5-75c-0.05,0.41,0,10,0,10h19v6h-44v-6h19v-10H703.5z"/>
<path fill-rule="evenodd" clip-rule="evenodd" d="M890.62-51c0,19.82,16.06,35.88,35.88,35.88c19.82,0,35.88-16.06,35.88-35.88
	s-16.06-35.88-35.88-35.88C906.68-86.88,890.62-70.82,890.62-51z M921.5-53v15c0,2.94-0.45,3,3,3h12c3.45,0,2.55-1.73,3-9
	c0.79,0.63,5.07,1.76,6,2c-0.57,8.02-1.29,12-7,12h-16c-5.57,0-7-2.61-7-8v-14l-13,2v-6l13-2v-16h6c-0.05,0.41,0,15,0,15l26-4v6
	L921.5-53z"/>
<path fill-rule="evenodd" clip-rule="evenodd" d="M1114.62-51c0,19.82,16.06,35.88,35.88,35.88c19.82,0,35.88-16.06,35.88-35.88
	s-16.06-35.88-35.88-35.88C1130.68-86.88,1114.62-70.82,1114.62-51z M1139.5-63h7c-0.1,0.43-5.88,26-13.88,33.49
	c-0.58-0.67-4.84-4.82-5.62-5.35C1134.66-41.82,1138.14-52.63,1139.5-63z M1138.86-68v-5h22.18c1.55,16.54,4.99,32.03,13.96,38.85
	c-0.92,0.58-3.33,2.73-4.1,3.55c-8.73-7.25-13.27-21.22-14.87-37.4H1138.86z"/>
<path fill-rule="evenodd" clip-rule="evenodd" d="M-572.38,271c0,19.82,16.06,35.88,35.88,35.88s35.88-16.06,35.88-35.88
	s-16.06-35.88-35.88-35.88S-572.38,251.18-572.38,271z M-523.5,257v27c0,1.74-0.38,2,1,2h4c1.43,0,0.86-0.84,1-8
	c0.76,0.61,4.1-0.19,5,0c0,7.75,1,13-6,13h-5c-3.25,0-6-2.05-6-6v-22h-9c-0.93,11.21-5.77,22.64-17,29c-0.53-0.81-3.09-3.48-4-4
	c10.46-5.67,13.94-14.29,15-25h-13v-6h13c0.25-3.97-0.04-7.02,0-11h6c-0.05,0.46,0,7.19,0,11H-523.5z"/>
<path fill-rule="evenodd" clip-rule="evenodd" d="M-348.38,271c0,19.82,16.06,35.88,35.88,35.88s35.88-16.06,35.88-35.88
	s-16.06-35.88-35.88-35.88S-348.38,251.18-348.38,271z M-315.5,248h6v20h20v6h-20v20h-6v-20h-20v-6h20V248z"/>
<path fill-rule="evenodd" clip-rule="evenodd" d="M-122.38,271c0,19.82,16.06,35.88,35.88,35.88s35.88-16.06,35.88-35.88
	s-16.06-35.88-35.88-35.88S-122.38,251.18-122.38,271z M-102.5,286h32v6h-32V286z M-89.5,247h6v13h13v6h-13v13h-6v-13h-13v-6h13V247
	z"/>
<path fill-rule="evenodd" clip-rule="evenodd" d="M101.62,271c0,19.82,16.06,35.88,35.88,35.88s35.88-16.06,35.88-35.88
	s-16.06-35.88-35.88-35.88S101.62,251.18,101.62,271z M121.5,291h32v6h-32V291z M124.5,279h26v6h-26V279z M134.5,241h6v13h13v6h-13
	v13h-6v-13h-13v-6h13V241z"/>
<rect x="435.78" y="233" fill-rule="evenodd" clip-rule="evenodd" width="20.939" height="8.57"/>
<path fill-rule="evenodd" clip-rule="evenodd" d="M474.5,258.88c-10.01,0-18.12,8.11-18.12,18.12s8.11,18.12,18.12,18.12
	s18.12-8.11,18.12-18.12S484.51,258.88,474.5,258.88z M429.5,254.2v44.28c0,5.42,3.06,8.52,8.4,8.52h72.2c5.34,0,8.4-3.1,8.4-8.52
	V254.2c0-5.41-3.06-8.51-8.4-8.51h-72.2C432.56,245.69,429.5,248.79,429.5,254.2z M474.5,254c12.7,0,23,10.3,23,23s-10.3,23-23,23
	s-23-10.3-23-23S461.8,254,474.5,254z"/>
<rect x="897.5" y="243" fill-rule="evenodd" clip-rule="evenodd" width="16.03" height="65"/>
<rect x="938.47" y="243" fill-rule="evenodd" clip-rule="evenodd" width="16.03" height="65"/>
<path fill-rule="evenodd" clip-rule="evenodd" d="M687.72,303.89c0.22,2.02,0.22,4.26,0,6.5h53.16c1.96-0.23,2.4-2.47,2.4-3.36
	c0-1.12-0.65-3.58-2.84-3.14H687.72z M661.25,232.02c-5.91,1.35-8.75,6.05-8.75,10.53c0,0.67,0.44,1.79,0.44,2.68
	c0.22,3.14,5.47,8.29,8.97,8.29h1.31v-7.39c-2.189,0-3.5-2.02-3.5-3.58c0-2.24,1.97-3.36,3.5-3.36c1.09,0,3.28,0.67,3.28,2.68v66.5
	c0.22,4.7,6.13,9.63,9.41,9.63h65.62c3.72-0.22,8.97-5.6,8.97-8.28v-5.15c-0.22-3.59-5.69-8.29-9.19-8.29h-61.25
	c-2.62,1.34-3.06,2.46-3.06,4.03c0,4.03,3.5,3.36,3.5,6.72c0,2.24-1.75,3.58-3.28,3.58c-1.53,0-2.63-0.89-3.5-2.69V241.2
	c-0.22-0.45-0.22-1.12-0.439-1.79l53.16-0.22c0.87,0,3.06,1.34,3.06,2.68v51.05h7.22V241.2c0.44-3.13-5.25-9.63-8.53-9.18H661.25z"
	/>
<path fill-rule="evenodd" clip-rule="evenodd" d="M717.4,265.84c0.35,0,2.1,1.19,2.1,1.9v21.12c-0.23,0.6-1.4,2.14-2.22,2.14h-28.8
	c-0.35-0.24-1.98-1.42-1.98-1.78V267.5c0.23-0.71,1.17-1.66,1.87-1.66H717.4z M715.07,251.12c0.35,0.71,0.7,2.37,0.7,2.73v9.14h-5.6
	v-8.66c-1.16-3.56-5.01-4.51-7.46-4.51c-0.23,0-1.17,0.11-1.75,0.11c-1.4,0-5.25,2.26-5.25,4.51v8.19l-0.35,0.36h-4.9
	c-0.11-0.12,0-0.24-0.35-10.21c2.45-7.83,7.93-8.78,12.83-8.78C707.26,244,712.5,244.95,715.07,251.12z"/>
<g>
	<polygon fill-rule="evenodd" clip-rule="evenodd" points="474.92,609.5 458.67,609.5 478.83,589.33 499,609.5 482.75,609.5 	"/>
</g>
<g>
	<polygon fill-rule="evenodd" clip-rule="evenodd" points="482.75,820.33 499,820.33 478.83,840.5 458.67,820.33 474.92,820.33 	"/>
</g>
<g>
	<polygon fill-rule="evenodd" clip-rule="evenodd" points="695.25,826 695.25,809.75 715.42,829.92 695.25,850.08 695.25,833.83 	
		"/>
</g>
<g>
	<polygon fill-rule="evenodd" clip-rule="evenodd" points="262.42,833.83 262.42,850.08 242.25,829.92 262.42,809.75 262.42,826 	
		"/>
</g>
<g>
	<polygon fill-rule="evenodd" clip-rule="evenodd" points="-573.67,826.58 -512.17,826.58 -512.17,809 -492,829.17 -512.17,849.33 
		-512.17,831.75 -568.5,831.75 -573.67,831.75 	"/>
</g>
<path fill-rule="evenodd" clip-rule="evenodd" d="M-578.5,627v6h36.67l-6-6H-578.5z M-530.83,633h35.33v-6h-29.33L-530.83,633z"/>
<polygon fill-rule="evenodd" clip-rule="evenodd" points="-534.08,568.5 -534.08,602.33 -516.17,602.33 -536.33,622.5 
	-556.5,602.33 -538.58,602.33 -538.58,573 -538.58,568.5 "/>
<g>
	<g>
		<polygon fill-rule="evenodd" clip-rule="evenodd" points="-321.17,826.58 -321.17,809 -301,829.17 -321.17,849.33 -321.17,831.75 
					"/>
	</g>
	<g>
		<polygon fill-rule="evenodd" clip-rule="evenodd" points="-341.17,826.58 -341.17,809 -321,829.17 -341.17,849.33 -341.17,831.75 
					"/>
	</g>
	<rect x="-297.5" y="808" fill-rule="evenodd" clip-rule="evenodd" width="6" height="41"/>
	<rect x="-286.5" y="808" fill-rule="evenodd" clip-rule="evenodd" width="6" height="41"/>
</g>
<g>
	<g>
		<polygon fill-rule="evenodd" clip-rule="evenodd" points="-300.5,605.75 -300.5,623.33 -320.67,603.17 -300.5,583 -300.5,600.58 
					"/>
	</g>
	<g>
		<polygon fill-rule="evenodd" clip-rule="evenodd" points="-280.5,605.75 -280.5,623.33 -300.67,603.17 -280.5,583 -280.5,600.58 
					"/>
	</g>
	<rect x="-330.17" y="583.33" fill-rule="evenodd" clip-rule="evenodd" width="6" height="41"/>
	<rect x="-341.17" y="583.33" fill-rule="evenodd" clip-rule="evenodd" width="6" height="41"/>
</g>
<g>
	<g>
		<polygon fill-rule="evenodd" clip-rule="evenodd" points="-85.92,610 -103.5,610 -83.33,589.83 -63.17,610 -80.75,610 		"/>
	</g>
	<rect x="-104.5" y="572.33" fill-rule="evenodd" clip-rule="evenodd" width="41" height="6"/>
	<rect x="-104.5" y="627.33" fill-rule="evenodd" clip-rule="evenodd" width="41" height="6"/>
</g>
<g>
	<g>
		<polygon fill-rule="evenodd" clip-rule="evenodd" points="-81.75,821.67 -64.17,821.67 -84.33,841.83 -104.5,821.67 
			-86.92,821.67 		"/>
	</g>
	<rect x="-104.17" y="853.33" fill-rule="evenodd" clip-rule="evenodd" width="41" height="6"/>
	<rect x="-104.17" y="798.33" fill-rule="evenodd" clip-rule="evenodd" width="41" height="6"/>
</g>
</svg>
